<?xml version="1.0" encoding="utf-8" standalone="no"?>
<!DOCTYPE svg PUBLIC "-//W3C//DTD SVG 1.1//EN"
  "http://www.w3.org/Graphics/SVG/1.1/DTD/svg11.dtd">
<svg xmlns:xlink="http://www.w3.org/1999/xlink" width="460.8pt" height="345.6pt" viewBox="0 0 460.8 345.6" xmlns="http://www.w3.org/2000/svg" version="1.1">
 <metadata>
  <rdf:RDF xmlns:dc="http://purl.org/dc/elements/1.1/" xmlns:cc="http://creativecommons.org/ns#" xmlns:rdf="http://www.w3.org/1999/02/22-rdf-syntax-ns#">
   <cc:Work>
    <dc:type rdf:resource="http://purl.org/dc/dcmitype/StillImage"/>
    <dc:date>2023-05-02T19:50:05.754451</dc:date>
    <dc:format>image/svg+xml</dc:format>
    <dc:creator>
     <cc:Agent>
      <dc:title>Matplotlib v3.7.1, https://matplotlib.org/</dc:title>
     </cc:Agent>
    </dc:creator>
   </cc:Work>
  </rdf:RDF>
 </metadata>
 <defs>
  <style type="text/css">*{stroke-linejoin: round; stroke-linecap: butt}</style>
 </defs>
 <g id="figure_1">
  <g id="patch_1">
   <path d="M 0 345.6 
L 460.8 345.6 
L 460.8 0 
L 0 0 
z
" style="fill: #ffffff"/>
  </g>
  <g id="axes_1">
   <g id="patch_2">
    <path d="M 57.6 307.584 
L 414.72 307.584 
L 414.72 41.472 
L 57.6 41.472 
z
" style="fill: #ffffff"/>
   </g>
   <g id="matplotlib.axis_1">
    <g id="xtick_1">
     <g id="line2d_1">
      <defs>
       <path id="m0e807594db" d="M 0 0 
L 0 6 
" style="stroke: #262626; stroke-width: 1.25"/>
      </defs>
      <g>
       <use xlink:href="#m0e807594db" x="71.90026" y="307.584" style="fill: #262626; stroke: #262626; stroke-width: 1.25"/>
      </g>
     </g>
     <g id="text_1">
      <!-- 0 -->
      <g style="fill: #262626" transform="translate(68.400885 325.442281) scale(0.11 -0.11)">
       <defs>
        <path id="DejaVuSans-30" d="M 2034 4250 
Q 1547 4250 1301 3770 
Q 1056 3291 1056 2328 
Q 1056 1369 1301 889 
Q 1547 409 2034 409 
Q 2525 409 2770 889 
Q 3016 1369 3016 2328 
Q 3016 3291 2770 3770 
Q 2525 4250 2034 4250 
z
M 2034 4750 
Q 2819 4750 3233 4129 
Q 3647 3509 3647 2328 
Q 3647 1150 3233 529 
Q 2819 -91 2034 -91 
Q 1250 -91 836 529 
Q 422 1150 422 2328 
Q 422 3509 836 4129 
Q 1250 4750 2034 4750 
z
" transform="scale(0.015625)"/>
       </defs>
       <use xlink:href="#DejaVuSans-30"/>
      </g>
     </g>
    </g>
    <g id="xtick_2">
     <g id="line2d_2">
      <g>
       <use xlink:href="#m0e807594db" x="120.211948" y="307.584" style="fill: #262626; stroke: #262626; stroke-width: 1.25"/>
      </g>
     </g>
     <g id="text_2">
      <!-- 25 -->
      <g style="fill: #262626" transform="translate(113.213198 325.442281) scale(0.11 -0.11)">
       <defs>
        <path id="DejaVuSans-32" d="M 1228 531 
L 3431 531 
L 3431 0 
L 469 0 
L 469 531 
Q 828 903 1448 1529 
Q 2069 2156 2228 2338 
Q 2531 2678 2651 2914 
Q 2772 3150 2772 3378 
Q 2772 3750 2511 3984 
Q 2250 4219 1831 4219 
Q 1534 4219 1204 4116 
Q 875 4013 500 3803 
L 500 4441 
Q 881 4594 1212 4672 
Q 1544 4750 1819 4750 
Q 2544 4750 2975 4387 
Q 3406 4025 3406 3419 
Q 3406 3131 3298 2873 
Q 3191 2616 2906 2266 
Q 2828 2175 2409 1742 
Q 1991 1309 1228 531 
z
" transform="scale(0.015625)"/>
        <path id="DejaVuSans-35" d="M 691 4666 
L 3169 4666 
L 3169 4134 
L 1269 4134 
L 1269 2991 
Q 1406 3038 1543 3061 
Q 1681 3084 1819 3084 
Q 2600 3084 3056 2656 
Q 3513 2228 3513 1497 
Q 3513 744 3044 326 
Q 2575 -91 1722 -91 
Q 1428 -91 1123 -41 
Q 819 9 494 109 
L 494 744 
Q 775 591 1075 516 
Q 1375 441 1709 441 
Q 2250 441 2565 725 
Q 2881 1009 2881 1497 
Q 2881 1984 2565 2268 
Q 2250 2553 1709 2553 
Q 1456 2553 1204 2497 
Q 953 2441 691 2322 
L 691 4666 
z
" transform="scale(0.015625)"/>
       </defs>
       <use xlink:href="#DejaVuSans-32"/>
       <use xlink:href="#DejaVuSans-35" x="63.623047"/>
      </g>
     </g>
    </g>
    <g id="xtick_3">
     <g id="line2d_3">
      <g>
       <use xlink:href="#m0e807594db" x="168.523636" y="307.584" style="fill: #262626; stroke: #262626; stroke-width: 1.25"/>
      </g>
     </g>
     <g id="text_3">
      <!-- 50 -->
      <g style="fill: #262626" transform="translate(161.524886 325.442281) scale(0.11 -0.11)">
       <use xlink:href="#DejaVuSans-35"/>
       <use xlink:href="#DejaVuSans-30" x="63.623047"/>
      </g>
     </g>
    </g>
    <g id="xtick_4">
     <g id="line2d_4">
      <g>
       <use xlink:href="#m0e807594db" x="216.835325" y="307.584" style="fill: #262626; stroke: #262626; stroke-width: 1.25"/>
      </g>
     </g>
     <g id="text_4">
      <!-- 75 -->
      <g style="fill: #262626" transform="translate(209.836575 325.442281) scale(0.11 -0.11)">
       <defs>
        <path id="DejaVuSans-37" d="M 525 4666 
L 3525 4666 
L 3525 4397 
L 1831 0 
L 1172 0 
L 2766 4134 
L 525 4134 
L 525 4666 
z
" transform="scale(0.015625)"/>
       </defs>
       <use xlink:href="#DejaVuSans-37"/>
       <use xlink:href="#DejaVuSans-35" x="63.623047"/>
      </g>
     </g>
    </g>
    <g id="xtick_5">
     <g id="line2d_5">
      <g>
       <use xlink:href="#m0e807594db" x="265.147013" y="307.584" style="fill: #262626; stroke: #262626; stroke-width: 1.25"/>
      </g>
     </g>
     <g id="text_5">
      <!-- 100 -->
      <g style="fill: #262626" transform="translate(254.648888 325.442281) scale(0.11 -0.11)">
       <defs>
        <path id="DejaVuSans-31" d="M 794 531 
L 1825 531 
L 1825 4091 
L 703 3866 
L 703 4441 
L 1819 4666 
L 2450 4666 
L 2450 531 
L 3481 531 
L 3481 0 
L 794 0 
L 794 531 
z
" transform="scale(0.015625)"/>
       </defs>
       <use xlink:href="#DejaVuSans-31"/>
       <use xlink:href="#DejaVuSans-30" x="63.623047"/>
       <use xlink:href="#DejaVuSans-30" x="127.246094"/>
      </g>
     </g>
    </g>
    <g id="xtick_6">
     <g id="line2d_6">
      <g>
       <use xlink:href="#m0e807594db" x="313.458701" y="307.584" style="fill: #262626; stroke: #262626; stroke-width: 1.25"/>
      </g>
     </g>
     <g id="text_6">
      <!-- 125 -->
      <g style="fill: #262626" transform="translate(302.960576 325.442281) scale(0.11 -0.11)">
       <use xlink:href="#DejaVuSans-31"/>
       <use xlink:href="#DejaVuSans-32" x="63.623047"/>
       <use xlink:href="#DejaVuSans-35" x="127.246094"/>
      </g>
     </g>
    </g>
    <g id="xtick_7">
     <g id="line2d_7">
      <g>
       <use xlink:href="#m0e807594db" x="361.77039" y="307.584" style="fill: #262626; stroke: #262626; stroke-width: 1.25"/>
      </g>
     </g>
     <g id="text_7">
      <!-- 150 -->
      <g style="fill: #262626" transform="translate(351.272265 325.442281) scale(0.11 -0.11)">
       <use xlink:href="#DejaVuSans-31"/>
       <use xlink:href="#DejaVuSans-35" x="63.623047"/>
       <use xlink:href="#DejaVuSans-30" x="127.246094"/>
      </g>
     </g>
    </g>
    <g id="xtick_8">
     <g id="line2d_8">
      <g>
       <use xlink:href="#m0e807594db" x="410.082078" y="307.584" style="fill: #262626; stroke: #262626; stroke-width: 1.25"/>
      </g>
     </g>
     <g id="text_8">
      <!-- 175 -->
      <g style="fill: #262626" transform="translate(399.583953 325.442281) scale(0.11 -0.11)">
       <use xlink:href="#DejaVuSans-31"/>
       <use xlink:href="#DejaVuSans-37" x="63.623047"/>
       <use xlink:href="#DejaVuSans-35" x="127.246094"/>
      </g>
     </g>
    </g>
    <g id="text_9">
     <!-- O3 -->
     <g style="fill: #262626" transform="translate(227.619375 340.848062) scale(0.12 -0.12)">
      <defs>
       <path id="DejaVuSans-4f" d="M 2522 4238 
Q 1834 4238 1429 3725 
Q 1025 3213 1025 2328 
Q 1025 1447 1429 934 
Q 1834 422 2522 422 
Q 3209 422 3611 934 
Q 4013 1447 4013 2328 
Q 4013 3213 3611 3725 
Q 3209 4238 2522 4238 
z
M 2522 4750 
Q 3503 4750 4090 4092 
Q 4678 3434 4678 2328 
Q 4678 1225 4090 567 
Q 3503 -91 2522 -91 
Q 1538 -91 948 565 
Q 359 1222 359 2328 
Q 359 3434 948 4092 
Q 1538 4750 2522 4750 
z
" transform="scale(0.015625)"/>
       <path id="DejaVuSans-33" d="M 2597 2516 
Q 3050 2419 3304 2112 
Q 3559 1806 3559 1356 
Q 3559 666 3084 287 
Q 2609 -91 1734 -91 
Q 1441 -91 1130 -33 
Q 819 25 488 141 
L 488 750 
Q 750 597 1062 519 
Q 1375 441 1716 441 
Q 2309 441 2620 675 
Q 2931 909 2931 1356 
Q 2931 1769 2642 2001 
Q 2353 2234 1838 2234 
L 1294 2234 
L 1294 2753 
L 1863 2753 
Q 2328 2753 2575 2939 
Q 2822 3125 2822 3475 
Q 2822 3834 2567 4026 
Q 2313 4219 1838 4219 
Q 1578 4219 1281 4162 
Q 984 4106 628 3988 
L 628 4550 
Q 988 4650 1302 4700 
Q 1616 4750 1894 4750 
Q 2613 4750 3031 4423 
Q 3450 4097 3450 3541 
Q 3450 3153 3228 2886 
Q 3006 2619 2597 2516 
z
" transform="scale(0.015625)"/>
      </defs>
      <use xlink:href="#DejaVuSans-4f"/>
      <use xlink:href="#DejaVuSans-33" x="78.710938"/>
     </g>
    </g>
   </g>
   <g id="matplotlib.axis_2">
    <g id="ytick_1">
     <g id="line2d_9">
      <defs>
       <path id="md5fad2986d" d="M 0 0 
L -6 0 
" style="stroke: #262626; stroke-width: 1.25"/>
      </defs>
      <g>
       <use xlink:href="#md5fad2986d" x="57.6" y="307.584" style="fill: #262626; stroke: #262626; stroke-width: 1.25"/>
      </g>
     </g>
     <g id="text_10">
      <!-- 0 -->
      <g style="fill: #262626" transform="translate(41.10125 311.763141) scale(0.11 -0.11)">
       <use xlink:href="#DejaVuSans-30"/>
      </g>
     </g>
    </g>
    <g id="ytick_2">
     <g id="line2d_10">
      <g>
       <use xlink:href="#md5fad2986d" x="57.6" y="261.836708" style="fill: #262626; stroke: #262626; stroke-width: 1.25"/>
      </g>
     </g>
     <g id="text_11">
      <!-- 500 -->
      <g style="fill: #262626" transform="translate(27.10375 266.015848) scale(0.11 -0.11)">
       <use xlink:href="#DejaVuSans-35"/>
       <use xlink:href="#DejaVuSans-30" x="63.623047"/>
       <use xlink:href="#DejaVuSans-30" x="127.246094"/>
      </g>
     </g>
    </g>
    <g id="ytick_3">
     <g id="line2d_11">
      <g>
       <use xlink:href="#md5fad2986d" x="57.6" y="216.089415" style="fill: #262626; stroke: #262626; stroke-width: 1.25"/>
      </g>
     </g>
     <g id="text_12">
      <!-- 1000 -->
      <g style="fill: #262626" transform="translate(20.105 220.268556) scale(0.11 -0.11)">
       <use xlink:href="#DejaVuSans-31"/>
       <use xlink:href="#DejaVuSans-30" x="63.623047"/>
       <use xlink:href="#DejaVuSans-30" x="127.246094"/>
       <use xlink:href="#DejaVuSans-30" x="190.869141"/>
      </g>
     </g>
    </g>
    <g id="ytick_4">
     <g id="line2d_12">
      <g>
       <use xlink:href="#md5fad2986d" x="57.6" y="170.342123" style="fill: #262626; stroke: #262626; stroke-width: 1.25"/>
      </g>
     </g>
     <g id="text_13">
      <!-- 1500 -->
      <g style="fill: #262626" transform="translate(20.105 174.521263) scale(0.11 -0.11)">
       <use xlink:href="#DejaVuSans-31"/>
       <use xlink:href="#DejaVuSans-35" x="63.623047"/>
       <use xlink:href="#DejaVuSans-30" x="127.246094"/>
       <use xlink:href="#DejaVuSans-30" x="190.869141"/>
      </g>
     </g>
    </g>
    <g id="ytick_5">
     <g id="line2d_13">
      <g>
       <use xlink:href="#md5fad2986d" x="57.6" y="124.59483" style="fill: #262626; stroke: #262626; stroke-width: 1.25"/>
      </g>
     </g>
     <g id="text_14">
      <!-- 2000 -->
      <g style="fill: #262626" transform="translate(20.105 128.773971) scale(0.11 -0.11)">
       <use xlink:href="#DejaVuSans-32"/>
       <use xlink:href="#DejaVuSans-30" x="63.623047"/>
       <use xlink:href="#DejaVuSans-30" x="127.246094"/>
       <use xlink:href="#DejaVuSans-30" x="190.869141"/>
      </g>
     </g>
    </g>
    <g id="ytick_6">
     <g id="line2d_14">
      <g>
       <use xlink:href="#md5fad2986d" x="57.6" y="78.847538" style="fill: #262626; stroke: #262626; stroke-width: 1.25"/>
      </g>
     </g>
     <g id="text_15">
      <!-- 2500 -->
      <g style="fill: #262626" transform="translate(20.105 83.026679) scale(0.11 -0.11)">
       <use xlink:href="#DejaVuSans-32"/>
       <use xlink:href="#DejaVuSans-35" x="63.623047"/>
       <use xlink:href="#DejaVuSans-30" x="127.246094"/>
       <use xlink:href="#DejaVuSans-30" x="190.869141"/>
      </g>
     </g>
    </g>
    <g id="text_16">
     <!-- Count -->
     <g style="fill: #262626" transform="translate(13.609375 192.346125) rotate(-90) scale(0.12 -0.12)">
      <defs>
       <path id="DejaVuSans-43" d="M 4122 4306 
L 4122 3641 
Q 3803 3938 3442 4084 
Q 3081 4231 2675 4231 
Q 1875 4231 1450 3742 
Q 1025 3253 1025 2328 
Q 1025 1406 1450 917 
Q 1875 428 2675 428 
Q 3081 428 3442 575 
Q 3803 722 4122 1019 
L 4122 359 
Q 3791 134 3420 21 
Q 3050 -91 2638 -91 
Q 1578 -91 968 557 
Q 359 1206 359 2328 
Q 359 3453 968 4101 
Q 1578 4750 2638 4750 
Q 3056 4750 3426 4639 
Q 3797 4528 4122 4306 
z
" transform="scale(0.015625)"/>
       <path id="DejaVuSans-6f" d="M 1959 3097 
Q 1497 3097 1228 2736 
Q 959 2375 959 1747 
Q 959 1119 1226 758 
Q 1494 397 1959 397 
Q 2419 397 2687 759 
Q 2956 1122 2956 1747 
Q 2956 2369 2687 2733 
Q 2419 3097 1959 3097 
z
M 1959 3584 
Q 2709 3584 3137 3096 
Q 3566 2609 3566 1747 
Q 3566 888 3137 398 
Q 2709 -91 1959 -91 
Q 1206 -91 779 398 
Q 353 888 353 1747 
Q 353 2609 779 3096 
Q 1206 3584 1959 3584 
z
" transform="scale(0.015625)"/>
       <path id="DejaVuSans-75" d="M 544 1381 
L 544 3500 
L 1119 3500 
L 1119 1403 
Q 1119 906 1312 657 
Q 1506 409 1894 409 
Q 2359 409 2629 706 
Q 2900 1003 2900 1516 
L 2900 3500 
L 3475 3500 
L 3475 0 
L 2900 0 
L 2900 538 
Q 2691 219 2414 64 
Q 2138 -91 1772 -91 
Q 1169 -91 856 284 
Q 544 659 544 1381 
z
M 1991 3584 
L 1991 3584 
z
" transform="scale(0.015625)"/>
       <path id="DejaVuSans-6e" d="M 3513 2113 
L 3513 0 
L 2938 0 
L 2938 2094 
Q 2938 2591 2744 2837 
Q 2550 3084 2163 3084 
Q 1697 3084 1428 2787 
Q 1159 2491 1159 1978 
L 1159 0 
L 581 0 
L 581 3500 
L 1159 3500 
L 1159 2956 
Q 1366 3272 1645 3428 
Q 1925 3584 2291 3584 
Q 2894 3584 3203 3211 
Q 3513 2838 3513 2113 
z
" transform="scale(0.015625)"/>
       <path id="DejaVuSans-74" d="M 1172 4494 
L 1172 3500 
L 2356 3500 
L 2356 3053 
L 1172 3053 
L 1172 1153 
Q 1172 725 1289 603 
Q 1406 481 1766 481 
L 2356 481 
L 2356 0 
L 1766 0 
Q 1100 0 847 248 
Q 594 497 594 1153 
L 594 3053 
L 172 3053 
L 172 3500 
L 594 3500 
L 594 4494 
L 1172 4494 
z
" transform="scale(0.015625)"/>
      </defs>
      <use xlink:href="#DejaVuSans-43"/>
      <use xlink:href="#DejaVuSans-6f" x="69.824219"/>
      <use xlink:href="#DejaVuSans-75" x="131.005859"/>
      <use xlink:href="#DejaVuSans-6e" x="194.384766"/>
      <use xlink:href="#DejaVuSans-74" x="257.763672"/>
     </g>
    </g>
   </g>
   <g id="patch_3">
    <path d="M 73.832727 307.584 
L 90.065455 307.584 
L 90.065455 199.62039 
L 73.832727 199.62039 
z
" clip-path="url(#p36cfed10a0)" style="fill: #c44e52; fill-opacity: 0.5; stroke: #ffffff; stroke-linejoin: miter"/>
   </g>
   <g id="patch_4">
    <path d="M 90.065455 307.584 
L 106.298182 307.584 
L 106.298182 193.03278 
L 90.065455 193.03278 
z
" clip-path="url(#p36cfed10a0)" style="fill: #c44e52; fill-opacity: 0.5; stroke: #ffffff; stroke-linejoin: miter"/>
   </g>
   <g id="patch_5">
    <path d="M 106.298182 307.584 
L 122.530909 307.584 
L 122.530909 173.635928 
L 106.298182 173.635928 
z
" clip-path="url(#p36cfed10a0)" style="fill: #c44e52; fill-opacity: 0.5; stroke: #ffffff; stroke-linejoin: miter"/>
   </g>
   <g id="patch_6">
    <path d="M 122.530909 307.584 
L 138.763636 307.584 
L 138.763636 159.179783 
L 122.530909 159.179783 
z
" clip-path="url(#p36cfed10a0)" style="fill: #c44e52; fill-opacity: 0.5; stroke: #ffffff; stroke-linejoin: miter"/>
   </g>
   <g id="patch_7">
    <path d="M 138.763636 307.584 
L 154.996364 307.584 
L 154.996364 124.137357 
L 138.763636 124.137357 
z
" clip-path="url(#p36cfed10a0)" style="fill: #c44e52; fill-opacity: 0.5; stroke: #ffffff; stroke-linejoin: miter"/>
   </g>
   <g id="patch_8">
    <path d="M 154.996364 307.584 
L 171.229091 307.584 
L 171.229091 75.462238 
L 154.996364 75.462238 
z
" clip-path="url(#p36cfed10a0)" style="fill: #c44e52; fill-opacity: 0.5; stroke: #ffffff; stroke-linejoin: miter"/>
   </g>
   <g id="patch_9">
    <path d="M 171.229091 307.584 
L 187.461818 307.584 
L 187.461818 99.708303 
L 171.229091 99.708303 
z
" clip-path="url(#p36cfed10a0)" style="fill: #c44e52; fill-opacity: 0.5; stroke: #ffffff; stroke-linejoin: miter"/>
   </g>
   <g id="patch_10">
    <path d="M 187.461818 307.584 
L 203.694545 307.584 
L 203.694545 78.29857 
L 187.461818 78.29857 
z
" clip-path="url(#p36cfed10a0)" style="fill: #c44e52; fill-opacity: 0.5; stroke: #ffffff; stroke-linejoin: miter"/>
   </g>
   <g id="patch_11">
    <path d="M 203.694545 307.584 
L 219.927273 307.584 
L 219.927273 145.181112 
L 203.694545 145.181112 
z
" clip-path="url(#p36cfed10a0)" style="fill: #c44e52; fill-opacity: 0.5; stroke: #ffffff; stroke-linejoin: miter"/>
   </g>
   <g id="patch_12">
    <path d="M 219.927273 307.584 
L 236.16 307.584 
L 236.16 188.732534 
L 219.927273 188.732534 
z
" clip-path="url(#p36cfed10a0)" style="fill: #c44e52; fill-opacity: 0.5; stroke: #ffffff; stroke-linejoin: miter"/>
   </g>
   <g id="patch_13">
    <path d="M 236.16 307.584 
L 252.392727 307.584 
L 252.392727 215.631942 
L 236.16 215.631942 
z
" clip-path="url(#p36cfed10a0)" style="fill: #c44e52; fill-opacity: 0.5; stroke: #ffffff; stroke-linejoin: miter"/>
   </g>
   <g id="patch_14">
    <path d="M 252.392727 307.584 
L 268.625455 307.584 
L 268.625455 263.941083 
L 252.392727 263.941083 
z
" clip-path="url(#p36cfed10a0)" style="fill: #c44e52; fill-opacity: 0.5; stroke: #ffffff; stroke-linejoin: miter"/>
   </g>
   <g id="patch_15">
    <path d="M 268.625455 307.584 
L 284.858182 307.584 
L 284.858182 282.24 
L 268.625455 282.24 
z
" clip-path="url(#p36cfed10a0)" style="fill: #c44e52; fill-opacity: 0.5; stroke: #ffffff; stroke-linejoin: miter"/>
   </g>
   <g id="patch_16">
    <path d="M 284.858182 307.584 
L 301.090909 307.584 
L 301.090909 297.977069 
L 284.858182 297.977069 
z
" clip-path="url(#p36cfed10a0)" style="fill: #c44e52; fill-opacity: 0.5; stroke: #ffffff; stroke-linejoin: miter"/>
   </g>
   <g id="patch_17">
    <path d="M 301.090909 307.584 
L 317.323636 307.584 
L 317.323636 304.290195 
L 301.090909 304.290195 
z
" clip-path="url(#p36cfed10a0)" style="fill: #c44e52; fill-opacity: 0.5; stroke: #ffffff; stroke-linejoin: miter"/>
   </g>
   <g id="patch_18">
    <path d="M 317.323636 307.584 
L 333.556364 307.584 
L 333.556364 306.486065 
L 317.323636 306.486065 
z
" clip-path="url(#p36cfed10a0)" style="fill: #c44e52; fill-opacity: 0.5; stroke: #ffffff; stroke-linejoin: miter"/>
   </g>
   <g id="patch_19">
    <path d="M 333.556364 307.584 
L 349.789091 307.584 
L 349.789091 307.126527 
L 333.556364 307.126527 
z
" clip-path="url(#p36cfed10a0)" style="fill: #c44e52; fill-opacity: 0.5; stroke: #ffffff; stroke-linejoin: miter"/>
   </g>
   <g id="patch_20">
    <path d="M 349.789091 307.584 
L 366.021818 307.584 
L 366.021818 307.309516 
L 349.789091 307.309516 
z
" clip-path="url(#p36cfed10a0)" style="fill: #c44e52; fill-opacity: 0.5; stroke: #ffffff; stroke-linejoin: miter"/>
   </g>
   <g id="patch_21">
    <path d="M 366.021818 307.584 
L 382.254545 307.584 
L 382.254545 307.492505 
L 366.021818 307.492505 
z
" clip-path="url(#p36cfed10a0)" style="fill: #c44e52; fill-opacity: 0.5; stroke: #ffffff; stroke-linejoin: miter"/>
   </g>
   <g id="patch_22">
    <path d="M 382.254545 307.584 
L 398.487273 307.584 
L 398.487273 307.492505 
L 382.254545 307.492505 
z
" clip-path="url(#p36cfed10a0)" style="fill: #c44e52; fill-opacity: 0.5; stroke: #ffffff; stroke-linejoin: miter"/>
   </g>
   <g id="patch_23">
    <path d="M 73.832727 307.584 
L 90.065455 307.584 
L 90.065455 255.981054 
L 73.832727 255.981054 
z
" clip-path="url(#p36cfed10a0)" style="fill: #55a868; fill-opacity: 0.5; stroke: #ffffff; stroke-linejoin: miter"/>
   </g>
   <g id="patch_24">
    <path d="M 90.065455 307.584 
L 106.298182 307.584 
L 106.298182 249.11896 
L 90.065455 249.11896 
z
" clip-path="url(#p36cfed10a0)" style="fill: #55a868; fill-opacity: 0.5; stroke: #ffffff; stroke-linejoin: miter"/>
   </g>
   <g id="patch_25">
    <path d="M 106.298182 307.584 
L 122.530909 307.584 
L 122.530909 217.736318 
L 106.298182 217.736318 
z
" clip-path="url(#p36cfed10a0)" style="fill: #55a868; fill-opacity: 0.5; stroke: #ffffff; stroke-linejoin: miter"/>
   </g>
   <g id="patch_26">
    <path d="M 122.530909 307.584 
L 138.763636 307.584 
L 138.763636 207.122946 
L 122.530909 207.122946 
z
" clip-path="url(#p36cfed10a0)" style="fill: #55a868; fill-opacity: 0.5; stroke: #ffffff; stroke-linejoin: miter"/>
   </g>
   <g id="patch_27">
    <path d="M 138.763636 307.584 
L 154.996364 307.584 
L 154.996364 185.438729 
L 138.763636 185.438729 
z
" clip-path="url(#p36cfed10a0)" style="fill: #55a868; fill-opacity: 0.5; stroke: #ffffff; stroke-linejoin: miter"/>
   </g>
   <g id="patch_28">
    <path d="M 154.996364 307.584 
L 171.229091 307.584 
L 171.229091 123.954368 
L 154.996364 123.954368 
z
" clip-path="url(#p36cfed10a0)" style="fill: #55a868; fill-opacity: 0.5; stroke: #ffffff; stroke-linejoin: miter"/>
   </g>
   <g id="patch_29">
    <path d="M 171.229091 307.584 
L 187.461818 307.584 
L 187.461818 98.884852 
L 171.229091 98.884852 
z
" clip-path="url(#p36cfed10a0)" style="fill: #55a868; fill-opacity: 0.5; stroke: #ffffff; stroke-linejoin: miter"/>
   </g>
   <g id="patch_30">
    <path d="M 187.461818 307.584 
L 203.694545 307.584 
L 203.694545 54.144 
L 187.461818 54.144 
z
" clip-path="url(#p36cfed10a0)" style="fill: #55a868; fill-opacity: 0.5; stroke: #ffffff; stroke-linejoin: miter"/>
   </g>
   <g id="patch_31">
    <path d="M 203.694545 307.584 
L 219.927273 307.584 
L 219.927273 81.134903 
L 203.694545 81.134903 
z
" clip-path="url(#p36cfed10a0)" style="fill: #55a868; fill-opacity: 0.5; stroke: #ffffff; stroke-linejoin: miter"/>
   </g>
   <g id="patch_32">
    <path d="M 219.927273 307.584 
L 236.16 307.584 
L 236.16 120.935047 
L 219.927273 120.935047 
z
" clip-path="url(#p36cfed10a0)" style="fill: #55a868; fill-opacity: 0.5; stroke: #ffffff; stroke-linejoin: miter"/>
   </g>
   <g id="patch_33">
    <path d="M 236.16 307.584 
L 252.392727 307.584 
L 252.392727 164.669458 
L 236.16 164.669458 
z
" clip-path="url(#p36cfed10a0)" style="fill: #55a868; fill-opacity: 0.5; stroke: #ffffff; stroke-linejoin: miter"/>
   </g>
   <g id="patch_34">
    <path d="M 252.392727 307.584 
L 268.625455 307.584 
L 268.625455 230.271076 
L 252.392727 230.271076 
z
" clip-path="url(#p36cfed10a0)" style="fill: #55a868; fill-opacity: 0.5; stroke: #ffffff; stroke-linejoin: miter"/>
   </g>
   <g id="patch_35">
    <path d="M 268.625455 307.584 
L 284.858182 307.584 
L 284.858182 268.241329 
L 268.625455 268.241329 
z
" clip-path="url(#p36cfed10a0)" style="fill: #55a868; fill-opacity: 0.5; stroke: #ffffff; stroke-linejoin: miter"/>
   </g>
   <g id="patch_36">
    <path d="M 284.858182 307.584 
L 301.090909 307.584 
L 301.090909 290.108534 
L 284.858182 290.108534 
z
" clip-path="url(#p36cfed10a0)" style="fill: #55a868; fill-opacity: 0.5; stroke: #ffffff; stroke-linejoin: miter"/>
   </g>
   <g id="patch_37">
    <path d="M 301.090909 307.584 
L 317.323636 307.584 
L 317.323636 297.794079 
L 301.090909 297.794079 
z
" clip-path="url(#p36cfed10a0)" style="fill: #55a868; fill-opacity: 0.5; stroke: #ffffff; stroke-linejoin: miter"/>
   </g>
   <g id="patch_38">
    <path d="M 317.323636 307.584 
L 333.556364 307.584 
L 333.556364 303.924217 
L 317.323636 303.924217 
z
" clip-path="url(#p36cfed10a0)" style="fill: #55a868; fill-opacity: 0.5; stroke: #ffffff; stroke-linejoin: miter"/>
   </g>
   <g id="patch_39">
    <path d="M 333.556364 307.584 
L 349.789091 307.584 
L 349.789091 305.571119 
L 333.556364 305.571119 
z
" clip-path="url(#p36cfed10a0)" style="fill: #55a868; fill-opacity: 0.5; stroke: #ffffff; stroke-linejoin: miter"/>
   </g>
   <g id="patch_40">
    <path d="M 349.789091 307.584 
L 366.021818 307.584 
L 366.021818 306.303076 
L 349.789091 306.303076 
z
" clip-path="url(#p36cfed10a0)" style="fill: #55a868; fill-opacity: 0.5; stroke: #ffffff; stroke-linejoin: miter"/>
   </g>
   <g id="patch_41">
    <path d="M 366.021818 307.584 
L 382.254545 307.584 
L 382.254545 307.035032 
L 366.021818 307.035032 
z
" clip-path="url(#p36cfed10a0)" style="fill: #55a868; fill-opacity: 0.5; stroke: #ffffff; stroke-linejoin: miter"/>
   </g>
   <g id="patch_42">
    <path d="M 382.254545 307.584 
L 398.487273 307.584 
L 398.487273 307.126527 
L 382.254545 307.126527 
z
" clip-path="url(#p36cfed10a0)" style="fill: #55a868; fill-opacity: 0.5; stroke: #ffffff; stroke-linejoin: miter"/>
   </g>
   <g id="patch_43">
    <path d="M 73.832727 307.584 
L 90.065455 307.584 
L 90.065455 247.563552 
L 73.832727 247.563552 
z
" clip-path="url(#p36cfed10a0)" style="fill: #dd8452; fill-opacity: 0.5; stroke: #ffffff; stroke-linejoin: miter"/>
   </g>
   <g id="patch_44">
    <path d="M 90.065455 307.584 
L 106.298182 307.584 
L 106.298182 241.799394 
L 90.065455 241.799394 
z
" clip-path="url(#p36cfed10a0)" style="fill: #dd8452; fill-opacity: 0.5; stroke: #ffffff; stroke-linejoin: miter"/>
   </g>
   <g id="patch_45">
    <path d="M 106.298182 307.584 
L 122.530909 307.584 
L 122.530909 227.617733 
L 106.298182 227.617733 
z
" clip-path="url(#p36cfed10a0)" style="fill: #dd8452; fill-opacity: 0.5; stroke: #ffffff; stroke-linejoin: miter"/>
   </g>
   <g id="patch_46">
    <path d="M 122.530909 307.584 
L 138.763636 307.584 
L 138.763636 216.455394 
L 122.530909 216.455394 
z
" clip-path="url(#p36cfed10a0)" style="fill: #dd8452; fill-opacity: 0.5; stroke: #ffffff; stroke-linejoin: miter"/>
   </g>
   <g id="patch_47">
    <path d="M 138.763636 307.584 
L 154.996364 307.584 
L 154.996364 196.509574 
L 138.763636 196.509574 
z
" clip-path="url(#p36cfed10a0)" style="fill: #dd8452; fill-opacity: 0.5; stroke: #ffffff; stroke-linejoin: miter"/>
   </g>
   <g id="patch_48">
    <path d="M 154.996364 307.584 
L 171.229091 307.584 
L 171.229091 151.494238 
L 154.996364 151.494238 
z
" clip-path="url(#p36cfed10a0)" style="fill: #dd8452; fill-opacity: 0.5; stroke: #ffffff; stroke-linejoin: miter"/>
   </g>
   <g id="patch_49">
    <path d="M 171.229091 307.584 
L 187.461818 307.584 
L 187.461818 151.494238 
L 171.229091 151.494238 
z
" clip-path="url(#p36cfed10a0)" style="fill: #dd8452; fill-opacity: 0.5; stroke: #ffffff; stroke-linejoin: miter"/>
   </g>
   <g id="patch_50">
    <path d="M 187.461818 307.584 
L 203.694545 307.584 
L 203.694545 109.22374 
L 187.461818 109.22374 
z
" clip-path="url(#p36cfed10a0)" style="fill: #dd8452; fill-opacity: 0.5; stroke: #ffffff; stroke-linejoin: miter"/>
   </g>
   <g id="patch_51">
    <path d="M 203.694545 307.584 
L 219.927273 307.584 
L 219.927273 116.543307 
L 203.694545 116.543307 
z
" clip-path="url(#p36cfed10a0)" style="fill: #dd8452; fill-opacity: 0.5; stroke: #ffffff; stroke-linejoin: miter"/>
   </g>
   <g id="patch_52">
    <path d="M 219.927273 307.584 
L 236.16 307.584 
L 236.16 122.581949 
L 219.927273 122.581949 
z
" clip-path="url(#p36cfed10a0)" style="fill: #dd8452; fill-opacity: 0.5; stroke: #ffffff; stroke-linejoin: miter"/>
   </g>
   <g id="patch_53">
    <path d="M 236.16 307.584 
L 252.392727 307.584 
L 252.392727 133.927278 
L 236.16 133.927278 
z
" clip-path="url(#p36cfed10a0)" style="fill: #dd8452; fill-opacity: 0.5; stroke: #ffffff; stroke-linejoin: miter"/>
   </g>
   <g id="patch_54">
    <path d="M 252.392727 307.584 
L 268.625455 307.584 
L 268.625455 198.064982 
L 252.392727 198.064982 
z
" clip-path="url(#p36cfed10a0)" style="fill: #dd8452; fill-opacity: 0.5; stroke: #ffffff; stroke-linejoin: miter"/>
   </g>
   <g id="patch_55">
    <path d="M 268.625455 307.584 
L 284.858182 307.584 
L 284.858182 234.845805 
L 268.625455 234.845805 
z
" clip-path="url(#p36cfed10a0)" style="fill: #dd8452; fill-opacity: 0.5; stroke: #ffffff; stroke-linejoin: miter"/>
   </g>
   <g id="patch_56">
    <path d="M 284.858182 307.584 
L 301.090909 307.584 
L 301.090909 273.090542 
L 284.858182 273.090542 
z
" clip-path="url(#p36cfed10a0)" style="fill: #dd8452; fill-opacity: 0.5; stroke: #ffffff; stroke-linejoin: miter"/>
   </g>
   <g id="patch_57">
    <path d="M 301.090909 307.584 
L 317.323636 307.584 
L 317.323636 292.670383 
L 301.090909 292.670383 
z
" clip-path="url(#p36cfed10a0)" style="fill: #dd8452; fill-opacity: 0.5; stroke: #ffffff; stroke-linejoin: miter"/>
   </g>
   <g id="patch_58">
    <path d="M 317.323636 307.584 
L 333.556364 307.584 
L 333.556364 301.911336 
L 317.323636 301.911336 
z
" clip-path="url(#p36cfed10a0)" style="fill: #dd8452; fill-opacity: 0.5; stroke: #ffffff; stroke-linejoin: miter"/>
   </g>
   <g id="patch_59">
    <path d="M 333.556364 307.584 
L 349.789091 307.584 
L 349.789091 306.57756 
L 333.556364 306.57756 
z
" clip-path="url(#p36cfed10a0)" style="fill: #dd8452; fill-opacity: 0.5; stroke: #ffffff; stroke-linejoin: miter"/>
   </g>
   <g id="patch_60">
    <path d="M 349.789091 307.584 
L 366.021818 307.584 
L 366.021818 307.401011 
L 349.789091 307.401011 
z
" clip-path="url(#p36cfed10a0)" style="fill: #dd8452; fill-opacity: 0.5; stroke: #ffffff; stroke-linejoin: miter"/>
   </g>
   <g id="patch_61">
    <path d="M 366.021818 307.584 
L 382.254545 307.584 
L 382.254545 307.584 
L 366.021818 307.584 
z
" clip-path="url(#p36cfed10a0)" style="fill: #dd8452; fill-opacity: 0.5; stroke: #ffffff; stroke-linejoin: miter"/>
   </g>
   <g id="patch_62">
    <path d="M 382.254545 307.584 
L 398.487273 307.584 
L 398.487273 307.584 
L 382.254545 307.584 
z
" clip-path="url(#p36cfed10a0)" style="fill: #dd8452; fill-opacity: 0.5; stroke: #ffffff; stroke-linejoin: miter"/>
   </g>
   <g id="patch_63">
    <path d="M 73.832727 307.584 
L 90.065455 307.584 
L 90.065455 129.993011 
L 73.832727 129.993011 
z
" clip-path="url(#p36cfed10a0)" style="fill: #4c72b0; fill-opacity: 0.5; stroke: #ffffff; stroke-linejoin: miter"/>
   </g>
   <g id="patch_64">
    <path d="M 90.065455 307.584 
L 106.298182 307.584 
L 106.298182 185.713213 
L 90.065455 185.713213 
z
" clip-path="url(#p36cfed10a0)" style="fill: #4c72b0; fill-opacity: 0.5; stroke: #ffffff; stroke-linejoin: miter"/>
   </g>
   <g id="patch_65">
    <path d="M 106.298182 307.584 
L 122.530909 307.584 
L 122.530909 188.183567 
L 106.298182 188.183567 
z
" clip-path="url(#p36cfed10a0)" style="fill: #4c72b0; fill-opacity: 0.5; stroke: #ffffff; stroke-linejoin: miter"/>
   </g>
   <g id="patch_66">
    <path d="M 122.530909 307.584 
L 138.763636 307.584 
L 138.763636 188.915523 
L 122.530909 188.915523 
z
" clip-path="url(#p36cfed10a0)" style="fill: #4c72b0; fill-opacity: 0.5; stroke: #ffffff; stroke-linejoin: miter"/>
   </g>
   <g id="patch_67">
    <path d="M 138.763636 307.584 
L 154.996364 307.584 
L 154.996364 164.394975 
L 138.763636 164.394975 
z
" clip-path="url(#p36cfed10a0)" style="fill: #4c72b0; fill-opacity: 0.5; stroke: #ffffff; stroke-linejoin: miter"/>
   </g>
   <g id="patch_68">
    <path d="M 154.996364 307.584 
L 171.229091 307.584 
L 171.229091 118.647682 
L 154.996364 118.647682 
z
" clip-path="url(#p36cfed10a0)" style="fill: #4c72b0; fill-opacity: 0.5; stroke: #ffffff; stroke-linejoin: miter"/>
   </g>
   <g id="patch_69">
    <path d="M 171.229091 307.584 
L 187.461818 307.584 
L 187.461818 134.933718 
L 171.229091 134.933718 
z
" clip-path="url(#p36cfed10a0)" style="fill: #4c72b0; fill-opacity: 0.5; stroke: #ffffff; stroke-linejoin: miter"/>
   </g>
   <g id="patch_70">
    <path d="M 187.461818 307.584 
L 203.694545 307.584 
L 203.694545 104.923495 
L 187.461818 104.923495 
z
" clip-path="url(#p36cfed10a0)" style="fill: #4c72b0; fill-opacity: 0.5; stroke: #ffffff; stroke-linejoin: miter"/>
   </g>
   <g id="patch_71">
    <path d="M 203.694545 307.584 
L 219.927273 307.584 
L 219.927273 145.821574 
L 203.694545 145.821574 
z
" clip-path="url(#p36cfed10a0)" style="fill: #4c72b0; fill-opacity: 0.5; stroke: #ffffff; stroke-linejoin: miter"/>
   </g>
   <g id="patch_72">
    <path d="M 219.927273 307.584 
L 236.16 307.584 
L 236.16 196.692563 
L 219.927273 196.692563 
z
" clip-path="url(#p36cfed10a0)" style="fill: #4c72b0; fill-opacity: 0.5; stroke: #ffffff; stroke-linejoin: miter"/>
   </g>
   <g id="patch_73">
    <path d="M 236.16 307.584 
L 252.392727 307.584 
L 252.392727 238.505588 
L 236.16 238.505588 
z
" clip-path="url(#p36cfed10a0)" style="fill: #4c72b0; fill-opacity: 0.5; stroke: #ffffff; stroke-linejoin: miter"/>
   </g>
   <g id="patch_74">
    <path d="M 252.392727 307.584 
L 268.625455 307.584 
L 268.625455 276.201357 
L 252.392727 276.201357 
z
" clip-path="url(#p36cfed10a0)" style="fill: #4c72b0; fill-opacity: 0.5; stroke: #ffffff; stroke-linejoin: miter"/>
   </g>
   <g id="patch_75">
    <path d="M 268.625455 307.584 
L 284.858182 307.584 
L 284.858182 288.461632 
L 268.625455 288.461632 
z
" clip-path="url(#p36cfed10a0)" style="fill: #4c72b0; fill-opacity: 0.5; stroke: #ffffff; stroke-linejoin: miter"/>
   </g>
   <g id="patch_76">
    <path d="M 284.858182 307.584 
L 301.090909 307.584 
L 301.090909 299.989949 
L 284.858182 299.989949 
z
" clip-path="url(#p36cfed10a0)" style="fill: #4c72b0; fill-opacity: 0.5; stroke: #ffffff; stroke-linejoin: miter"/>
   </g>
   <g id="patch_77">
    <path d="M 301.090909 307.584 
L 317.323636 307.584 
L 317.323636 303.558238 
L 301.090909 303.558238 
z
" clip-path="url(#p36cfed10a0)" style="fill: #4c72b0; fill-opacity: 0.5; stroke: #ffffff; stroke-linejoin: miter"/>
   </g>
   <g id="patch_78">
    <path d="M 317.323636 307.584 
L 333.556364 307.584 
L 333.556364 305.205141 
L 317.323636 305.205141 
z
" clip-path="url(#p36cfed10a0)" style="fill: #4c72b0; fill-opacity: 0.5; stroke: #ffffff; stroke-linejoin: miter"/>
   </g>
   <g id="patch_79">
    <path d="M 333.556364 307.584 
L 349.789091 307.584 
L 349.789091 307.035032 
L 333.556364 307.035032 
z
" clip-path="url(#p36cfed10a0)" style="fill: #4c72b0; fill-opacity: 0.5; stroke: #ffffff; stroke-linejoin: miter"/>
   </g>
   <g id="patch_80">
    <path d="M 349.789091 307.584 
L 366.021818 307.584 
L 366.021818 307.309516 
L 349.789091 307.309516 
z
" clip-path="url(#p36cfed10a0)" style="fill: #4c72b0; fill-opacity: 0.5; stroke: #ffffff; stroke-linejoin: miter"/>
   </g>
   <g id="patch_81">
    <path d="M 366.021818 307.584 
L 382.254545 307.584 
L 382.254545 307.126527 
L 366.021818 307.126527 
z
" clip-path="url(#p36cfed10a0)" style="fill: #4c72b0; fill-opacity: 0.5; stroke: #ffffff; stroke-linejoin: miter"/>
   </g>
   <g id="patch_82">
    <path d="M 382.254545 307.584 
L 398.487273 307.584 
L 398.487273 307.584 
L 382.254545 307.584 
z
" clip-path="url(#p36cfed10a0)" style="fill: #4c72b0; fill-opacity: 0.5; stroke: #ffffff; stroke-linejoin: miter"/>
   </g>
   <g id="line2d_15">
    <path d="M 73.832727 248.635639 
L 75.464157 239.699958 
L 77.095587 231.733263 
L 78.727017 224.981161 
L 80.358447 219.482169 
L 81.989877 215.09336 
L 83.621307 211.555346 
L 85.252736 208.57348 
L 88.515596 203.332696 
L 91.778456 198.368035 
L 95.041316 193.867764 
L 96.672746 191.964545 
L 98.304175 190.354809 
L 99.935605 189.04595 
L 101.567035 188.013303 
L 103.198465 187.204964 
L 109.724185 184.604991 
L 111.355614 183.667058 
L 112.987044 182.457443 
L 114.618474 180.928471 
L 116.249904 179.0588 
L 117.881334 176.854171 
L 119.512764 174.342823 
L 121.144194 171.565948 
L 124.407053 165.375181 
L 127.669913 158.484082 
L 130.932773 150.938481 
L 135.827063 138.727429 
L 139.089922 130.602889 
L 142.352782 123.099732 
L 143.984212 119.702413 
L 145.615642 116.568812 
L 148.878502 111.034333 
L 152.141361 106.173623 
L 158.667081 97.038675 
L 160.298511 94.944365 
L 161.929941 93.073649 
L 163.56137 91.513475 
L 165.1928 90.322865 
L 166.82423 89.516952 
L 168.45566 89.06291 
L 170.08709 88.88837 
L 173.34995 88.99699 
L 176.61281 89.157644 
L 179.875669 89.057139 
L 183.138529 88.841042 
L 184.769959 88.829191 
L 186.401389 88.979336 
L 188.032819 89.368566 
L 189.664249 90.069912 
L 191.295678 91.147088 
L 192.927108 92.650104 
L 194.558538 94.612239 
L 196.189968 97.048815 
L 197.821398 99.9577 
L 199.452828 103.320759 
L 201.084258 107.105074 
L 202.715688 111.263214 
L 205.978547 120.438469 
L 215.767127 149.267196 
L 222.292846 166.975697 
L 235.344285 201.642217 
L 238.607145 209.722845 
L 243.501434 221.086633 
L 250.027154 236.055499 
L 259.815733 259.63447 
L 261.447163 263.160471 
L 263.078593 266.405645 
L 264.710023 269.332308 
L 266.341453 271.924478 
L 267.972883 274.190162 
L 269.604312 276.161219 
L 271.235742 277.890096 
L 274.498602 280.889941 
L 281.024322 286.609152 
L 289.181471 293.955665 
L 292.444331 296.595834 
L 295.70719 298.896011 
L 298.97005 300.764925 
L 302.23291 302.210113 
L 305.49577 303.338284 
L 308.75863 304.260241 
L 312.021489 305.016992 
L 315.284349 305.598231 
L 318.547209 306.002547 
L 323.441498 306.366319 
L 334.861508 306.865528 
L 351.175806 307.272111 
L 374.015825 307.450276 
L 398.487273 307.571586 
L 398.487273 307.571586 
" clip-path="url(#p36cfed10a0)" style="fill: none; stroke: #c44e52; stroke-width: 1.5; stroke-linecap: round"/>
   </g>
   <g id="line2d_16">
    <path d="M 73.832727 283.00497 
L 77.095587 273.807229 
L 78.727017 269.552255 
L 80.358447 265.700323 
L 81.989877 262.316929 
L 83.621307 259.419429 
L 85.252736 256.985847 
L 86.884166 254.963274 
L 88.515596 253.27415 
L 91.778456 250.497051 
L 95.041316 247.803511 
L 96.672746 246.265615 
L 98.304175 244.541123 
L 101.567035 240.579553 
L 108.092755 232.112684 
L 111.355614 228.335448 
L 119.512764 219.558 
L 121.144194 217.570028 
L 122.775624 215.406222 
L 126.038483 210.51148 
L 130.932773 202.27244 
L 134.195633 196.884059 
L 142.352782 184.020114 
L 145.615642 177.953875 
L 148.878502 170.98348 
L 152.141361 163.257122 
L 157.035651 150.78609 
L 163.56137 133.408615 
L 176.61281 98.229037 
L 179.875669 90.685653 
L 181.507099 87.336862 
L 183.138529 84.321327 
L 184.769959 81.664645 
L 186.401389 79.371302 
L 188.032819 77.418237 
L 189.664249 75.755717 
L 191.295678 74.31716 
L 194.558538 71.860823 
L 197.821398 69.782676 
L 199.452828 68.930914 
L 201.084258 68.272751 
L 202.715688 67.868709 
L 204.347117 67.776934 
L 205.978547 68.050835 
L 207.609977 68.739531 
L 209.241407 69.887479 
L 210.872837 71.530634 
L 212.504267 73.689192 
L 214.135697 76.359901 
L 215.767127 79.512159 
L 217.398556 83.090987 
L 220.661416 91.249905 
L 223.924276 100.343402 
L 227.187136 110.140104 
L 230.449995 120.657452 
L 233.712855 132.025232 
L 236.975715 144.374635 
L 240.238575 157.646904 
L 246.764294 184.744437 
L 250.027154 196.964389 
L 253.290014 207.709237 
L 256.552873 217.261187 
L 264.710023 239.626377 
L 269.604312 252.659677 
L 272.867172 260.682766 
L 276.130032 267.8902 
L 277.761462 271.12171 
L 279.392892 274.074157 
L 281.024322 276.733455 
L 282.655751 279.097729 
L 284.287181 281.17912 
L 285.918611 283.002686 
L 287.550041 284.602851 
L 290.812901 287.289498 
L 294.075761 289.534348 
L 298.97005 292.521821 
L 303.86434 295.283931 
L 307.1272 296.959146 
L 310.390059 298.453367 
L 315.284349 300.410277 
L 320.178639 302.113477 
L 323.441498 303.0439 
L 326.704358 303.758094 
L 331.598648 304.510133 
L 339.755797 305.47814 
L 344.650087 305.867741 
L 351.175806 306.095482 
L 359.332956 306.412815 
L 370.752965 306.939709 
L 378.910114 306.997148 
L 387.067264 307.105479 
L 398.487273 307.421939 
L 398.487273 307.421939 
" clip-path="url(#p36cfed10a0)" style="fill: none; stroke: #55a868; stroke-width: 1.5; stroke-linecap: round"/>
   </g>
   <g id="line2d_17">
    <path d="M 73.832727 277.554117 
L 77.095587 268.468762 
L 78.727017 264.291028 
L 80.358447 260.454915 
L 81.989877 256.986169 
L 83.621307 253.882893 
L 85.252736 251.127433 
L 86.884166 248.696553 
L 88.515596 246.567911 
L 90.147026 244.722588 
L 91.778456 243.144631 
L 93.409886 241.81889 
L 95.041316 240.728185 
L 96.672746 239.850431 
L 98.304175 239.156166 
L 101.567035 238.155076 
L 106.461325 236.814459 
L 108.092755 236.180436 
L 109.724185 235.371762 
L 111.355614 234.35654 
L 112.987044 233.116873 
L 114.618474 231.649505 
L 116.249904 229.965978 
L 119.512764 226.068531 
L 127.669913 215.527697 
L 130.932773 211.776884 
L 135.827063 206.237186 
L 139.089922 202.015713 
L 142.352782 197.103238 
L 145.615642 191.527693 
L 148.878502 185.461881 
L 155.404221 173.156466 
L 158.667081 167.766431 
L 160.298511 165.389063 
L 163.56137 161.210316 
L 168.45566 155.72528 
L 174.98138 148.442177 
L 179.875669 142.636332 
L 184.769959 136.296453 
L 189.664249 129.94465 
L 192.927108 126.265112 
L 196.189968 123.139362 
L 207.609977 113.030281 
L 210.872837 110.073362 
L 212.504267 108.764476 
L 214.135697 107.679623 
L 215.767127 106.911606 
L 217.398556 106.546187 
L 219.029986 106.648149 
L 220.661416 107.250106 
L 222.292846 108.34731 
L 223.924276 109.899984 
L 225.555706 111.842472 
L 227.187136 114.096658 
L 230.449995 119.248334 
L 233.712855 124.944204 
L 236.975715 131.09083 
L 240.238575 137.777077 
L 243.501434 145.064648 
L 246.764294 152.926215 
L 250.027154 161.357321 
L 253.290014 170.464077 
L 256.552873 180.354118 
L 261.447163 196.331391 
L 266.341453 212.248869 
L 269.604312 221.946316 
L 272.867172 230.553751 
L 276.130032 238.046271 
L 279.392892 244.652418 
L 294.075761 272.41362 
L 297.33862 277.972853 
L 298.97005 280.457843 
L 300.60148 282.726935 
L 302.23291 284.783347 
L 303.86434 286.642348 
L 307.1272 289.868966 
L 310.390059 292.629708 
L 313.652919 295.096427 
L 316.915779 297.325391 
L 320.178639 299.289828 
L 323.441498 300.962108 
L 326.704358 302.361098 
L 329.967218 303.5356 
L 333.230078 304.525039 
L 336.492937 305.344051 
L 339.755797 305.995128 
L 344.650087 306.67587 
L 349.544376 307.065363 
L 356.070096 307.309708 
L 370.752965 307.552797 
L 391.961553 307.583996 
L 398.487273 307.584 
L 398.487273 307.584 
" clip-path="url(#p36cfed10a0)" style="fill: none; stroke: #dd8452; stroke-width: 1.5; stroke-linecap: round"/>
   </g>
   <g id="line2d_18">
    <path d="M 73.832727 216.708546 
L 75.464157 201.745115 
L 77.095587 187.862321 
L 78.727017 175.767339 
L 80.358447 165.986854 
L 81.989877 158.815076 
L 83.621307 154.302618 
L 85.252736 152.283225 
L 86.884166 152.42731 
L 88.515596 154.307486 
L 90.147026 157.461942 
L 91.778456 161.445716 
L 98.304175 178.887363 
L 99.935605 182.562247 
L 101.567035 185.766377 
L 103.198465 188.485139 
L 104.829895 190.730052 
L 106.461325 192.525777 
L 108.092755 193.899829 
L 109.724185 194.876301 
L 111.355614 195.473995 
L 112.987044 195.708329 
L 114.618474 195.595516 
L 116.249904 195.157112 
L 117.881334 194.423187 
L 119.512764 193.432901 
L 121.144194 192.232118 
L 124.407053 189.384747 
L 127.669913 186.167912 
L 130.932773 182.631709 
L 134.195633 178.581535 
L 135.827063 176.278034 
L 137.458492 173.757716 
L 140.721352 168.075976 
L 143.984212 161.736217 
L 150.509931 148.642592 
L 153.772791 142.653672 
L 155.404221 139.964878 
L 157.035651 137.551219 
L 158.667081 135.46342 
L 160.298511 133.738966 
L 161.929941 132.391565 
L 163.56137 131.40326 
L 165.1928 130.722289 
L 166.82423 130.268242 
L 173.34995 128.858024 
L 174.98138 128.279541 
L 178.244239 126.788103 
L 188.032819 121.754785 
L 191.295678 120.400742 
L 192.927108 119.928093 
L 194.558538 119.679864 
L 196.189968 119.730096 
L 197.821398 120.148088 
L 199.452828 120.989288 
L 201.084258 122.288075 
L 202.715688 124.053635 
L 204.347117 126.269879 
L 205.978547 128.899901 
L 207.609977 131.894611 
L 209.241407 135.203859 
L 212.504267 142.621383 
L 215.767127 151.035355 
L 219.029986 160.508537 
L 222.292846 171.013501 
L 227.187136 188.040232 
L 233.712855 210.884524 
L 236.975715 221.6537 
L 240.238575 231.699759 
L 243.501434 240.832349 
L 246.764294 248.925023 
L 250.027154 255.994287 
L 253.290014 262.1891 
L 256.552873 267.666556 
L 259.815733 272.487786 
L 263.078593 276.662942 
L 266.341453 280.286 
L 271.235742 285.14929 
L 276.130032 289.694917 
L 279.392892 292.382777 
L 282.655751 294.609065 
L 285.918611 296.363017 
L 289.181471 297.769277 
L 294.075761 299.523098 
L 298.97005 300.988044 
L 303.86434 302.180544 
L 310.390059 303.536497 
L 315.284349 304.36977 
L 321.810069 305.168966 
L 336.492937 306.690799 
L 343.018657 307.017985 
L 354.438666 307.24321 
L 364.227245 307.28493 
L 378.910114 307.274114 
L 396.855843 307.572882 
L 398.487273 307.577511 
L 398.487273 307.577511 
" clip-path="url(#p36cfed10a0)" style="fill: none; stroke: #4c72b0; stroke-width: 1.5; stroke-linecap: round"/>
   </g>
   <g id="patch_83">
    <path d="M 57.6 307.584 
L 57.6 41.472 
" style="fill: none; stroke: #262626; stroke-width: 1.25; stroke-linejoin: miter; stroke-linecap: square"/>
   </g>
   <g id="patch_84">
    <path d="M 414.72 307.584 
L 414.72 41.472 
" style="fill: none; stroke: #262626; stroke-width: 1.25; stroke-linejoin: miter; stroke-linecap: square"/>
   </g>
   <g id="patch_85">
    <path d="M 57.6 307.584 
L 414.72 307.584 
" style="fill: none; stroke: #262626; stroke-width: 1.25; stroke-linejoin: miter; stroke-linecap: square"/>
   </g>
   <g id="patch_86">
    <path d="M 57.6 41.472 
L 414.72 41.472 
" style="fill: none; stroke: #262626; stroke-width: 1.25; stroke-linejoin: miter; stroke-linecap: square"/>
   </g>
   <g id="legend_1">
    <g id="patch_87">
     <path d="M 315.804219 131.9695 
L 407.02 131.9695 
Q 409.22 131.9695 409.22 129.7695 
L 409.22 49.172 
Q 409.22 46.972 407.02 46.972 
L 315.804219 46.972 
Q 313.604219 46.972 313.604219 49.172 
L 313.604219 129.7695 
Q 313.604219 131.9695 315.804219 131.9695 
z
" style="fill: #ffffff; opacity: 0.8; stroke: #cccccc; stroke-linejoin: miter"/>
    </g>
    <g id="text_17">
     <!-- Season -->
     <g style="fill: #262626" transform="translate(339.634922 60.490125) scale(0.12 -0.12)">
      <defs>
       <path id="DejaVuSans-53" d="M 3425 4513 
L 3425 3897 
Q 3066 4069 2747 4153 
Q 2428 4238 2131 4238 
Q 1616 4238 1336 4038 
Q 1056 3838 1056 3469 
Q 1056 3159 1242 3001 
Q 1428 2844 1947 2747 
L 2328 2669 
Q 3034 2534 3370 2195 
Q 3706 1856 3706 1288 
Q 3706 609 3251 259 
Q 2797 -91 1919 -91 
Q 1588 -91 1214 -16 
Q 841 59 441 206 
L 441 856 
Q 825 641 1194 531 
Q 1563 422 1919 422 
Q 2459 422 2753 634 
Q 3047 847 3047 1241 
Q 3047 1584 2836 1778 
Q 2625 1972 2144 2069 
L 1759 2144 
Q 1053 2284 737 2584 
Q 422 2884 422 3419 
Q 422 4038 858 4394 
Q 1294 4750 2059 4750 
Q 2388 4750 2728 4690 
Q 3069 4631 3425 4513 
z
" transform="scale(0.015625)"/>
       <path id="DejaVuSans-65" d="M 3597 1894 
L 3597 1613 
L 953 1613 
Q 991 1019 1311 708 
Q 1631 397 2203 397 
Q 2534 397 2845 478 
Q 3156 559 3463 722 
L 3463 178 
Q 3153 47 2828 -22 
Q 2503 -91 2169 -91 
Q 1331 -91 842 396 
Q 353 884 353 1716 
Q 353 2575 817 3079 
Q 1281 3584 2069 3584 
Q 2775 3584 3186 3129 
Q 3597 2675 3597 1894 
z
M 3022 2063 
Q 3016 2534 2758 2815 
Q 2500 3097 2075 3097 
Q 1594 3097 1305 2825 
Q 1016 2553 972 2059 
L 3022 2063 
z
" transform="scale(0.015625)"/>
       <path id="DejaVuSans-61" d="M 2194 1759 
Q 1497 1759 1228 1600 
Q 959 1441 959 1056 
Q 959 750 1161 570 
Q 1363 391 1709 391 
Q 2188 391 2477 730 
Q 2766 1069 2766 1631 
L 2766 1759 
L 2194 1759 
z
M 3341 1997 
L 3341 0 
L 2766 0 
L 2766 531 
Q 2569 213 2275 61 
Q 1981 -91 1556 -91 
Q 1019 -91 701 211 
Q 384 513 384 1019 
Q 384 1609 779 1909 
Q 1175 2209 1959 2209 
L 2766 2209 
L 2766 2266 
Q 2766 2663 2505 2880 
Q 2244 3097 1772 3097 
Q 1472 3097 1187 3025 
Q 903 2953 641 2809 
L 641 3341 
Q 956 3463 1253 3523 
Q 1550 3584 1831 3584 
Q 2591 3584 2966 3190 
Q 3341 2797 3341 1997 
z
" transform="scale(0.015625)"/>
       <path id="DejaVuSans-73" d="M 2834 3397 
L 2834 2853 
Q 2591 2978 2328 3040 
Q 2066 3103 1784 3103 
Q 1356 3103 1142 2972 
Q 928 2841 928 2578 
Q 928 2378 1081 2264 
Q 1234 2150 1697 2047 
L 1894 2003 
Q 2506 1872 2764 1633 
Q 3022 1394 3022 966 
Q 3022 478 2636 193 
Q 2250 -91 1575 -91 
Q 1294 -91 989 -36 
Q 684 19 347 128 
L 347 722 
Q 666 556 975 473 
Q 1284 391 1588 391 
Q 1994 391 2212 530 
Q 2431 669 2431 922 
Q 2431 1156 2273 1281 
Q 2116 1406 1581 1522 
L 1381 1569 
Q 847 1681 609 1914 
Q 372 2147 372 2553 
Q 372 3047 722 3315 
Q 1072 3584 1716 3584 
Q 2034 3584 2315 3537 
Q 2597 3491 2834 3397 
z
" transform="scale(0.015625)"/>
      </defs>
      <use xlink:href="#DejaVuSans-53"/>
      <use xlink:href="#DejaVuSans-65" x="63.476562"/>
      <use xlink:href="#DejaVuSans-61" x="125"/>
      <use xlink:href="#DejaVuSans-73" x="186.279297"/>
      <use xlink:href="#DejaVuSans-6f" x="238.378906"/>
      <use xlink:href="#DejaVuSans-6e" x="299.560547"/>
     </g>
    </g>
    <g id="patch_88">
     <path d="M 318.004219 76.844031 
L 340.004219 76.844031 
L 340.004219 69.144031 
L 318.004219 69.144031 
z
" style="fill: #4c72b0; fill-opacity: 0.5; stroke: #ffffff; stroke-linejoin: miter"/>
    </g>
    <g id="text_18">
     <!-- Invierno -->
     <g style="fill: #262626" transform="translate(348.804219 76.844031) scale(0.11 -0.11)">
      <defs>
       <path id="DejaVuSans-49" d="M 628 4666 
L 1259 4666 
L 1259 0 
L 628 0 
L 628 4666 
z
" transform="scale(0.015625)"/>
       <path id="DejaVuSans-76" d="M 191 3500 
L 800 3500 
L 1894 563 
L 2988 3500 
L 3597 3500 
L 2284 0 
L 1503 0 
L 191 3500 
z
" transform="scale(0.015625)"/>
       <path id="DejaVuSans-69" d="M 603 3500 
L 1178 3500 
L 1178 0 
L 603 0 
L 603 3500 
z
M 603 4863 
L 1178 4863 
L 1178 4134 
L 603 4134 
L 603 4863 
z
" transform="scale(0.015625)"/>
       <path id="DejaVuSans-72" d="M 2631 2963 
Q 2534 3019 2420 3045 
Q 2306 3072 2169 3072 
Q 1681 3072 1420 2755 
Q 1159 2438 1159 1844 
L 1159 0 
L 581 0 
L 581 3500 
L 1159 3500 
L 1159 2956 
Q 1341 3275 1631 3429 
Q 1922 3584 2338 3584 
Q 2397 3584 2469 3576 
Q 2541 3569 2628 3553 
L 2631 2963 
z
" transform="scale(0.015625)"/>
      </defs>
      <use xlink:href="#DejaVuSans-49"/>
      <use xlink:href="#DejaVuSans-6e" x="29.492188"/>
      <use xlink:href="#DejaVuSans-76" x="92.871094"/>
      <use xlink:href="#DejaVuSans-69" x="152.050781"/>
      <use xlink:href="#DejaVuSans-65" x="179.833984"/>
      <use xlink:href="#DejaVuSans-72" x="241.357422"/>
      <use xlink:href="#DejaVuSans-6e" x="280.720703"/>
      <use xlink:href="#DejaVuSans-6f" x="344.099609"/>
     </g>
    </g>
    <g id="patch_89">
     <path d="M 318.004219 92.989969 
L 340.004219 92.989969 
L 340.004219 85.289969 
L 318.004219 85.289969 
z
" style="fill: #dd8452; fill-opacity: 0.5; stroke: #ffffff; stroke-linejoin: miter"/>
    </g>
    <g id="text_19">
     <!-- Primavera -->
     <g style="fill: #262626" transform="translate(348.804219 92.989969) scale(0.11 -0.11)">
      <defs>
       <path id="DejaVuSans-50" d="M 1259 4147 
L 1259 2394 
L 2053 2394 
Q 2494 2394 2734 2622 
Q 2975 2850 2975 3272 
Q 2975 3691 2734 3919 
Q 2494 4147 2053 4147 
L 1259 4147 
z
M 628 4666 
L 2053 4666 
Q 2838 4666 3239 4311 
Q 3641 3956 3641 3272 
Q 3641 2581 3239 2228 
Q 2838 1875 2053 1875 
L 1259 1875 
L 1259 0 
L 628 0 
L 628 4666 
z
" transform="scale(0.015625)"/>
       <path id="DejaVuSans-6d" d="M 3328 2828 
Q 3544 3216 3844 3400 
Q 4144 3584 4550 3584 
Q 5097 3584 5394 3201 
Q 5691 2819 5691 2113 
L 5691 0 
L 5113 0 
L 5113 2094 
Q 5113 2597 4934 2840 
Q 4756 3084 4391 3084 
Q 3944 3084 3684 2787 
Q 3425 2491 3425 1978 
L 3425 0 
L 2847 0 
L 2847 2094 
Q 2847 2600 2669 2842 
Q 2491 3084 2119 3084 
Q 1678 3084 1418 2786 
Q 1159 2488 1159 1978 
L 1159 0 
L 581 0 
L 581 3500 
L 1159 3500 
L 1159 2956 
Q 1356 3278 1631 3431 
Q 1906 3584 2284 3584 
Q 2666 3584 2933 3390 
Q 3200 3197 3328 2828 
z
" transform="scale(0.015625)"/>
      </defs>
      <use xlink:href="#DejaVuSans-50"/>
      <use xlink:href="#DejaVuSans-72" x="58.552734"/>
      <use xlink:href="#DejaVuSans-69" x="99.666016"/>
      <use xlink:href="#DejaVuSans-6d" x="127.449219"/>
      <use xlink:href="#DejaVuSans-61" x="224.861328"/>
      <use xlink:href="#DejaVuSans-76" x="286.140625"/>
      <use xlink:href="#DejaVuSans-65" x="345.320312"/>
      <use xlink:href="#DejaVuSans-72" x="406.84375"/>
      <use xlink:href="#DejaVuSans-61" x="447.957031"/>
     </g>
    </g>
    <g id="patch_90">
     <path d="M 318.004219 109.135906 
L 340.004219 109.135906 
L 340.004219 101.435906 
L 318.004219 101.435906 
z
" style="fill: #55a868; fill-opacity: 0.5; stroke: #ffffff; stroke-linejoin: miter"/>
    </g>
    <g id="text_20">
     <!-- Verano -->
     <g style="fill: #262626" transform="translate(348.804219 109.135906) scale(0.11 -0.11)">
      <defs>
       <path id="DejaVuSans-56" d="M 1831 0 
L 50 4666 
L 709 4666 
L 2188 738 
L 3669 4666 
L 4325 4666 
L 2547 0 
L 1831 0 
z
" transform="scale(0.015625)"/>
      </defs>
      <use xlink:href="#DejaVuSans-56"/>
      <use xlink:href="#DejaVuSans-65" x="60.658203"/>
      <use xlink:href="#DejaVuSans-72" x="122.181641"/>
      <use xlink:href="#DejaVuSans-61" x="163.294922"/>
      <use xlink:href="#DejaVuSans-6e" x="224.574219"/>
      <use xlink:href="#DejaVuSans-6f" x="287.953125"/>
     </g>
    </g>
    <g id="patch_91">
     <path d="M 318.004219 125.281844 
L 340.004219 125.281844 
L 340.004219 117.581844 
L 318.004219 117.581844 
z
" style="fill: #c44e52; fill-opacity: 0.5; stroke: #ffffff; stroke-linejoin: miter"/>
    </g>
    <g id="text_21">
     <!-- Otoo -->
     <g style="fill: #262626" transform="translate(348.804219 125.281844) scale(0.11 -0.11)">
      <defs>
       <path id="DejaVuSans-f1" d="M 3513 2113 
L 3513 0 
L 2938 0 
L 2938 2094 
Q 2938 2591 2744 2837 
Q 2550 3084 2163 3084 
Q 1697 3084 1428 2787 
Q 1159 2491 1159 1978 
L 1159 0 
L 581 0 
L 581 3500 
L 1159 3500 
L 1159 2956 
Q 1366 3272 1645 3428 
Q 1925 3584 2291 3584 
Q 2894 3584 3203 3211 
Q 3513 2838 3513 2113 
z
M 2060 4281 
L 1881 4453 
Q 1813 4516 1761 4545 
Q 1710 4575 1669 4575 
Q 1550 4575 1494 4461 
Q 1438 4347 1431 4091 
L 1041 4091 
Q 1047 4513 1206 4742 
Q 1366 4972 1650 4972 
Q 1769 4972 1869 4928 
Q 1969 4884 2085 4781 
L 2263 4609 
Q 2331 4547 2383 4517 
Q 2435 4488 2475 4488 
Q 2594 4488 2650 4602 
Q 2706 4716 2713 4972 
L 3103 4972 
Q 3097 4550 2937 4320 
Q 2778 4091 2494 4091 
Q 2375 4091 2275 4134 
Q 2175 4178 2060 4281 
z
" transform="scale(0.015625)"/>
      </defs>
      <use xlink:href="#DejaVuSans-4f"/>
      <use xlink:href="#DejaVuSans-74" x="78.710938"/>
      <use xlink:href="#DejaVuSans-6f" x="117.919922"/>
      <use xlink:href="#DejaVuSans-f1" x="179.101562"/>
      <use xlink:href="#DejaVuSans-6f" x="242.480469"/>
     </g>
    </g>
   </g>
  </g>
  <g id="text_22">
   <!-- Ozono en diferentes estaciones -->
   <g style="fill: #262626" transform="translate(104.25125 19.0695) scale(0.16 -0.16)">
    <defs>
     <path id="DejaVuSans-7a" d="M 353 3500 
L 3084 3500 
L 3084 2975 
L 922 459 
L 3084 459 
L 3084 0 
L 275 0 
L 275 525 
L 2438 3041 
L 353 3041 
L 353 3500 
z
" transform="scale(0.015625)"/>
     <path id="DejaVuSans-20" transform="scale(0.015625)"/>
     <path id="DejaVuSans-64" d="M 2906 2969 
L 2906 4863 
L 3481 4863 
L 3481 0 
L 2906 0 
L 2906 525 
Q 2725 213 2448 61 
Q 2172 -91 1784 -91 
Q 1150 -91 751 415 
Q 353 922 353 1747 
Q 353 2572 751 3078 
Q 1150 3584 1784 3584 
Q 2172 3584 2448 3432 
Q 2725 3281 2906 2969 
z
M 947 1747 
Q 947 1113 1208 752 
Q 1469 391 1925 391 
Q 2381 391 2643 752 
Q 2906 1113 2906 1747 
Q 2906 2381 2643 2742 
Q 2381 3103 1925 3103 
Q 1469 3103 1208 2742 
Q 947 2381 947 1747 
z
" transform="scale(0.015625)"/>
     <path id="DejaVuSans-66" d="M 2375 4863 
L 2375 4384 
L 1825 4384 
Q 1516 4384 1395 4259 
Q 1275 4134 1275 3809 
L 1275 3500 
L 2222 3500 
L 2222 3053 
L 1275 3053 
L 1275 0 
L 697 0 
L 697 3053 
L 147 3053 
L 147 3500 
L 697 3500 
L 697 3744 
Q 697 4328 969 4595 
Q 1241 4863 1831 4863 
L 2375 4863 
z
" transform="scale(0.015625)"/>
     <path id="DejaVuSans-63" d="M 3122 3366 
L 3122 2828 
Q 2878 2963 2633 3030 
Q 2388 3097 2138 3097 
Q 1578 3097 1268 2742 
Q 959 2388 959 1747 
Q 959 1106 1268 751 
Q 1578 397 2138 397 
Q 2388 397 2633 464 
Q 2878 531 3122 666 
L 3122 134 
Q 2881 22 2623 -34 
Q 2366 -91 2075 -91 
Q 1284 -91 818 406 
Q 353 903 353 1747 
Q 353 2603 823 3093 
Q 1294 3584 2113 3584 
Q 2378 3584 2631 3529 
Q 2884 3475 3122 3366 
z
" transform="scale(0.015625)"/>
    </defs>
    <use xlink:href="#DejaVuSans-4f"/>
    <use xlink:href="#DejaVuSans-7a" x="78.710938"/>
    <use xlink:href="#DejaVuSans-6f" x="131.201172"/>
    <use xlink:href="#DejaVuSans-6e" x="192.382812"/>
    <use xlink:href="#DejaVuSans-6f" x="255.761719"/>
    <use xlink:href="#DejaVuSans-20" x="316.943359"/>
    <use xlink:href="#DejaVuSans-65" x="348.730469"/>
    <use xlink:href="#DejaVuSans-6e" x="410.253906"/>
    <use xlink:href="#DejaVuSans-20" x="473.632812"/>
    <use xlink:href="#DejaVuSans-64" x="505.419922"/>
    <use xlink:href="#DejaVuSans-69" x="568.896484"/>
    <use xlink:href="#DejaVuSans-66" x="596.679688"/>
    <use xlink:href="#DejaVuSans-65" x="631.884766"/>
    <use xlink:href="#DejaVuSans-72" x="693.408203"/>
    <use xlink:href="#DejaVuSans-65" x="732.271484"/>
    <use xlink:href="#DejaVuSans-6e" x="793.794922"/>
    <use xlink:href="#DejaVuSans-74" x="857.173828"/>
    <use xlink:href="#DejaVuSans-65" x="896.382812"/>
    <use xlink:href="#DejaVuSans-73" x="957.90625"/>
    <use xlink:href="#DejaVuSans-20" x="1010.005859"/>
    <use xlink:href="#DejaVuSans-65" x="1041.792969"/>
    <use xlink:href="#DejaVuSans-73" x="1103.316406"/>
    <use xlink:href="#DejaVuSans-74" x="1155.416016"/>
    <use xlink:href="#DejaVuSans-61" x="1194.625"/>
    <use xlink:href="#DejaVuSans-63" x="1255.904297"/>
    <use xlink:href="#DejaVuSans-69" x="1310.884766"/>
    <use xlink:href="#DejaVuSans-6f" x="1338.667969"/>
    <use xlink:href="#DejaVuSans-6e" x="1399.849609"/>
    <use xlink:href="#DejaVuSans-65" x="1463.228516"/>
    <use xlink:href="#DejaVuSans-73" x="1524.751953"/>
   </g>
  </g>
 </g>
 <defs>
  <clipPath id="p36cfed10a0">
   <rect x="57.6" y="41.472" width="357.12" height="266.112"/>
  </clipPath>
 </defs>
</svg>
