<?xml version="1.0" encoding="utf-8" standalone="no"?>
<!DOCTYPE svg PUBLIC "-//W3C//DTD SVG 1.1//EN"
  "http://www.w3.org/Graphics/SVG/1.1/DTD/svg11.dtd">
<svg xmlns:xlink="http://www.w3.org/1999/xlink" width="864pt" height="720pt" viewBox="0 0 864 720" xmlns="http://www.w3.org/2000/svg" version="1.1">
 <metadata>
  <rdf:RDF xmlns:dc="http://purl.org/dc/elements/1.1/" xmlns:cc="http://creativecommons.org/ns#" xmlns:rdf="http://www.w3.org/1999/02/22-rdf-syntax-ns#">
   <cc:Work>
    <dc:type rdf:resource="http://purl.org/dc/dcmitype/StillImage"/>
    <dc:date>2023-05-02T19:50:03.351539</dc:date>
    <dc:format>image/svg+xml</dc:format>
    <dc:creator>
     <cc:Agent>
      <dc:title>Matplotlib v3.7.1, https://matplotlib.org/</dc:title>
     </cc:Agent>
    </dc:creator>
   </cc:Work>
  </rdf:RDF>
 </metadata>
 <defs>
  <style type="text/css">*{stroke-linejoin: round; stroke-linecap: butt}</style>
 </defs>
 <g id="figure_1">
  <g id="patch_1">
   <path d="M 0 720 
L 864 720 
L 864 0 
L 0 0 
z
" style="fill: #ffffff"/>
  </g>
  <g id="axes_1">
   <g id="patch_2">
    <path d="M 53.37 216.42 
L 851.04 216.42 
L 851.04 39.96 
L 53.37 39.96 
z
" style="fill: #ffffff"/>
   </g>
   <g id="matplotlib.axis_1">
    <g id="xtick_1">
     <g id="line2d_1">
      <defs>
       <path id="m29bb552ca6" d="M 0 0 
L 0 6 
" style="stroke: #262626; stroke-width: 1.25"/>
      </defs>
      <g>
       <use xlink:href="#m29bb552ca6" x="61.777589" y="216.42" style="fill: #262626; stroke: #262626; stroke-width: 1.25"/>
      </g>
     </g>
     <g id="text_1">
      <!-- 00:00 -->
      <g style="fill: #262626" transform="translate(45.927276 234.278281) scale(0.11 -0.11)">
       <defs>
        <path id="DejaVuSans-30" d="M 2034 4250 
Q 1547 4250 1301 3770 
Q 1056 3291 1056 2328 
Q 1056 1369 1301 889 
Q 1547 409 2034 409 
Q 2525 409 2770 889 
Q 3016 1369 3016 2328 
Q 3016 3291 2770 3770 
Q 2525 4250 2034 4250 
z
M 2034 4750 
Q 2819 4750 3233 4129 
Q 3647 3509 3647 2328 
Q 3647 1150 3233 529 
Q 2819 -91 2034 -91 
Q 1250 -91 836 529 
Q 422 1150 422 2328 
Q 422 3509 836 4129 
Q 1250 4750 2034 4750 
z
" transform="scale(0.015625)"/>
        <path id="DejaVuSans-3a" d="M 750 794 
L 1409 794 
L 1409 0 
L 750 0 
L 750 794 
z
M 750 3309 
L 1409 3309 
L 1409 2516 
L 750 2516 
L 750 3309 
z
" transform="scale(0.015625)"/>
       </defs>
       <use xlink:href="#DejaVuSans-30"/>
       <use xlink:href="#DejaVuSans-30" x="63.623047"/>
       <use xlink:href="#DejaVuSans-3a" x="127.246094"/>
       <use xlink:href="#DejaVuSans-30" x="160.9375"/>
       <use xlink:href="#DejaVuSans-30" x="224.560547"/>
      </g>
     </g>
    </g>
    <g id="xtick_2">
     <g id="line2d_2">
      <g>
       <use xlink:href="#m29bb552ca6" x="124.834506" y="216.42" style="fill: #262626; stroke: #262626; stroke-width: 1.25"/>
      </g>
     </g>
     <g id="text_2">
      <!-- 02:00 -->
      <g style="fill: #262626" transform="translate(108.984193 234.278281) scale(0.11 -0.11)">
       <defs>
        <path id="DejaVuSans-32" d="M 1228 531 
L 3431 531 
L 3431 0 
L 469 0 
L 469 531 
Q 828 903 1448 1529 
Q 2069 2156 2228 2338 
Q 2531 2678 2651 2914 
Q 2772 3150 2772 3378 
Q 2772 3750 2511 3984 
Q 2250 4219 1831 4219 
Q 1534 4219 1204 4116 
Q 875 4013 500 3803 
L 500 4441 
Q 881 4594 1212 4672 
Q 1544 4750 1819 4750 
Q 2544 4750 2975 4387 
Q 3406 4025 3406 3419 
Q 3406 3131 3298 2873 
Q 3191 2616 2906 2266 
Q 2828 2175 2409 1742 
Q 1991 1309 1228 531 
z
" transform="scale(0.015625)"/>
       </defs>
       <use xlink:href="#DejaVuSans-30"/>
       <use xlink:href="#DejaVuSans-32" x="63.623047"/>
       <use xlink:href="#DejaVuSans-3a" x="127.246094"/>
       <use xlink:href="#DejaVuSans-30" x="160.9375"/>
       <use xlink:href="#DejaVuSans-30" x="224.560547"/>
      </g>
     </g>
    </g>
    <g id="xtick_3">
     <g id="line2d_3">
      <g>
       <use xlink:href="#m29bb552ca6" x="187.891423" y="216.42" style="fill: #262626; stroke: #262626; stroke-width: 1.25"/>
      </g>
     </g>
     <g id="text_3">
      <!-- 04:00 -->
      <g style="fill: #262626" transform="translate(172.04111 234.278281) scale(0.11 -0.11)">
       <defs>
        <path id="DejaVuSans-34" d="M 2419 4116 
L 825 1625 
L 2419 1625 
L 2419 4116 
z
M 2253 4666 
L 3047 4666 
L 3047 1625 
L 3713 1625 
L 3713 1100 
L 3047 1100 
L 3047 0 
L 2419 0 
L 2419 1100 
L 313 1100 
L 313 1709 
L 2253 4666 
z
" transform="scale(0.015625)"/>
       </defs>
       <use xlink:href="#DejaVuSans-30"/>
       <use xlink:href="#DejaVuSans-34" x="63.623047"/>
       <use xlink:href="#DejaVuSans-3a" x="127.246094"/>
       <use xlink:href="#DejaVuSans-30" x="160.9375"/>
       <use xlink:href="#DejaVuSans-30" x="224.560547"/>
      </g>
     </g>
    </g>
    <g id="xtick_4">
     <g id="line2d_4">
      <g>
       <use xlink:href="#m29bb552ca6" x="250.94834" y="216.42" style="fill: #262626; stroke: #262626; stroke-width: 1.25"/>
      </g>
     </g>
     <g id="text_4">
      <!-- 06:00 -->
      <g style="fill: #262626" transform="translate(235.098027 234.278281) scale(0.11 -0.11)">
       <defs>
        <path id="DejaVuSans-36" d="M 2113 2584 
Q 1688 2584 1439 2293 
Q 1191 2003 1191 1497 
Q 1191 994 1439 701 
Q 1688 409 2113 409 
Q 2538 409 2786 701 
Q 3034 994 3034 1497 
Q 3034 2003 2786 2293 
Q 2538 2584 2113 2584 
z
M 3366 4563 
L 3366 3988 
Q 3128 4100 2886 4159 
Q 2644 4219 2406 4219 
Q 1781 4219 1451 3797 
Q 1122 3375 1075 2522 
Q 1259 2794 1537 2939 
Q 1816 3084 2150 3084 
Q 2853 3084 3261 2657 
Q 3669 2231 3669 1497 
Q 3669 778 3244 343 
Q 2819 -91 2113 -91 
Q 1303 -91 875 529 
Q 447 1150 447 2328 
Q 447 3434 972 4092 
Q 1497 4750 2381 4750 
Q 2619 4750 2861 4703 
Q 3103 4656 3366 4563 
z
" transform="scale(0.015625)"/>
       </defs>
       <use xlink:href="#DejaVuSans-30"/>
       <use xlink:href="#DejaVuSans-36" x="63.623047"/>
       <use xlink:href="#DejaVuSans-3a" x="127.246094"/>
       <use xlink:href="#DejaVuSans-30" x="160.9375"/>
       <use xlink:href="#DejaVuSans-30" x="224.560547"/>
      </g>
     </g>
    </g>
    <g id="xtick_5">
     <g id="line2d_5">
      <g>
       <use xlink:href="#m29bb552ca6" x="314.005257" y="216.42" style="fill: #262626; stroke: #262626; stroke-width: 1.25"/>
      </g>
     </g>
     <g id="text_5">
      <!-- 08:00 -->
      <g style="fill: #262626" transform="translate(298.154944 234.278281) scale(0.11 -0.11)">
       <defs>
        <path id="DejaVuSans-38" d="M 2034 2216 
Q 1584 2216 1326 1975 
Q 1069 1734 1069 1313 
Q 1069 891 1326 650 
Q 1584 409 2034 409 
Q 2484 409 2743 651 
Q 3003 894 3003 1313 
Q 3003 1734 2745 1975 
Q 2488 2216 2034 2216 
z
M 1403 2484 
Q 997 2584 770 2862 
Q 544 3141 544 3541 
Q 544 4100 942 4425 
Q 1341 4750 2034 4750 
Q 2731 4750 3128 4425 
Q 3525 4100 3525 3541 
Q 3525 3141 3298 2862 
Q 3072 2584 2669 2484 
Q 3125 2378 3379 2068 
Q 3634 1759 3634 1313 
Q 3634 634 3220 271 
Q 2806 -91 2034 -91 
Q 1263 -91 848 271 
Q 434 634 434 1313 
Q 434 1759 690 2068 
Q 947 2378 1403 2484 
z
M 1172 3481 
Q 1172 3119 1398 2916 
Q 1625 2713 2034 2713 
Q 2441 2713 2670 2916 
Q 2900 3119 2900 3481 
Q 2900 3844 2670 4047 
Q 2441 4250 2034 4250 
Q 1625 4250 1398 4047 
Q 1172 3844 1172 3481 
z
" transform="scale(0.015625)"/>
       </defs>
       <use xlink:href="#DejaVuSans-30"/>
       <use xlink:href="#DejaVuSans-38" x="63.623047"/>
       <use xlink:href="#DejaVuSans-3a" x="127.246094"/>
       <use xlink:href="#DejaVuSans-30" x="160.9375"/>
       <use xlink:href="#DejaVuSans-30" x="224.560547"/>
      </g>
     </g>
    </g>
    <g id="xtick_6">
     <g id="line2d_6">
      <g>
       <use xlink:href="#m29bb552ca6" x="377.062174" y="216.42" style="fill: #262626; stroke: #262626; stroke-width: 1.25"/>
      </g>
     </g>
     <g id="text_6">
      <!-- 10:00 -->
      <g style="fill: #262626" transform="translate(361.211861 234.278281) scale(0.11 -0.11)">
       <defs>
        <path id="DejaVuSans-31" d="M 794 531 
L 1825 531 
L 1825 4091 
L 703 3866 
L 703 4441 
L 1819 4666 
L 2450 4666 
L 2450 531 
L 3481 531 
L 3481 0 
L 794 0 
L 794 531 
z
" transform="scale(0.015625)"/>
       </defs>
       <use xlink:href="#DejaVuSans-31"/>
       <use xlink:href="#DejaVuSans-30" x="63.623047"/>
       <use xlink:href="#DejaVuSans-3a" x="127.246094"/>
       <use xlink:href="#DejaVuSans-30" x="160.9375"/>
       <use xlink:href="#DejaVuSans-30" x="224.560547"/>
      </g>
     </g>
    </g>
    <g id="xtick_7">
     <g id="line2d_7">
      <g>
       <use xlink:href="#m29bb552ca6" x="440.119091" y="216.42" style="fill: #262626; stroke: #262626; stroke-width: 1.25"/>
      </g>
     </g>
     <g id="text_7">
      <!-- 12:00 -->
      <g style="fill: #262626" transform="translate(424.268778 234.278281) scale(0.11 -0.11)">
       <use xlink:href="#DejaVuSans-31"/>
       <use xlink:href="#DejaVuSans-32" x="63.623047"/>
       <use xlink:href="#DejaVuSans-3a" x="127.246094"/>
       <use xlink:href="#DejaVuSans-30" x="160.9375"/>
       <use xlink:href="#DejaVuSans-30" x="224.560547"/>
      </g>
     </g>
    </g>
    <g id="xtick_8">
     <g id="line2d_8">
      <g>
       <use xlink:href="#m29bb552ca6" x="503.176008" y="216.42" style="fill: #262626; stroke: #262626; stroke-width: 1.25"/>
      </g>
     </g>
     <g id="text_8">
      <!-- 14:00 -->
      <g style="fill: #262626" transform="translate(487.325695 234.278281) scale(0.11 -0.11)">
       <use xlink:href="#DejaVuSans-31"/>
       <use xlink:href="#DejaVuSans-34" x="63.623047"/>
       <use xlink:href="#DejaVuSans-3a" x="127.246094"/>
       <use xlink:href="#DejaVuSans-30" x="160.9375"/>
       <use xlink:href="#DejaVuSans-30" x="224.560547"/>
      </g>
     </g>
    </g>
    <g id="xtick_9">
     <g id="line2d_9">
      <g>
       <use xlink:href="#m29bb552ca6" x="566.232925" y="216.42" style="fill: #262626; stroke: #262626; stroke-width: 1.25"/>
      </g>
     </g>
     <g id="text_9">
      <!-- 16:00 -->
      <g style="fill: #262626" transform="translate(550.382612 234.278281) scale(0.11 -0.11)">
       <use xlink:href="#DejaVuSans-31"/>
       <use xlink:href="#DejaVuSans-36" x="63.623047"/>
       <use xlink:href="#DejaVuSans-3a" x="127.246094"/>
       <use xlink:href="#DejaVuSans-30" x="160.9375"/>
       <use xlink:href="#DejaVuSans-30" x="224.560547"/>
      </g>
     </g>
    </g>
    <g id="xtick_10">
     <g id="line2d_10">
      <g>
       <use xlink:href="#m29bb552ca6" x="629.289842" y="216.42" style="fill: #262626; stroke: #262626; stroke-width: 1.25"/>
      </g>
     </g>
     <g id="text_10">
      <!-- 18:00 -->
      <g style="fill: #262626" transform="translate(613.439529 234.278281) scale(0.11 -0.11)">
       <use xlink:href="#DejaVuSans-31"/>
       <use xlink:href="#DejaVuSans-38" x="63.623047"/>
       <use xlink:href="#DejaVuSans-3a" x="127.246094"/>
       <use xlink:href="#DejaVuSans-30" x="160.9375"/>
       <use xlink:href="#DejaVuSans-30" x="224.560547"/>
      </g>
     </g>
    </g>
    <g id="xtick_11">
     <g id="line2d_11">
      <g>
       <use xlink:href="#m29bb552ca6" x="692.346759" y="216.42" style="fill: #262626; stroke: #262626; stroke-width: 1.25"/>
      </g>
     </g>
     <g id="text_11">
      <!-- 20:00 -->
      <g style="fill: #262626" transform="translate(676.496446 234.278281) scale(0.11 -0.11)">
       <use xlink:href="#DejaVuSans-32"/>
       <use xlink:href="#DejaVuSans-30" x="63.623047"/>
       <use xlink:href="#DejaVuSans-3a" x="127.246094"/>
       <use xlink:href="#DejaVuSans-30" x="160.9375"/>
       <use xlink:href="#DejaVuSans-30" x="224.560547"/>
      </g>
     </g>
    </g>
    <g id="xtick_12">
     <g id="line2d_12">
      <g>
       <use xlink:href="#m29bb552ca6" x="755.403676" y="216.42" style="fill: #262626; stroke: #262626; stroke-width: 1.25"/>
      </g>
     </g>
     <g id="text_12">
      <!-- 22:00 -->
      <g style="fill: #262626" transform="translate(739.553363 234.278281) scale(0.11 -0.11)">
       <use xlink:href="#DejaVuSans-32"/>
       <use xlink:href="#DejaVuSans-32" x="63.623047"/>
       <use xlink:href="#DejaVuSans-3a" x="127.246094"/>
       <use xlink:href="#DejaVuSans-30" x="160.9375"/>
       <use xlink:href="#DejaVuSans-30" x="224.560547"/>
      </g>
     </g>
    </g>
    <g id="xtick_13">
     <g id="line2d_13">
      <g>
       <use xlink:href="#m29bb552ca6" x="818.460593" y="216.42" style="fill: #262626; stroke: #262626; stroke-width: 1.25"/>
      </g>
     </g>
     <g id="text_13">
      <!-- 00:00 -->
      <g style="fill: #262626" transform="translate(802.61028 234.278281) scale(0.11 -0.11)">
       <use xlink:href="#DejaVuSans-30"/>
       <use xlink:href="#DejaVuSans-30" x="63.623047"/>
       <use xlink:href="#DejaVuSans-3a" x="127.246094"/>
       <use xlink:href="#DejaVuSans-30" x="160.9375"/>
       <use xlink:href="#DejaVuSans-30" x="224.560547"/>
      </g>
     </g>
    </g>
    <g id="text_14">
     <!-- Hora -->
     <g style="fill: #262626" transform="translate(437.878125 249.684062) scale(0.12 -0.12)">
      <defs>
       <path id="DejaVuSans-48" d="M 628 4666 
L 1259 4666 
L 1259 2753 
L 3553 2753 
L 3553 4666 
L 4184 4666 
L 4184 0 
L 3553 0 
L 3553 2222 
L 1259 2222 
L 1259 0 
L 628 0 
L 628 4666 
z
" transform="scale(0.015625)"/>
       <path id="DejaVuSans-6f" d="M 1959 3097 
Q 1497 3097 1228 2736 
Q 959 2375 959 1747 
Q 959 1119 1226 758 
Q 1494 397 1959 397 
Q 2419 397 2687 759 
Q 2956 1122 2956 1747 
Q 2956 2369 2687 2733 
Q 2419 3097 1959 3097 
z
M 1959 3584 
Q 2709 3584 3137 3096 
Q 3566 2609 3566 1747 
Q 3566 888 3137 398 
Q 2709 -91 1959 -91 
Q 1206 -91 779 398 
Q 353 888 353 1747 
Q 353 2609 779 3096 
Q 1206 3584 1959 3584 
z
" transform="scale(0.015625)"/>
       <path id="DejaVuSans-72" d="M 2631 2963 
Q 2534 3019 2420 3045 
Q 2306 3072 2169 3072 
Q 1681 3072 1420 2755 
Q 1159 2438 1159 1844 
L 1159 0 
L 581 0 
L 581 3500 
L 1159 3500 
L 1159 2956 
Q 1341 3275 1631 3429 
Q 1922 3584 2338 3584 
Q 2397 3584 2469 3576 
Q 2541 3569 2628 3553 
L 2631 2963 
z
" transform="scale(0.015625)"/>
       <path id="DejaVuSans-61" d="M 2194 1759 
Q 1497 1759 1228 1600 
Q 959 1441 959 1056 
Q 959 750 1161 570 
Q 1363 391 1709 391 
Q 2188 391 2477 730 
Q 2766 1069 2766 1631 
L 2766 1759 
L 2194 1759 
z
M 3341 1997 
L 3341 0 
L 2766 0 
L 2766 531 
Q 2569 213 2275 61 
Q 1981 -91 1556 -91 
Q 1019 -91 701 211 
Q 384 513 384 1019 
Q 384 1609 779 1909 
Q 1175 2209 1959 2209 
L 2766 2209 
L 2766 2266 
Q 2766 2663 2505 2880 
Q 2244 3097 1772 3097 
Q 1472 3097 1187 3025 
Q 903 2953 641 2809 
L 641 3341 
Q 956 3463 1253 3523 
Q 1550 3584 1831 3584 
Q 2591 3584 2966 3190 
Q 3341 2797 3341 1997 
z
" transform="scale(0.015625)"/>
      </defs>
      <use xlink:href="#DejaVuSans-48"/>
      <use xlink:href="#DejaVuSans-6f" x="75.195312"/>
      <use xlink:href="#DejaVuSans-72" x="136.376953"/>
      <use xlink:href="#DejaVuSans-61" x="177.490234"/>
     </g>
    </g>
   </g>
   <g id="matplotlib.axis_2">
    <g id="ytick_1">
     <g id="line2d_14">
      <defs>
       <path id="ma721c5539c" d="M 0 0 
L -6 0 
" style="stroke: #262626; stroke-width: 1.25"/>
      </defs>
      <g>
       <use xlink:href="#ma721c5539c" x="53.37" y="208.926216" style="fill: #262626; stroke: #262626; stroke-width: 1.25"/>
      </g>
     </g>
     <g id="text_15">
      <!-- 6 -->
      <g style="fill: #262626" transform="translate(36.87125 213.105357) scale(0.11 -0.11)">
       <use xlink:href="#DejaVuSans-36"/>
      </g>
     </g>
    </g>
    <g id="ytick_2">
     <g id="line2d_15">
      <g>
       <use xlink:href="#ma721c5539c" x="53.37" y="179.567325" style="fill: #262626; stroke: #262626; stroke-width: 1.25"/>
      </g>
     </g>
     <g id="text_16">
      <!-- 8 -->
      <g style="fill: #262626" transform="translate(36.87125 183.746466) scale(0.11 -0.11)">
       <use xlink:href="#DejaVuSans-38"/>
      </g>
     </g>
    </g>
    <g id="ytick_3">
     <g id="line2d_16">
      <g>
       <use xlink:href="#ma721c5539c" x="53.37" y="150.208434" style="fill: #262626; stroke: #262626; stroke-width: 1.25"/>
      </g>
     </g>
     <g id="text_17">
      <!-- 10 -->
      <g style="fill: #262626" transform="translate(29.8725 154.387575) scale(0.11 -0.11)">
       <use xlink:href="#DejaVuSans-31"/>
       <use xlink:href="#DejaVuSans-30" x="63.623047"/>
      </g>
     </g>
    </g>
    <g id="ytick_4">
     <g id="line2d_17">
      <g>
       <use xlink:href="#ma721c5539c" x="53.37" y="120.849543" style="fill: #262626; stroke: #262626; stroke-width: 1.25"/>
      </g>
     </g>
     <g id="text_18">
      <!-- 12 -->
      <g style="fill: #262626" transform="translate(29.8725 125.028683) scale(0.11 -0.11)">
       <use xlink:href="#DejaVuSans-31"/>
       <use xlink:href="#DejaVuSans-32" x="63.623047"/>
      </g>
     </g>
    </g>
    <g id="ytick_5">
     <g id="line2d_18">
      <g>
       <use xlink:href="#ma721c5539c" x="53.37" y="91.490651" style="fill: #262626; stroke: #262626; stroke-width: 1.25"/>
      </g>
     </g>
     <g id="text_19">
      <!-- 14 -->
      <g style="fill: #262626" transform="translate(29.8725 95.669792) scale(0.11 -0.11)">
       <use xlink:href="#DejaVuSans-31"/>
       <use xlink:href="#DejaVuSans-34" x="63.623047"/>
      </g>
     </g>
    </g>
    <g id="ytick_6">
     <g id="line2d_19">
      <g>
       <use xlink:href="#ma721c5539c" x="53.37" y="62.13176" style="fill: #262626; stroke: #262626; stroke-width: 1.25"/>
      </g>
     </g>
     <g id="text_20">
      <!-- 16 -->
      <g style="fill: #262626" transform="translate(29.8725 66.310901) scale(0.11 -0.11)">
       <use xlink:href="#DejaVuSans-31"/>
       <use xlink:href="#DejaVuSans-36" x="63.623047"/>
      </g>
     </g>
    </g>
    <g id="text_21">
     <!-- PM1 (ppm) -->
     <g style="fill: #262626" transform="translate(23.376875 160.853438) rotate(-90) scale(0.12 -0.12)">
      <defs>
       <path id="DejaVuSans-50" d="M 1259 4147 
L 1259 2394 
L 2053 2394 
Q 2494 2394 2734 2622 
Q 2975 2850 2975 3272 
Q 2975 3691 2734 3919 
Q 2494 4147 2053 4147 
L 1259 4147 
z
M 628 4666 
L 2053 4666 
Q 2838 4666 3239 4311 
Q 3641 3956 3641 3272 
Q 3641 2581 3239 2228 
Q 2838 1875 2053 1875 
L 1259 1875 
L 1259 0 
L 628 0 
L 628 4666 
z
" transform="scale(0.015625)"/>
       <path id="DejaVuSans-4d" d="M 628 4666 
L 1569 4666 
L 2759 1491 
L 3956 4666 
L 4897 4666 
L 4897 0 
L 4281 0 
L 4281 4097 
L 3078 897 
L 2444 897 
L 1241 4097 
L 1241 0 
L 628 0 
L 628 4666 
z
" transform="scale(0.015625)"/>
       <path id="DejaVuSans-20" transform="scale(0.015625)"/>
       <path id="DejaVuSans-28" d="M 1984 4856 
Q 1566 4138 1362 3434 
Q 1159 2731 1159 2009 
Q 1159 1288 1364 580 
Q 1569 -128 1984 -844 
L 1484 -844 
Q 1016 -109 783 600 
Q 550 1309 550 2009 
Q 550 2706 781 3412 
Q 1013 4119 1484 4856 
L 1984 4856 
z
" transform="scale(0.015625)"/>
       <path id="DejaVuSans-70" d="M 1159 525 
L 1159 -1331 
L 581 -1331 
L 581 3500 
L 1159 3500 
L 1159 2969 
Q 1341 3281 1617 3432 
Q 1894 3584 2278 3584 
Q 2916 3584 3314 3078 
Q 3713 2572 3713 1747 
Q 3713 922 3314 415 
Q 2916 -91 2278 -91 
Q 1894 -91 1617 61 
Q 1341 213 1159 525 
z
M 3116 1747 
Q 3116 2381 2855 2742 
Q 2594 3103 2138 3103 
Q 1681 3103 1420 2742 
Q 1159 2381 1159 1747 
Q 1159 1113 1420 752 
Q 1681 391 2138 391 
Q 2594 391 2855 752 
Q 3116 1113 3116 1747 
z
" transform="scale(0.015625)"/>
       <path id="DejaVuSans-6d" d="M 3328 2828 
Q 3544 3216 3844 3400 
Q 4144 3584 4550 3584 
Q 5097 3584 5394 3201 
Q 5691 2819 5691 2113 
L 5691 0 
L 5113 0 
L 5113 2094 
Q 5113 2597 4934 2840 
Q 4756 3084 4391 3084 
Q 3944 3084 3684 2787 
Q 3425 2491 3425 1978 
L 3425 0 
L 2847 0 
L 2847 2094 
Q 2847 2600 2669 2842 
Q 2491 3084 2119 3084 
Q 1678 3084 1418 2786 
Q 1159 2488 1159 1978 
L 1159 0 
L 581 0 
L 581 3500 
L 1159 3500 
L 1159 2956 
Q 1356 3278 1631 3431 
Q 1906 3584 2284 3584 
Q 2666 3584 2933 3390 
Q 3200 3197 3328 2828 
z
" transform="scale(0.015625)"/>
       <path id="DejaVuSans-29" d="M 513 4856 
L 1013 4856 
Q 1481 4119 1714 3412 
Q 1947 2706 1947 2009 
Q 1947 1309 1714 600 
Q 1481 -109 1013 -844 
L 513 -844 
Q 928 -128 1133 580 
Q 1338 1288 1338 2009 
Q 1338 2731 1133 3434 
Q 928 4138 513 4856 
z
" transform="scale(0.015625)"/>
      </defs>
      <use xlink:href="#DejaVuSans-50"/>
      <use xlink:href="#DejaVuSans-4d" x="60.302734"/>
      <use xlink:href="#DejaVuSans-31" x="146.582031"/>
      <use xlink:href="#DejaVuSans-20" x="210.205078"/>
      <use xlink:href="#DejaVuSans-28" x="241.992188"/>
      <use xlink:href="#DejaVuSans-70" x="281.005859"/>
      <use xlink:href="#DejaVuSans-70" x="344.482422"/>
      <use xlink:href="#DejaVuSans-6d" x="407.958984"/>
      <use xlink:href="#DejaVuSans-29" x="505.371094"/>
     </g>
    </g>
   </g>
   <g id="PolyCollection_1">
    <defs>
     <path id="maa366f7c51" d="M 89.627727 -634.971241 
L 89.627727 -599.495424 
L 121.156186 -598.561812 
L 152.684644 -599.147462 
L 184.213103 -595.663352 
L 215.741561 -592.60366 
L 247.27002 -591.951096 
L 278.798478 -593.205876 
L 310.326937 -596.784762 
L 341.855395 -593.259364 
L 373.383854 -577.716999 
L 404.912312 -559.100526 
L 436.440771 -543.8051 
L 467.969229 -533.554597 
L 499.497688 -529.611701 
L 531.026146 -519.486685 
L 562.554605 -511.834074 
L 594.083063 -512.892567 
L 625.611522 -518.821595 
L 657.13998 -528.860868 
L 688.668439 -547.68102 
L 720.196897 -564.937407 
L 751.725356 -584.701479 
L 783.253814 -597.203515 
L 814.782273 -606.219692 
L 814.782273 -645.996019 
L 814.782273 -645.996019 
L 783.253814 -636.528512 
L 751.725356 -620.233077 
L 720.196897 -595.001028 
L 688.668439 -574.154132 
L 657.13998 -552.478628 
L 625.611522 -541.433813 
L 594.083063 -533.740316 
L 562.554605 -533.769903 
L 531.026146 -546.808876 
L 499.497688 -563.187278 
L 467.969229 -561.289721 
L 436.440771 -574.883499 
L 404.912312 -591.051807 
L 373.383854 -612.53958 
L 341.855395 -625.598718 
L 310.326937 -629.906019 
L 278.798478 -625.539287 
L 247.27002 -624.418404 
L 215.741561 -626.21458 
L 184.213103 -631.107728 
L 152.684644 -634.502457 
L 121.156186 -635.380797 
L 89.627727 -634.971241 
z
" style="stroke: #4c72b0; stroke-opacity: 0.2"/>
    </defs>
    <g clip-path="url(#pdf3a1a2a7f)">
     <use xlink:href="#maa366f7c51" x="0" y="720" style="fill: #4c72b0; fill-opacity: 0.2; stroke: #4c72b0; stroke-opacity: 0.2"/>
    </g>
   </g>
   <g id="PolyCollection_2">
    <defs>
     <path id="m74b12085ec" d="M 89.627727 -668.520939 
L 89.627727 -604.396002 
L 121.156186 -606.086495 
L 152.684644 -607.628174 
L 184.213103 -598.34976 
L 215.741561 -594.902014 
L 247.27002 -587.670464 
L 278.798478 -585.93562 
L 310.326937 -580.734426 
L 341.855395 -576.861054 
L 373.383854 -565.100816 
L 404.912312 -546.434566 
L 436.440771 -537.760348 
L 467.969229 -525.887903 
L 499.497688 -522.652365 
L 531.026146 -517.342574 
L 562.554605 -511.604245 
L 594.083063 -511.600909 
L 625.611522 -518.280057 
L 657.13998 -525.353181 
L 688.668439 -540.819498 
L 720.196897 -557.911224 
L 751.725356 -570.195588 
L 783.253814 -581.905476 
L 814.782273 -593.846148 
L 814.782273 -645.227606 
L 814.782273 -645.227606 
L 783.253814 -629.859454 
L 751.725356 -616.53348 
L 720.196897 -597.152051 
L 688.668439 -574.555774 
L 657.13998 -555.118733 
L 625.611522 -548.172746 
L 594.083063 -541.233372 
L 562.554605 -541.246717 
L 531.026146 -551.515656 
L 499.497688 -556.192878 
L 467.969229 -559.960378 
L 436.440771 -576.337264 
L 404.912312 -594.079376 
L 373.383854 -618.240409 
L 341.855395 -635.585509 
L 310.326937 -630.914776 
L 278.798478 -638.384612 
L 247.27002 -645.731007 
L 215.741561 -650.211124 
L 184.213103 -653.871427 
L 152.684644 -672.019091 
L 121.156186 -663.072771 
L 89.627727 -668.520939 
z
" style="stroke: #dd8452; stroke-opacity: 0.2"/>
    </defs>
    <g clip-path="url(#pdf3a1a2a7f)">
     <use xlink:href="#m74b12085ec" x="0" y="720" style="fill: #dd8452; fill-opacity: 0.2; stroke: #dd8452; stroke-opacity: 0.2"/>
    </g>
   </g>
   <g id="line2d_20">
    <path d="M 89.627727 103.234208 
L 121.156186 102.412159 
L 152.684644 103.593704 
L 184.213103 107.820798 
L 215.741561 110.827431 
L 247.27002 111.550611 
L 278.798478 110.924573 
L 310.326937 106.473391 
L 341.855395 110.567988 
L 373.383854 126.251579 
L 404.912312 145.980754 
L 436.440771 161.513975 
L 467.969229 173.217882 
L 499.497688 175.648907 
L 531.026146 188.047483 
L 562.554605 197.346415 
L 594.083063 196.243175 
L 625.611522 191.017293 
L 657.13998 179.743479 
L 688.668439 159.523102 
L 720.196897 140.558599 
L 751.725356 118.853138 
L 783.253814 103.281371 
L 814.782273 95.11665 
" clip-path="url(#pdf3a1a2a7f)" style="fill: none; stroke: #4c72b0; stroke-width: 1.5; stroke-linecap: round"/>
   </g>
   <g id="line2d_21">
    <path d="M 89.627727 84.083592 
L 121.156186 85.618873 
L 152.684644 81.255441 
L 184.213103 95.761035 
L 215.741561 98.896498 
L 247.27002 104.702152 
L 278.798478 108.305289 
L 310.326937 114.043618 
L 341.855395 114.977764 
L 373.383854 129.390311 
L 404.912312 151.542929 
L 436.440771 164.88788 
L 467.969229 177.008523 
L 499.497688 181.183411 
L 531.026146 186.506699 
L 562.554605 194.51367 
L 594.083063 193.846422 
L 625.611522 187.440846 
L 657.13998 180.228561 
L 688.668439 162.639676 
L 720.196897 143.13561 
L 751.725356 127.313886 
L 783.253814 115.46259 
L 814.782273 101.956552 
" clip-path="url(#pdf3a1a2a7f)" style="fill: none; stroke: #dd8452; stroke-width: 1.5; stroke-linecap: round"/>
   </g>
   <g id="line2d_22"/>
   <g id="line2d_23"/>
   <g id="patch_3">
    <path d="M 53.37 216.42 
L 53.37 39.96 
" style="fill: none; stroke: #262626; stroke-width: 1.25; stroke-linejoin: miter; stroke-linecap: square"/>
   </g>
   <g id="patch_4">
    <path d="M 851.04 216.42 
L 851.04 39.96 
" style="fill: none; stroke: #262626; stroke-width: 1.25; stroke-linejoin: miter; stroke-linecap: square"/>
   </g>
   <g id="patch_5">
    <path d="M 53.37 216.42 
L 851.04 216.42 
" style="fill: none; stroke: #262626; stroke-width: 1.25; stroke-linejoin: miter; stroke-linecap: square"/>
   </g>
   <g id="patch_6">
    <path d="M 53.37 39.96 
L 851.04 39.96 
" style="fill: none; stroke: #262626; stroke-width: 1.25; stroke-linejoin: miter; stroke-linecap: square"/>
   </g>
   <g id="legend_1">
    <g id="patch_7">
     <path d="M 61.07 210.92 
L 189.015625 210.92 
Q 191.215625 210.92 191.215625 208.72 
L 191.215625 160.414375 
Q 191.215625 158.214375 189.015625 158.214375 
L 61.07 158.214375 
Q 58.87 158.214375 58.87 160.414375 
L 58.87 208.72 
Q 58.87 210.92 61.07 210.92 
z
" style="fill: #ffffff; opacity: 0.8; stroke: #cccccc; stroke-linejoin: miter"/>
    </g>
    <g id="text_22">
     <!-- weekend or holidays -->
     <g style="fill: #262626" transform="translate(63.27 171.7325) scale(0.12 -0.12)">
      <defs>
       <path id="DejaVuSans-77" d="M 269 3500 
L 844 3500 
L 1563 769 
L 2278 3500 
L 2956 3500 
L 3675 769 
L 4391 3500 
L 4966 3500 
L 4050 0 
L 3372 0 
L 2619 2869 
L 1863 0 
L 1184 0 
L 269 3500 
z
" transform="scale(0.015625)"/>
       <path id="DejaVuSans-65" d="M 3597 1894 
L 3597 1613 
L 953 1613 
Q 991 1019 1311 708 
Q 1631 397 2203 397 
Q 2534 397 2845 478 
Q 3156 559 3463 722 
L 3463 178 
Q 3153 47 2828 -22 
Q 2503 -91 2169 -91 
Q 1331 -91 842 396 
Q 353 884 353 1716 
Q 353 2575 817 3079 
Q 1281 3584 2069 3584 
Q 2775 3584 3186 3129 
Q 3597 2675 3597 1894 
z
M 3022 2063 
Q 3016 2534 2758 2815 
Q 2500 3097 2075 3097 
Q 1594 3097 1305 2825 
Q 1016 2553 972 2059 
L 3022 2063 
z
" transform="scale(0.015625)"/>
       <path id="DejaVuSans-6b" d="M 581 4863 
L 1159 4863 
L 1159 1991 
L 2875 3500 
L 3609 3500 
L 1753 1863 
L 3688 0 
L 2938 0 
L 1159 1709 
L 1159 0 
L 581 0 
L 581 4863 
z
" transform="scale(0.015625)"/>
       <path id="DejaVuSans-6e" d="M 3513 2113 
L 3513 0 
L 2938 0 
L 2938 2094 
Q 2938 2591 2744 2837 
Q 2550 3084 2163 3084 
Q 1697 3084 1428 2787 
Q 1159 2491 1159 1978 
L 1159 0 
L 581 0 
L 581 3500 
L 1159 3500 
L 1159 2956 
Q 1366 3272 1645 3428 
Q 1925 3584 2291 3584 
Q 2894 3584 3203 3211 
Q 3513 2838 3513 2113 
z
" transform="scale(0.015625)"/>
       <path id="DejaVuSans-64" d="M 2906 2969 
L 2906 4863 
L 3481 4863 
L 3481 0 
L 2906 0 
L 2906 525 
Q 2725 213 2448 61 
Q 2172 -91 1784 -91 
Q 1150 -91 751 415 
Q 353 922 353 1747 
Q 353 2572 751 3078 
Q 1150 3584 1784 3584 
Q 2172 3584 2448 3432 
Q 2725 3281 2906 2969 
z
M 947 1747 
Q 947 1113 1208 752 
Q 1469 391 1925 391 
Q 2381 391 2643 752 
Q 2906 1113 2906 1747 
Q 2906 2381 2643 2742 
Q 2381 3103 1925 3103 
Q 1469 3103 1208 2742 
Q 947 2381 947 1747 
z
" transform="scale(0.015625)"/>
       <path id="DejaVuSans-68" d="M 3513 2113 
L 3513 0 
L 2938 0 
L 2938 2094 
Q 2938 2591 2744 2837 
Q 2550 3084 2163 3084 
Q 1697 3084 1428 2787 
Q 1159 2491 1159 1978 
L 1159 0 
L 581 0 
L 581 4863 
L 1159 4863 
L 1159 2956 
Q 1366 3272 1645 3428 
Q 1925 3584 2291 3584 
Q 2894 3584 3203 3211 
Q 3513 2838 3513 2113 
z
" transform="scale(0.015625)"/>
       <path id="DejaVuSans-6c" d="M 603 4863 
L 1178 4863 
L 1178 0 
L 603 0 
L 603 4863 
z
" transform="scale(0.015625)"/>
       <path id="DejaVuSans-69" d="M 603 3500 
L 1178 3500 
L 1178 0 
L 603 0 
L 603 3500 
z
M 603 4863 
L 1178 4863 
L 1178 4134 
L 603 4134 
L 603 4863 
z
" transform="scale(0.015625)"/>
       <path id="DejaVuSans-79" d="M 2059 -325 
Q 1816 -950 1584 -1140 
Q 1353 -1331 966 -1331 
L 506 -1331 
L 506 -850 
L 844 -850 
Q 1081 -850 1212 -737 
Q 1344 -625 1503 -206 
L 1606 56 
L 191 3500 
L 800 3500 
L 1894 763 
L 2988 3500 
L 3597 3500 
L 2059 -325 
z
" transform="scale(0.015625)"/>
       <path id="DejaVuSans-73" d="M 2834 3397 
L 2834 2853 
Q 2591 2978 2328 3040 
Q 2066 3103 1784 3103 
Q 1356 3103 1142 2972 
Q 928 2841 928 2578 
Q 928 2378 1081 2264 
Q 1234 2150 1697 2047 
L 1894 2003 
Q 2506 1872 2764 1633 
Q 3022 1394 3022 966 
Q 3022 478 2636 193 
Q 2250 -91 1575 -91 
Q 1294 -91 989 -36 
Q 684 19 347 128 
L 347 722 
Q 666 556 975 473 
Q 1284 391 1588 391 
Q 1994 391 2212 530 
Q 2431 669 2431 922 
Q 2431 1156 2273 1281 
Q 2116 1406 1581 1522 
L 1381 1569 
Q 847 1681 609 1914 
Q 372 2147 372 2553 
Q 372 3047 722 3315 
Q 1072 3584 1716 3584 
Q 2034 3584 2315 3537 
Q 2597 3491 2834 3397 
z
" transform="scale(0.015625)"/>
      </defs>
      <use xlink:href="#DejaVuSans-77"/>
      <use xlink:href="#DejaVuSans-65" x="81.787109"/>
      <use xlink:href="#DejaVuSans-65" x="143.310547"/>
      <use xlink:href="#DejaVuSans-6b" x="204.833984"/>
      <use xlink:href="#DejaVuSans-65" x="259.119141"/>
      <use xlink:href="#DejaVuSans-6e" x="320.642578"/>
      <use xlink:href="#DejaVuSans-64" x="384.021484"/>
      <use xlink:href="#DejaVuSans-20" x="447.498047"/>
      <use xlink:href="#DejaVuSans-6f" x="479.285156"/>
      <use xlink:href="#DejaVuSans-72" x="540.466797"/>
      <use xlink:href="#DejaVuSans-20" x="581.580078"/>
      <use xlink:href="#DejaVuSans-68" x="613.367188"/>
      <use xlink:href="#DejaVuSans-6f" x="676.746094"/>
      <use xlink:href="#DejaVuSans-6c" x="737.927734"/>
      <use xlink:href="#DejaVuSans-69" x="765.710938"/>
      <use xlink:href="#DejaVuSans-64" x="793.494141"/>
      <use xlink:href="#DejaVuSans-61" x="856.970703"/>
      <use xlink:href="#DejaVuSans-79" x="918.25"/>
      <use xlink:href="#DejaVuSans-73" x="977.429688"/>
     </g>
    </g>
    <g id="line2d_24">
     <path d="M 95.833516 184.236406 
L 106.833516 184.236406 
L 117.833516 184.236406 
" style="fill: none; stroke: #4c72b0; stroke-width: 1.5; stroke-linecap: round"/>
    </g>
    <g id="text_23">
     <!-- False -->
     <g style="fill: #262626" transform="translate(126.633516 188.086406) scale(0.11 -0.11)">
      <defs>
       <path id="DejaVuSans-46" d="M 628 4666 
L 3309 4666 
L 3309 4134 
L 1259 4134 
L 1259 2759 
L 3109 2759 
L 3109 2228 
L 1259 2228 
L 1259 0 
L 628 0 
L 628 4666 
z
" transform="scale(0.015625)"/>
      </defs>
      <use xlink:href="#DejaVuSans-46"/>
      <use xlink:href="#DejaVuSans-61" x="48.394531"/>
      <use xlink:href="#DejaVuSans-6c" x="109.673828"/>
      <use xlink:href="#DejaVuSans-73" x="137.457031"/>
      <use xlink:href="#DejaVuSans-65" x="189.556641"/>
     </g>
    </g>
    <g id="line2d_25">
     <path d="M 95.833516 200.382344 
L 106.833516 200.382344 
L 117.833516 200.382344 
" style="fill: none; stroke: #dd8452; stroke-width: 1.5; stroke-linecap: round"/>
    </g>
    <g id="text_24">
     <!-- True -->
     <g style="fill: #262626" transform="translate(126.633516 204.232344) scale(0.11 -0.11)">
      <defs>
       <path id="DejaVuSans-54" d="M -19 4666 
L 3928 4666 
L 3928 4134 
L 2272 4134 
L 2272 0 
L 1638 0 
L 1638 4134 
L -19 4134 
L -19 4666 
z
" transform="scale(0.015625)"/>
       <path id="DejaVuSans-75" d="M 544 1381 
L 544 3500 
L 1119 3500 
L 1119 1403 
Q 1119 906 1312 657 
Q 1506 409 1894 409 
Q 2359 409 2629 706 
Q 2900 1003 2900 1516 
L 2900 3500 
L 3475 3500 
L 3475 0 
L 2900 0 
L 2900 538 
Q 2691 219 2414 64 
Q 2138 -91 1772 -91 
Q 1169 -91 856 284 
Q 544 659 544 1381 
z
M 1991 3584 
L 1991 3584 
z
" transform="scale(0.015625)"/>
      </defs>
      <use xlink:href="#DejaVuSans-54"/>
      <use xlink:href="#DejaVuSans-72" x="46.333984"/>
      <use xlink:href="#DejaVuSans-75" x="87.447266"/>
      <use xlink:href="#DejaVuSans-65" x="150.826172"/>
     </g>
    </g>
   </g>
  </g>
  <g id="axes_2">
   <g id="patch_8">
    <path d="M 53.37 443.1 
L 851.04 443.1 
L 851.04 266.64 
L 53.37 266.64 
z
" style="fill: #ffffff"/>
   </g>
   <g id="matplotlib.axis_3">
    <g id="xtick_14">
     <g id="line2d_26">
      <g>
       <use xlink:href="#m29bb552ca6" x="61.777589" y="443.1" style="fill: #262626; stroke: #262626; stroke-width: 1.25"/>
      </g>
     </g>
     <g id="text_25">
      <!-- 00:00 -->
      <g style="fill: #262626" transform="translate(45.927276 460.958281) scale(0.11 -0.11)">
       <use xlink:href="#DejaVuSans-30"/>
       <use xlink:href="#DejaVuSans-30" x="63.623047"/>
       <use xlink:href="#DejaVuSans-3a" x="127.246094"/>
       <use xlink:href="#DejaVuSans-30" x="160.9375"/>
       <use xlink:href="#DejaVuSans-30" x="224.560547"/>
      </g>
     </g>
    </g>
    <g id="xtick_15">
     <g id="line2d_27">
      <g>
       <use xlink:href="#m29bb552ca6" x="124.834506" y="443.1" style="fill: #262626; stroke: #262626; stroke-width: 1.25"/>
      </g>
     </g>
     <g id="text_26">
      <!-- 02:00 -->
      <g style="fill: #262626" transform="translate(108.984193 460.958281) scale(0.11 -0.11)">
       <use xlink:href="#DejaVuSans-30"/>
       <use xlink:href="#DejaVuSans-32" x="63.623047"/>
       <use xlink:href="#DejaVuSans-3a" x="127.246094"/>
       <use xlink:href="#DejaVuSans-30" x="160.9375"/>
       <use xlink:href="#DejaVuSans-30" x="224.560547"/>
      </g>
     </g>
    </g>
    <g id="xtick_16">
     <g id="line2d_28">
      <g>
       <use xlink:href="#m29bb552ca6" x="187.891423" y="443.1" style="fill: #262626; stroke: #262626; stroke-width: 1.25"/>
      </g>
     </g>
     <g id="text_27">
      <!-- 04:00 -->
      <g style="fill: #262626" transform="translate(172.04111 460.958281) scale(0.11 -0.11)">
       <use xlink:href="#DejaVuSans-30"/>
       <use xlink:href="#DejaVuSans-34" x="63.623047"/>
       <use xlink:href="#DejaVuSans-3a" x="127.246094"/>
       <use xlink:href="#DejaVuSans-30" x="160.9375"/>
       <use xlink:href="#DejaVuSans-30" x="224.560547"/>
      </g>
     </g>
    </g>
    <g id="xtick_17">
     <g id="line2d_29">
      <g>
       <use xlink:href="#m29bb552ca6" x="250.94834" y="443.1" style="fill: #262626; stroke: #262626; stroke-width: 1.25"/>
      </g>
     </g>
     <g id="text_28">
      <!-- 06:00 -->
      <g style="fill: #262626" transform="translate(235.098027 460.958281) scale(0.11 -0.11)">
       <use xlink:href="#DejaVuSans-30"/>
       <use xlink:href="#DejaVuSans-36" x="63.623047"/>
       <use xlink:href="#DejaVuSans-3a" x="127.246094"/>
       <use xlink:href="#DejaVuSans-30" x="160.9375"/>
       <use xlink:href="#DejaVuSans-30" x="224.560547"/>
      </g>
     </g>
    </g>
    <g id="xtick_18">
     <g id="line2d_30">
      <g>
       <use xlink:href="#m29bb552ca6" x="314.005257" y="443.1" style="fill: #262626; stroke: #262626; stroke-width: 1.25"/>
      </g>
     </g>
     <g id="text_29">
      <!-- 08:00 -->
      <g style="fill: #262626" transform="translate(298.154944 460.958281) scale(0.11 -0.11)">
       <use xlink:href="#DejaVuSans-30"/>
       <use xlink:href="#DejaVuSans-38" x="63.623047"/>
       <use xlink:href="#DejaVuSans-3a" x="127.246094"/>
       <use xlink:href="#DejaVuSans-30" x="160.9375"/>
       <use xlink:href="#DejaVuSans-30" x="224.560547"/>
      </g>
     </g>
    </g>
    <g id="xtick_19">
     <g id="line2d_31">
      <g>
       <use xlink:href="#m29bb552ca6" x="377.062174" y="443.1" style="fill: #262626; stroke: #262626; stroke-width: 1.25"/>
      </g>
     </g>
     <g id="text_30">
      <!-- 10:00 -->
      <g style="fill: #262626" transform="translate(361.211861 460.958281) scale(0.11 -0.11)">
       <use xlink:href="#DejaVuSans-31"/>
       <use xlink:href="#DejaVuSans-30" x="63.623047"/>
       <use xlink:href="#DejaVuSans-3a" x="127.246094"/>
       <use xlink:href="#DejaVuSans-30" x="160.9375"/>
       <use xlink:href="#DejaVuSans-30" x="224.560547"/>
      </g>
     </g>
    </g>
    <g id="xtick_20">
     <g id="line2d_32">
      <g>
       <use xlink:href="#m29bb552ca6" x="440.119091" y="443.1" style="fill: #262626; stroke: #262626; stroke-width: 1.25"/>
      </g>
     </g>
     <g id="text_31">
      <!-- 12:00 -->
      <g style="fill: #262626" transform="translate(424.268778 460.958281) scale(0.11 -0.11)">
       <use xlink:href="#DejaVuSans-31"/>
       <use xlink:href="#DejaVuSans-32" x="63.623047"/>
       <use xlink:href="#DejaVuSans-3a" x="127.246094"/>
       <use xlink:href="#DejaVuSans-30" x="160.9375"/>
       <use xlink:href="#DejaVuSans-30" x="224.560547"/>
      </g>
     </g>
    </g>
    <g id="xtick_21">
     <g id="line2d_33">
      <g>
       <use xlink:href="#m29bb552ca6" x="503.176008" y="443.1" style="fill: #262626; stroke: #262626; stroke-width: 1.25"/>
      </g>
     </g>
     <g id="text_32">
      <!-- 14:00 -->
      <g style="fill: #262626" transform="translate(487.325695 460.958281) scale(0.11 -0.11)">
       <use xlink:href="#DejaVuSans-31"/>
       <use xlink:href="#DejaVuSans-34" x="63.623047"/>
       <use xlink:href="#DejaVuSans-3a" x="127.246094"/>
       <use xlink:href="#DejaVuSans-30" x="160.9375"/>
       <use xlink:href="#DejaVuSans-30" x="224.560547"/>
      </g>
     </g>
    </g>
    <g id="xtick_22">
     <g id="line2d_34">
      <g>
       <use xlink:href="#m29bb552ca6" x="566.232925" y="443.1" style="fill: #262626; stroke: #262626; stroke-width: 1.25"/>
      </g>
     </g>
     <g id="text_33">
      <!-- 16:00 -->
      <g style="fill: #262626" transform="translate(550.382612 460.958281) scale(0.11 -0.11)">
       <use xlink:href="#DejaVuSans-31"/>
       <use xlink:href="#DejaVuSans-36" x="63.623047"/>
       <use xlink:href="#DejaVuSans-3a" x="127.246094"/>
       <use xlink:href="#DejaVuSans-30" x="160.9375"/>
       <use xlink:href="#DejaVuSans-30" x="224.560547"/>
      </g>
     </g>
    </g>
    <g id="xtick_23">
     <g id="line2d_35">
      <g>
       <use xlink:href="#m29bb552ca6" x="629.289842" y="443.1" style="fill: #262626; stroke: #262626; stroke-width: 1.25"/>
      </g>
     </g>
     <g id="text_34">
      <!-- 18:00 -->
      <g style="fill: #262626" transform="translate(613.439529 460.958281) scale(0.11 -0.11)">
       <use xlink:href="#DejaVuSans-31"/>
       <use xlink:href="#DejaVuSans-38" x="63.623047"/>
       <use xlink:href="#DejaVuSans-3a" x="127.246094"/>
       <use xlink:href="#DejaVuSans-30" x="160.9375"/>
       <use xlink:href="#DejaVuSans-30" x="224.560547"/>
      </g>
     </g>
    </g>
    <g id="xtick_24">
     <g id="line2d_36">
      <g>
       <use xlink:href="#m29bb552ca6" x="692.346759" y="443.1" style="fill: #262626; stroke: #262626; stroke-width: 1.25"/>
      </g>
     </g>
     <g id="text_35">
      <!-- 20:00 -->
      <g style="fill: #262626" transform="translate(676.496446 460.958281) scale(0.11 -0.11)">
       <use xlink:href="#DejaVuSans-32"/>
       <use xlink:href="#DejaVuSans-30" x="63.623047"/>
       <use xlink:href="#DejaVuSans-3a" x="127.246094"/>
       <use xlink:href="#DejaVuSans-30" x="160.9375"/>
       <use xlink:href="#DejaVuSans-30" x="224.560547"/>
      </g>
     </g>
    </g>
    <g id="xtick_25">
     <g id="line2d_37">
      <g>
       <use xlink:href="#m29bb552ca6" x="755.403676" y="443.1" style="fill: #262626; stroke: #262626; stroke-width: 1.25"/>
      </g>
     </g>
     <g id="text_36">
      <!-- 22:00 -->
      <g style="fill: #262626" transform="translate(739.553363 460.958281) scale(0.11 -0.11)">
       <use xlink:href="#DejaVuSans-32"/>
       <use xlink:href="#DejaVuSans-32" x="63.623047"/>
       <use xlink:href="#DejaVuSans-3a" x="127.246094"/>
       <use xlink:href="#DejaVuSans-30" x="160.9375"/>
       <use xlink:href="#DejaVuSans-30" x="224.560547"/>
      </g>
     </g>
    </g>
    <g id="xtick_26">
     <g id="line2d_38">
      <g>
       <use xlink:href="#m29bb552ca6" x="818.460593" y="443.1" style="fill: #262626; stroke: #262626; stroke-width: 1.25"/>
      </g>
     </g>
     <g id="text_37">
      <!-- 00:00 -->
      <g style="fill: #262626" transform="translate(802.61028 460.958281) scale(0.11 -0.11)">
       <use xlink:href="#DejaVuSans-30"/>
       <use xlink:href="#DejaVuSans-30" x="63.623047"/>
       <use xlink:href="#DejaVuSans-3a" x="127.246094"/>
       <use xlink:href="#DejaVuSans-30" x="160.9375"/>
       <use xlink:href="#DejaVuSans-30" x="224.560547"/>
      </g>
     </g>
    </g>
    <g id="text_38">
     <!-- Hora -->
     <g style="fill: #262626" transform="translate(437.878125 476.364063) scale(0.12 -0.12)">
      <use xlink:href="#DejaVuSans-48"/>
      <use xlink:href="#DejaVuSans-6f" x="75.195312"/>
      <use xlink:href="#DejaVuSans-72" x="136.376953"/>
      <use xlink:href="#DejaVuSans-61" x="177.490234"/>
     </g>
    </g>
   </g>
   <g id="matplotlib.axis_4">
    <g id="ytick_7">
     <g id="line2d_39">
      <g>
       <use xlink:href="#ma721c5539c" x="53.37" y="422.927256" style="fill: #262626; stroke: #262626; stroke-width: 1.25"/>
      </g>
     </g>
     <g id="text_39">
      <!-- 8 -->
      <g style="fill: #262626" transform="translate(36.87125 427.106397) scale(0.11 -0.11)">
       <use xlink:href="#DejaVuSans-38"/>
      </g>
     </g>
    </g>
    <g id="ytick_8">
     <g id="line2d_40">
      <g>
       <use xlink:href="#ma721c5539c" x="53.37" y="394.471465" style="fill: #262626; stroke: #262626; stroke-width: 1.25"/>
      </g>
     </g>
     <g id="text_40">
      <!-- 9 -->
      <g style="fill: #262626" transform="translate(36.87125 398.650606) scale(0.11 -0.11)">
       <defs>
        <path id="DejaVuSans-39" d="M 703 97 
L 703 672 
Q 941 559 1184 500 
Q 1428 441 1663 441 
Q 2288 441 2617 861 
Q 2947 1281 2994 2138 
Q 2813 1869 2534 1725 
Q 2256 1581 1919 1581 
Q 1219 1581 811 2004 
Q 403 2428 403 3163 
Q 403 3881 828 4315 
Q 1253 4750 1959 4750 
Q 2769 4750 3195 4129 
Q 3622 3509 3622 2328 
Q 3622 1225 3098 567 
Q 2575 -91 1691 -91 
Q 1453 -91 1209 -44 
Q 966 3 703 97 
z
M 1959 2075 
Q 2384 2075 2632 2365 
Q 2881 2656 2881 3163 
Q 2881 3666 2632 3958 
Q 2384 4250 1959 4250 
Q 1534 4250 1286 3958 
Q 1038 3666 1038 3163 
Q 1038 2656 1286 2365 
Q 1534 2075 1959 2075 
z
" transform="scale(0.015625)"/>
       </defs>
       <use xlink:href="#DejaVuSans-39"/>
      </g>
     </g>
    </g>
    <g id="ytick_9">
     <g id="line2d_41">
      <g>
       <use xlink:href="#ma721c5539c" x="53.37" y="366.015674" style="fill: #262626; stroke: #262626; stroke-width: 1.25"/>
      </g>
     </g>
     <g id="text_41">
      <!-- 10 -->
      <g style="fill: #262626" transform="translate(29.8725 370.194814) scale(0.11 -0.11)">
       <use xlink:href="#DejaVuSans-31"/>
       <use xlink:href="#DejaVuSans-30" x="63.623047"/>
      </g>
     </g>
    </g>
    <g id="ytick_10">
     <g id="line2d_42">
      <g>
       <use xlink:href="#ma721c5539c" x="53.37" y="337.559882" style="fill: #262626; stroke: #262626; stroke-width: 1.25"/>
      </g>
     </g>
     <g id="text_42">
      <!-- 11 -->
      <g style="fill: #262626" transform="translate(29.8725 341.739023) scale(0.11 -0.11)">
       <use xlink:href="#DejaVuSans-31"/>
       <use xlink:href="#DejaVuSans-31" x="63.623047"/>
      </g>
     </g>
    </g>
    <g id="ytick_11">
     <g id="line2d_43">
      <g>
       <use xlink:href="#ma721c5539c" x="53.37" y="309.104091" style="fill: #262626; stroke: #262626; stroke-width: 1.25"/>
      </g>
     </g>
     <g id="text_43">
      <!-- 12 -->
      <g style="fill: #262626" transform="translate(29.8725 313.283231) scale(0.11 -0.11)">
       <use xlink:href="#DejaVuSans-31"/>
       <use xlink:href="#DejaVuSans-32" x="63.623047"/>
      </g>
     </g>
    </g>
    <g id="ytick_12">
     <g id="line2d_44">
      <g>
       <use xlink:href="#ma721c5539c" x="53.37" y="280.648299" style="fill: #262626; stroke: #262626; stroke-width: 1.25"/>
      </g>
     </g>
     <g id="text_44">
      <!-- 13 -->
      <g style="fill: #262626" transform="translate(29.8725 284.82744) scale(0.11 -0.11)">
       <defs>
        <path id="DejaVuSans-33" d="M 2597 2516 
Q 3050 2419 3304 2112 
Q 3559 1806 3559 1356 
Q 3559 666 3084 287 
Q 2609 -91 1734 -91 
Q 1441 -91 1130 -33 
Q 819 25 488 141 
L 488 750 
Q 750 597 1062 519 
Q 1375 441 1716 441 
Q 2309 441 2620 675 
Q 2931 909 2931 1356 
Q 2931 1769 2642 2001 
Q 2353 2234 1838 2234 
L 1294 2234 
L 1294 2753 
L 1863 2753 
Q 2328 2753 2575 2939 
Q 2822 3125 2822 3475 
Q 2822 3834 2567 4026 
Q 2313 4219 1838 4219 
Q 1578 4219 1281 4162 
Q 984 4106 628 3988 
L 628 4550 
Q 988 4650 1302 4700 
Q 1616 4750 1894 4750 
Q 2613 4750 3031 4423 
Q 3450 4097 3450 3541 
Q 3450 3153 3228 2886 
Q 3006 2619 2597 2516 
z
" transform="scale(0.015625)"/>
       </defs>
       <use xlink:href="#DejaVuSans-31"/>
       <use xlink:href="#DejaVuSans-33" x="63.623047"/>
      </g>
     </g>
    </g>
    <g id="text_45">
     <!-- PM2.5 (ppm) -->
     <g style="fill: #262626" transform="translate(23.376875 393.257812) rotate(-90) scale(0.12 -0.12)">
      <defs>
       <path id="DejaVuSans-2e" d="M 684 794 
L 1344 794 
L 1344 0 
L 684 0 
L 684 794 
z
" transform="scale(0.015625)"/>
       <path id="DejaVuSans-35" d="M 691 4666 
L 3169 4666 
L 3169 4134 
L 1269 4134 
L 1269 2991 
Q 1406 3038 1543 3061 
Q 1681 3084 1819 3084 
Q 2600 3084 3056 2656 
Q 3513 2228 3513 1497 
Q 3513 744 3044 326 
Q 2575 -91 1722 -91 
Q 1428 -91 1123 -41 
Q 819 9 494 109 
L 494 744 
Q 775 591 1075 516 
Q 1375 441 1709 441 
Q 2250 441 2565 725 
Q 2881 1009 2881 1497 
Q 2881 1984 2565 2268 
Q 2250 2553 1709 2553 
Q 1456 2553 1204 2497 
Q 953 2441 691 2322 
L 691 4666 
z
" transform="scale(0.015625)"/>
      </defs>
      <use xlink:href="#DejaVuSans-50"/>
      <use xlink:href="#DejaVuSans-4d" x="60.302734"/>
      <use xlink:href="#DejaVuSans-32" x="146.582031"/>
      <use xlink:href="#DejaVuSans-2e" x="210.205078"/>
      <use xlink:href="#DejaVuSans-35" x="241.992188"/>
      <use xlink:href="#DejaVuSans-20" x="305.615234"/>
      <use xlink:href="#DejaVuSans-28" x="337.402344"/>
      <use xlink:href="#DejaVuSans-70" x="376.416016"/>
      <use xlink:href="#DejaVuSans-70" x="439.892578"/>
      <use xlink:href="#DejaVuSans-6d" x="503.369141"/>
      <use xlink:href="#DejaVuSans-29" x="600.78125"/>
     </g>
    </g>
   </g>
   <g id="PolyCollection_3">
    <defs>
     <path id="m1c81b4bf2a" d="M 89.627727 -420.895418 
L 89.627727 -396.036223 
L 121.156186 -396.097239 
L 152.684644 -385.767869 
L 184.213103 -383.814395 
L 215.741561 -380.339173 
L 247.27002 -379.05184 
L 278.798478 -391.774634 
L 310.326937 -409.522169 
L 341.855395 -422.830925 
L 373.383854 -413.981888 
L 404.912312 -385.096597 
L 436.440771 -366.582922 
L 467.969229 -357.797717 
L 499.497688 -341.222183 
L 531.026146 -313.637058 
L 562.554605 -303.139787 
L 594.083063 -297.230075 
L 625.611522 -301.923 
L 657.13998 -325.902008 
L 688.668439 -340.00486 
L 720.196897 -351.4354 
L 751.725356 -372.878283 
L 783.253814 -380.841369 
L 814.782273 -388.776503 
L 814.782273 -412.356969 
L 814.782273 -412.356969 
L 783.253814 -404.298685 
L 751.725356 -394.155878 
L 720.196897 -369.77314 
L 688.668439 -357.200927 
L 657.13998 -342.825376 
L 625.611522 -317.379603 
L 594.083063 -312.398373 
L 562.554605 -319.343224 
L 531.026146 -330.888829 
L 499.497688 -366.535235 
L 467.969229 -381.728723 
L 436.440771 -387.563101 
L 404.912312 -406.732435 
L 373.383854 -436.636489 
L 341.855395 -445.339091 
L 310.326937 -432.936977 
L 278.798478 -415.432503 
L 247.27002 -402.139149 
L 215.741561 -403.41127 
L 184.213103 -406.843674 
L 152.684644 -409.873895 
L 121.156186 -424.716366 
L 89.627727 -420.895418 
z
" style="stroke: #4c72b0; stroke-opacity: 0.2"/>
    </defs>
    <g clip-path="url(#pab18f95a6a)">
     <use xlink:href="#m1c81b4bf2a" x="0" y="720" style="fill: #4c72b0; fill-opacity: 0.2; stroke: #4c72b0; stroke-opacity: 0.2"/>
    </g>
   </g>
   <g id="PolyCollection_4">
    <defs>
     <path id="m87418864d8" d="M 89.627727 -423.232235 
L 89.627727 -384.312772 
L 121.156186 -381.089701 
L 152.684644 -380.523235 
L 184.213103 -371.424153 
L 215.741561 -371.233404 
L 247.27002 -366.33246 
L 278.798478 -367.398373 
L 310.326937 -371.824235 
L 341.855395 -370.951133 
L 373.383854 -360.787192 
L 404.912312 -351.561163 
L 436.440771 -340.933346 
L 467.969229 -330.0775 
L 499.497688 -319.881942 
L 531.026146 -300.254738 
L 562.554605 -286.853709 
L 594.083063 -284.920909 
L 625.611522 -294.227164 
L 657.13998 -309.172179 
L 688.668439 -330.602442 
L 720.196897 -353.216053 
L 751.725356 -374.398048 
L 783.253814 -385.083859 
L 814.782273 -393.350667 
L 814.782273 -429.470385 
L 814.782273 -429.470385 
L 783.253814 -420.723911 
L 751.725356 -410.864475 
L 720.196897 -380.10727 
L 688.668439 -355.236021 
L 657.13998 -332.792121 
L 625.611522 -316.973012 
L 594.083063 -307.290141 
L 562.554605 -309.189377 
L 531.026146 -323.136706 
L 499.497688 -344.576089 
L 467.969229 -353.855582 
L 436.440771 -367.004982 
L 404.912312 -381.201521 
L 373.383854 -393.382008 
L 341.855395 -406.958212 
L 310.326937 -404.006223 
L 278.798478 -402.139391 
L 247.27002 -400.555984 
L 215.741561 -404.852729 
L 184.213103 -404.908883 
L 152.684644 -415.656718 
L 121.156186 -416.916859 
L 89.627727 -423.232235 
z
" style="stroke: #dd8452; stroke-opacity: 0.2"/>
    </defs>
    <g clip-path="url(#pab18f95a6a)">
     <use xlink:href="#m87418864d8" x="0" y="720" style="fill: #dd8452; fill-opacity: 0.2; stroke: #dd8452; stroke-opacity: 0.2"/>
    </g>
   </g>
   <g id="line2d_45">
    <path d="M 89.627727 311.423778 
L 121.156186 310.301167 
L 152.684644 322.536276 
L 184.213103 324.859766 
L 215.741561 328.296214 
L 247.27002 329.204044 
L 278.798478 316.522922 
L 310.326937 298.777987 
L 341.855395 285.872491 
L 373.383854 296.030986 
L 404.912312 323.230359 
L 436.440771 343.635852 
L 467.969229 350.316419 
L 499.497688 367.13271 
L 531.026146 397.901596 
L 562.554605 408.635046 
L 594.083063 415.57319 
L 625.611522 410.500269 
L 657.13998 385.694843 
L 688.668439 371.337613 
L 720.196897 359.316825 
L 751.725356 337.330168 
L 783.253814 327.311767 
L 814.782273 319.562202 
" clip-path="url(#pab18f95a6a)" style="fill: none; stroke: #4c72b0; stroke-width: 1.5; stroke-linecap: round"/>
   </g>
   <g id="line2d_46">
    <path d="M 89.627727 316.604577 
L 121.156186 320.88117 
L 152.684644 322.720567 
L 184.213103 332.478491 
L 215.741561 332.430652 
L 247.27002 337.395208 
L 278.798478 335.246403 
L 310.326937 332.03959 
L 341.855395 332.505451 
L 373.383854 343.519553 
L 404.912312 354.391041 
L 436.440771 366.638554 
L 467.969229 378.229876 
L 499.497688 388.067261 
L 531.026146 408.551666 
L 562.554605 421.912148 
L 594.083063 423.811383 
L 625.611522 414.498331 
L 657.13998 398.461817 
L 688.668439 377.050888 
L 720.196897 353.584812 
L 751.725356 328.460647 
L 783.253814 316.879801 
L 814.782273 309.337062 
" clip-path="url(#pab18f95a6a)" style="fill: none; stroke: #dd8452; stroke-width: 1.5; stroke-linecap: round"/>
   </g>
   <g id="line2d_47"/>
   <g id="line2d_48"/>
   <g id="patch_9">
    <path d="M 53.37 443.1 
L 53.37 266.64 
" style="fill: none; stroke: #262626; stroke-width: 1.25; stroke-linejoin: miter; stroke-linecap: square"/>
   </g>
   <g id="patch_10">
    <path d="M 851.04 443.1 
L 851.04 266.64 
" style="fill: none; stroke: #262626; stroke-width: 1.25; stroke-linejoin: miter; stroke-linecap: square"/>
   </g>
   <g id="patch_11">
    <path d="M 53.37 443.1 
L 851.04 443.1 
" style="fill: none; stroke: #262626; stroke-width: 1.25; stroke-linejoin: miter; stroke-linecap: square"/>
   </g>
   <g id="patch_12">
    <path d="M 53.37 266.64 
L 851.04 266.64 
" style="fill: none; stroke: #262626; stroke-width: 1.25; stroke-linejoin: miter; stroke-linecap: square"/>
   </g>
   <g id="legend_2">
    <g id="patch_13">
     <path d="M 61.07 437.6 
L 189.015625 437.6 
Q 191.215625 437.6 191.215625 435.4 
L 191.215625 387.094375 
Q 191.215625 384.894375 189.015625 384.894375 
L 61.07 384.894375 
Q 58.87 384.894375 58.87 387.094375 
L 58.87 435.4 
Q 58.87 437.6 61.07 437.6 
z
" style="fill: #ffffff; opacity: 0.8; stroke: #cccccc; stroke-linejoin: miter"/>
    </g>
    <g id="text_46">
     <!-- weekend or holidays -->
     <g style="fill: #262626" transform="translate(63.27 398.4125) scale(0.12 -0.12)">
      <use xlink:href="#DejaVuSans-77"/>
      <use xlink:href="#DejaVuSans-65" x="81.787109"/>
      <use xlink:href="#DejaVuSans-65" x="143.310547"/>
      <use xlink:href="#DejaVuSans-6b" x="204.833984"/>
      <use xlink:href="#DejaVuSans-65" x="259.119141"/>
      <use xlink:href="#DejaVuSans-6e" x="320.642578"/>
      <use xlink:href="#DejaVuSans-64" x="384.021484"/>
      <use xlink:href="#DejaVuSans-20" x="447.498047"/>
      <use xlink:href="#DejaVuSans-6f" x="479.285156"/>
      <use xlink:href="#DejaVuSans-72" x="540.466797"/>
      <use xlink:href="#DejaVuSans-20" x="581.580078"/>
      <use xlink:href="#DejaVuSans-68" x="613.367188"/>
      <use xlink:href="#DejaVuSans-6f" x="676.746094"/>
      <use xlink:href="#DejaVuSans-6c" x="737.927734"/>
      <use xlink:href="#DejaVuSans-69" x="765.710938"/>
      <use xlink:href="#DejaVuSans-64" x="793.494141"/>
      <use xlink:href="#DejaVuSans-61" x="856.970703"/>
      <use xlink:href="#DejaVuSans-79" x="918.25"/>
      <use xlink:href="#DejaVuSans-73" x="977.429688"/>
     </g>
    </g>
    <g id="line2d_49">
     <path d="M 95.833516 410.916406 
L 106.833516 410.916406 
L 117.833516 410.916406 
" style="fill: none; stroke: #4c72b0; stroke-width: 1.5; stroke-linecap: round"/>
    </g>
    <g id="text_47">
     <!-- False -->
     <g style="fill: #262626" transform="translate(126.633516 414.766406) scale(0.11 -0.11)">
      <use xlink:href="#DejaVuSans-46"/>
      <use xlink:href="#DejaVuSans-61" x="48.394531"/>
      <use xlink:href="#DejaVuSans-6c" x="109.673828"/>
      <use xlink:href="#DejaVuSans-73" x="137.457031"/>
      <use xlink:href="#DejaVuSans-65" x="189.556641"/>
     </g>
    </g>
    <g id="line2d_50">
     <path d="M 95.833516 427.062344 
L 106.833516 427.062344 
L 117.833516 427.062344 
" style="fill: none; stroke: #dd8452; stroke-width: 1.5; stroke-linecap: round"/>
    </g>
    <g id="text_48">
     <!-- True -->
     <g style="fill: #262626" transform="translate(126.633516 430.912344) scale(0.11 -0.11)">
      <use xlink:href="#DejaVuSans-54"/>
      <use xlink:href="#DejaVuSans-72" x="46.333984"/>
      <use xlink:href="#DejaVuSans-75" x="87.447266"/>
      <use xlink:href="#DejaVuSans-65" x="150.826172"/>
     </g>
    </g>
   </g>
  </g>
  <g id="axes_3">
   <g id="patch_14">
    <path d="M 53.37 669.78 
L 851.04 669.78 
L 851.04 493.32 
L 53.37 493.32 
z
" style="fill: #ffffff"/>
   </g>
   <g id="matplotlib.axis_5">
    <g id="xtick_27">
     <g id="line2d_51">
      <g>
       <use xlink:href="#m29bb552ca6" x="61.777589" y="669.78" style="fill: #262626; stroke: #262626; stroke-width: 1.25"/>
      </g>
     </g>
     <g id="text_49">
      <!-- 00:00 -->
      <g style="fill: #262626" transform="translate(45.927276 687.638281) scale(0.11 -0.11)">
       <use xlink:href="#DejaVuSans-30"/>
       <use xlink:href="#DejaVuSans-30" x="63.623047"/>
       <use xlink:href="#DejaVuSans-3a" x="127.246094"/>
       <use xlink:href="#DejaVuSans-30" x="160.9375"/>
       <use xlink:href="#DejaVuSans-30" x="224.560547"/>
      </g>
     </g>
    </g>
    <g id="xtick_28">
     <g id="line2d_52">
      <g>
       <use xlink:href="#m29bb552ca6" x="124.834506" y="669.78" style="fill: #262626; stroke: #262626; stroke-width: 1.25"/>
      </g>
     </g>
     <g id="text_50">
      <!-- 02:00 -->
      <g style="fill: #262626" transform="translate(108.984193 687.638281) scale(0.11 -0.11)">
       <use xlink:href="#DejaVuSans-30"/>
       <use xlink:href="#DejaVuSans-32" x="63.623047"/>
       <use xlink:href="#DejaVuSans-3a" x="127.246094"/>
       <use xlink:href="#DejaVuSans-30" x="160.9375"/>
       <use xlink:href="#DejaVuSans-30" x="224.560547"/>
      </g>
     </g>
    </g>
    <g id="xtick_29">
     <g id="line2d_53">
      <g>
       <use xlink:href="#m29bb552ca6" x="187.891423" y="669.78" style="fill: #262626; stroke: #262626; stroke-width: 1.25"/>
      </g>
     </g>
     <g id="text_51">
      <!-- 04:00 -->
      <g style="fill: #262626" transform="translate(172.04111 687.638281) scale(0.11 -0.11)">
       <use xlink:href="#DejaVuSans-30"/>
       <use xlink:href="#DejaVuSans-34" x="63.623047"/>
       <use xlink:href="#DejaVuSans-3a" x="127.246094"/>
       <use xlink:href="#DejaVuSans-30" x="160.9375"/>
       <use xlink:href="#DejaVuSans-30" x="224.560547"/>
      </g>
     </g>
    </g>
    <g id="xtick_30">
     <g id="line2d_54">
      <g>
       <use xlink:href="#m29bb552ca6" x="250.94834" y="669.78" style="fill: #262626; stroke: #262626; stroke-width: 1.25"/>
      </g>
     </g>
     <g id="text_52">
      <!-- 06:00 -->
      <g style="fill: #262626" transform="translate(235.098027 687.638281) scale(0.11 -0.11)">
       <use xlink:href="#DejaVuSans-30"/>
       <use xlink:href="#DejaVuSans-36" x="63.623047"/>
       <use xlink:href="#DejaVuSans-3a" x="127.246094"/>
       <use xlink:href="#DejaVuSans-30" x="160.9375"/>
       <use xlink:href="#DejaVuSans-30" x="224.560547"/>
      </g>
     </g>
    </g>
    <g id="xtick_31">
     <g id="line2d_55">
      <g>
       <use xlink:href="#m29bb552ca6" x="314.005257" y="669.78" style="fill: #262626; stroke: #262626; stroke-width: 1.25"/>
      </g>
     </g>
     <g id="text_53">
      <!-- 08:00 -->
      <g style="fill: #262626" transform="translate(298.154944 687.638281) scale(0.11 -0.11)">
       <use xlink:href="#DejaVuSans-30"/>
       <use xlink:href="#DejaVuSans-38" x="63.623047"/>
       <use xlink:href="#DejaVuSans-3a" x="127.246094"/>
       <use xlink:href="#DejaVuSans-30" x="160.9375"/>
       <use xlink:href="#DejaVuSans-30" x="224.560547"/>
      </g>
     </g>
    </g>
    <g id="xtick_32">
     <g id="line2d_56">
      <g>
       <use xlink:href="#m29bb552ca6" x="377.062174" y="669.78" style="fill: #262626; stroke: #262626; stroke-width: 1.25"/>
      </g>
     </g>
     <g id="text_54">
      <!-- 10:00 -->
      <g style="fill: #262626" transform="translate(361.211861 687.638281) scale(0.11 -0.11)">
       <use xlink:href="#DejaVuSans-31"/>
       <use xlink:href="#DejaVuSans-30" x="63.623047"/>
       <use xlink:href="#DejaVuSans-3a" x="127.246094"/>
       <use xlink:href="#DejaVuSans-30" x="160.9375"/>
       <use xlink:href="#DejaVuSans-30" x="224.560547"/>
      </g>
     </g>
    </g>
    <g id="xtick_33">
     <g id="line2d_57">
      <g>
       <use xlink:href="#m29bb552ca6" x="440.119091" y="669.78" style="fill: #262626; stroke: #262626; stroke-width: 1.25"/>
      </g>
     </g>
     <g id="text_55">
      <!-- 12:00 -->
      <g style="fill: #262626" transform="translate(424.268778 687.638281) scale(0.11 -0.11)">
       <use xlink:href="#DejaVuSans-31"/>
       <use xlink:href="#DejaVuSans-32" x="63.623047"/>
       <use xlink:href="#DejaVuSans-3a" x="127.246094"/>
       <use xlink:href="#DejaVuSans-30" x="160.9375"/>
       <use xlink:href="#DejaVuSans-30" x="224.560547"/>
      </g>
     </g>
    </g>
    <g id="xtick_34">
     <g id="line2d_58">
      <g>
       <use xlink:href="#m29bb552ca6" x="503.176008" y="669.78" style="fill: #262626; stroke: #262626; stroke-width: 1.25"/>
      </g>
     </g>
     <g id="text_56">
      <!-- 14:00 -->
      <g style="fill: #262626" transform="translate(487.325695 687.638281) scale(0.11 -0.11)">
       <use xlink:href="#DejaVuSans-31"/>
       <use xlink:href="#DejaVuSans-34" x="63.623047"/>
       <use xlink:href="#DejaVuSans-3a" x="127.246094"/>
       <use xlink:href="#DejaVuSans-30" x="160.9375"/>
       <use xlink:href="#DejaVuSans-30" x="224.560547"/>
      </g>
     </g>
    </g>
    <g id="xtick_35">
     <g id="line2d_59">
      <g>
       <use xlink:href="#m29bb552ca6" x="566.232925" y="669.78" style="fill: #262626; stroke: #262626; stroke-width: 1.25"/>
      </g>
     </g>
     <g id="text_57">
      <!-- 16:00 -->
      <g style="fill: #262626" transform="translate(550.382612 687.638281) scale(0.11 -0.11)">
       <use xlink:href="#DejaVuSans-31"/>
       <use xlink:href="#DejaVuSans-36" x="63.623047"/>
       <use xlink:href="#DejaVuSans-3a" x="127.246094"/>
       <use xlink:href="#DejaVuSans-30" x="160.9375"/>
       <use xlink:href="#DejaVuSans-30" x="224.560547"/>
      </g>
     </g>
    </g>
    <g id="xtick_36">
     <g id="line2d_60">
      <g>
       <use xlink:href="#m29bb552ca6" x="629.289842" y="669.78" style="fill: #262626; stroke: #262626; stroke-width: 1.25"/>
      </g>
     </g>
     <g id="text_58">
      <!-- 18:00 -->
      <g style="fill: #262626" transform="translate(613.439529 687.638281) scale(0.11 -0.11)">
       <use xlink:href="#DejaVuSans-31"/>
       <use xlink:href="#DejaVuSans-38" x="63.623047"/>
       <use xlink:href="#DejaVuSans-3a" x="127.246094"/>
       <use xlink:href="#DejaVuSans-30" x="160.9375"/>
       <use xlink:href="#DejaVuSans-30" x="224.560547"/>
      </g>
     </g>
    </g>
    <g id="xtick_37">
     <g id="line2d_61">
      <g>
       <use xlink:href="#m29bb552ca6" x="692.346759" y="669.78" style="fill: #262626; stroke: #262626; stroke-width: 1.25"/>
      </g>
     </g>
     <g id="text_59">
      <!-- 20:00 -->
      <g style="fill: #262626" transform="translate(676.496446 687.638281) scale(0.11 -0.11)">
       <use xlink:href="#DejaVuSans-32"/>
       <use xlink:href="#DejaVuSans-30" x="63.623047"/>
       <use xlink:href="#DejaVuSans-3a" x="127.246094"/>
       <use xlink:href="#DejaVuSans-30" x="160.9375"/>
       <use xlink:href="#DejaVuSans-30" x="224.560547"/>
      </g>
     </g>
    </g>
    <g id="xtick_38">
     <g id="line2d_62">
      <g>
       <use xlink:href="#m29bb552ca6" x="755.403676" y="669.78" style="fill: #262626; stroke: #262626; stroke-width: 1.25"/>
      </g>
     </g>
     <g id="text_60">
      <!-- 22:00 -->
      <g style="fill: #262626" transform="translate(739.553363 687.638281) scale(0.11 -0.11)">
       <use xlink:href="#DejaVuSans-32"/>
       <use xlink:href="#DejaVuSans-32" x="63.623047"/>
       <use xlink:href="#DejaVuSans-3a" x="127.246094"/>
       <use xlink:href="#DejaVuSans-30" x="160.9375"/>
       <use xlink:href="#DejaVuSans-30" x="224.560547"/>
      </g>
     </g>
    </g>
    <g id="xtick_39">
     <g id="line2d_63">
      <g>
       <use xlink:href="#m29bb552ca6" x="818.460593" y="669.78" style="fill: #262626; stroke: #262626; stroke-width: 1.25"/>
      </g>
     </g>
     <g id="text_61">
      <!-- 00:00 -->
      <g style="fill: #262626" transform="translate(802.61028 687.638281) scale(0.11 -0.11)">
       <use xlink:href="#DejaVuSans-30"/>
       <use xlink:href="#DejaVuSans-30" x="63.623047"/>
       <use xlink:href="#DejaVuSans-3a" x="127.246094"/>
       <use xlink:href="#DejaVuSans-30" x="160.9375"/>
       <use xlink:href="#DejaVuSans-30" x="224.560547"/>
      </g>
     </g>
    </g>
    <g id="text_62">
     <!-- Hora -->
     <g style="fill: #262626" transform="translate(437.878125 703.044063) scale(0.12 -0.12)">
      <use xlink:href="#DejaVuSans-48"/>
      <use xlink:href="#DejaVuSans-6f" x="75.195312"/>
      <use xlink:href="#DejaVuSans-72" x="136.376953"/>
      <use xlink:href="#DejaVuSans-61" x="177.490234"/>
     </g>
    </g>
   </g>
   <g id="matplotlib.axis_6">
    <g id="ytick_13">
     <g id="line2d_64">
      <g>
       <use xlink:href="#ma721c5539c" x="53.37" y="652.227212" style="fill: #262626; stroke: #262626; stroke-width: 1.25"/>
      </g>
     </g>
     <g id="text_63">
      <!-- 14 -->
      <g style="fill: #262626" transform="translate(29.8725 656.406353) scale(0.11 -0.11)">
       <use xlink:href="#DejaVuSans-31"/>
       <use xlink:href="#DejaVuSans-34" x="63.623047"/>
      </g>
     </g>
    </g>
    <g id="ytick_14">
     <g id="line2d_65">
      <g>
       <use xlink:href="#ma721c5539c" x="53.37" y="626.94271" style="fill: #262626; stroke: #262626; stroke-width: 1.25"/>
      </g>
     </g>
     <g id="text_64">
      <!-- 16 -->
      <g style="fill: #262626" transform="translate(29.8725 631.121851) scale(0.11 -0.11)">
       <use xlink:href="#DejaVuSans-31"/>
       <use xlink:href="#DejaVuSans-36" x="63.623047"/>
      </g>
     </g>
    </g>
    <g id="ytick_15">
     <g id="line2d_66">
      <g>
       <use xlink:href="#ma721c5539c" x="53.37" y="601.658208" style="fill: #262626; stroke: #262626; stroke-width: 1.25"/>
      </g>
     </g>
     <g id="text_65">
      <!-- 18 -->
      <g style="fill: #262626" transform="translate(29.8725 605.837349) scale(0.11 -0.11)">
       <use xlink:href="#DejaVuSans-31"/>
       <use xlink:href="#DejaVuSans-38" x="63.623047"/>
      </g>
     </g>
    </g>
    <g id="ytick_16">
     <g id="line2d_67">
      <g>
       <use xlink:href="#ma721c5539c" x="53.37" y="576.373706" style="fill: #262626; stroke: #262626; stroke-width: 1.25"/>
      </g>
     </g>
     <g id="text_66">
      <!-- 20 -->
      <g style="fill: #262626" transform="translate(29.8725 580.552847) scale(0.11 -0.11)">
       <use xlink:href="#DejaVuSans-32"/>
       <use xlink:href="#DejaVuSans-30" x="63.623047"/>
      </g>
     </g>
    </g>
    <g id="ytick_17">
     <g id="line2d_68">
      <g>
       <use xlink:href="#ma721c5539c" x="53.37" y="551.089204" style="fill: #262626; stroke: #262626; stroke-width: 1.25"/>
      </g>
     </g>
     <g id="text_67">
      <!-- 22 -->
      <g style="fill: #262626" transform="translate(29.8725 555.268345) scale(0.11 -0.11)">
       <use xlink:href="#DejaVuSans-32"/>
       <use xlink:href="#DejaVuSans-32" x="63.623047"/>
      </g>
     </g>
    </g>
    <g id="ytick_18">
     <g id="line2d_69">
      <g>
       <use xlink:href="#ma721c5539c" x="53.37" y="525.804703" style="fill: #262626; stroke: #262626; stroke-width: 1.25"/>
      </g>
     </g>
     <g id="text_68">
      <!-- 24 -->
      <g style="fill: #262626" transform="translate(29.8725 529.983843) scale(0.11 -0.11)">
       <use xlink:href="#DejaVuSans-32"/>
       <use xlink:href="#DejaVuSans-34" x="63.623047"/>
      </g>
     </g>
    </g>
    <g id="ytick_19">
     <g id="line2d_70">
      <g>
       <use xlink:href="#ma721c5539c" x="53.37" y="500.520201" style="fill: #262626; stroke: #262626; stroke-width: 1.25"/>
      </g>
     </g>
     <g id="text_69">
      <!-- 26 -->
      <g style="fill: #262626" transform="translate(29.8725 504.699341) scale(0.11 -0.11)">
       <use xlink:href="#DejaVuSans-32"/>
       <use xlink:href="#DejaVuSans-36" x="63.623047"/>
      </g>
     </g>
    </g>
    <g id="text_70">
     <!-- PM10 (ppm) -->
     <g style="fill: #262626" transform="translate(23.376875 618.030938) rotate(-90) scale(0.12 -0.12)">
      <use xlink:href="#DejaVuSans-50"/>
      <use xlink:href="#DejaVuSans-4d" x="60.302734"/>
      <use xlink:href="#DejaVuSans-31" x="146.582031"/>
      <use xlink:href="#DejaVuSans-30" x="210.205078"/>
      <use xlink:href="#DejaVuSans-20" x="273.828125"/>
      <use xlink:href="#DejaVuSans-28" x="305.615234"/>
      <use xlink:href="#DejaVuSans-70" x="344.628906"/>
      <use xlink:href="#DejaVuSans-70" x="408.105469"/>
      <use xlink:href="#DejaVuSans-6d" x="471.582031"/>
      <use xlink:href="#DejaVuSans-29" x="568.994141"/>
     </g>
    </g>
   </g>
   <g id="PolyCollection_5">
    <defs>
     <path id="m9defc07bfa" d="M 89.627727 -116.717023 
L 89.627727 -102.842872 
L 121.156186 -98.81086 
L 152.684644 -90.81295 
L 184.213103 -88.262242 
L 215.741561 -88.061707 
L 247.27002 -93.10178 
L 278.798478 -118.577705 
L 310.326937 -162.670609 
L 341.855395 -198.657221 
L 373.383854 -194.400298 
L 404.912312 -166.306879 
L 436.440771 -149.293615 
L 467.969229 -134.518732 
L 499.497688 -109.757532 
L 531.026146 -93.107929 
L 562.554605 -94.883781 
L 594.083063 -89.210479 
L 625.611522 -91.627944 
L 657.13998 -124.199123 
L 688.668439 -123.249715 
L 720.196897 -111.002386 
L 751.725356 -107.33404 
L 783.253814 -102.801799 
L 814.782273 -101.636414 
L 814.782273 -118.208473 
L 814.782273 -118.208473 
L 783.253814 -117.510805 
L 751.725356 -122.117883 
L 720.196897 -126.10393 
L 688.668439 -143.922647 
L 657.13998 -145.688397 
L 625.611522 -104.424478 
L 594.083063 -102.591681 
L 562.554605 -111.574441 
L 531.026146 -105.783198 
L 499.497688 -125.838227 
L 467.969229 -151.48978 
L 436.440771 -165.76839 
L 404.912312 -184.038926 
L 373.383854 -214.368017 
L 341.855395 -218.659091 
L 310.326937 -179.462389 
L 278.798478 -135.068264 
L 247.27002 -106.453483 
L 215.741561 -101.237353 
L 184.213103 -101.255291 
L 152.684644 -104.013043 
L 121.156186 -115.248349 
L 89.627727 -116.717023 
z
" style="stroke: #4c72b0; stroke-opacity: 0.2"/>
    </defs>
    <g clip-path="url(#p4f42d7a59a)">
     <use xlink:href="#m9defc07bfa" x="0" y="720" style="fill: #4c72b0; fill-opacity: 0.2; stroke: #4c72b0; stroke-opacity: 0.2"/>
    </g>
   </g>
   <g id="PolyCollection_6">
    <defs>
     <path id="m858e2f571a" d="M 89.627727 -121.90866 
L 89.627727 -98.931187 
L 121.156186 -96.900023 
L 152.684644 -90.208379 
L 184.213103 -82.394396 
L 215.741561 -84.187394 
L 247.27002 -83.457446 
L 278.798478 -93.6281 
L 310.326937 -114.296563 
L 341.855395 -127.337184 
L 373.383854 -118.559649 
L 404.912312 -111.431107 
L 436.440771 -105.232739 
L 467.969229 -94.402546 
L 499.497688 -80.163514 
L 531.026146 -65.087586 
L 562.554605 -58.240909 
L 594.083063 -60.701347 
L 625.611522 -67.538377 
L 657.13998 -87.186272 
L 688.668439 -98.468072 
L 720.196897 -103.558928 
L 751.725356 -107.739574 
L 783.253814 -106.051245 
L 814.782273 -105.609714 
L 814.782273 -127.764335 
L 814.782273 -127.764335 
L 783.253814 -127.530944 
L 751.725356 -133.925204 
L 720.196897 -126.765076 
L 688.668439 -125.456149 
L 657.13998 -112.427907 
L 625.611522 -85.294498 
L 594.083063 -79.211916 
L 562.554605 -75.586543 
L 531.026146 -80.722346 
L 499.497688 -99.044393 
L 467.969229 -116.830442 
L 436.440771 -127.785976 
L 404.912312 -133.253538 
L 373.383854 -141.34516 
L 341.855395 -153.940227 
L 310.326937 -144.384318 
L 278.798478 -118.830009 
L 247.27002 -105.026458 
L 215.741561 -104.727423 
L 184.213103 -101.796173 
L 152.684644 -110.354121 
L 121.156186 -117.933659 
L 89.627727 -121.90866 
z
" style="stroke: #dd8452; stroke-opacity: 0.2"/>
    </defs>
    <g clip-path="url(#p4f42d7a59a)">
     <use xlink:href="#m858e2f571a" x="0" y="720" style="fill: #dd8452; fill-opacity: 0.2; stroke: #dd8452; stroke-opacity: 0.2"/>
    </g>
   </g>
   <g id="line2d_71">
    <path d="M 89.627727 609.890074 
L 121.156186 613.505913 
L 152.684644 622.538355 
L 184.213103 625.121969 
L 215.741561 625.754891 
L 247.27002 620.194223 
L 278.798478 593.472996 
L 310.326937 548.939563 
L 341.855395 511.469467 
L 373.383854 515.880729 
L 404.912312 545.129286 
L 436.440771 562.658117 
L 467.969229 577.090862 
L 499.497688 602.447156 
L 531.026146 620.631109 
L 562.554605 617.221321 
L 594.083063 624.344202 
L 625.611522 622.116596 
L 657.13998 584.989072 
L 688.668439 586.978331 
L 720.196897 601.505585 
L 751.725356 605.676683 
L 783.253814 610.086375 
L 814.782273 610.524945 
" clip-path="url(#p4f42d7a59a)" style="fill: none; stroke: #4c72b0; stroke-width: 1.5; stroke-linecap: round"/>
   </g>
   <g id="line2d_72">
    <path d="M 89.627727 609.30202 
L 121.156186 612.458929 
L 152.684644 619.953498 
L 184.213103 627.874858 
L 215.741561 626.042802 
L 247.27002 625.713602 
L 278.798478 613.786546 
L 310.326937 591.599881 
L 341.855395 579.49417 
L 373.383854 590.136157 
L 404.912312 597.453823 
L 436.440771 604.265308 
L 467.969229 615.195096 
L 499.497688 630.2866 
L 531.026146 647.561099 
L 562.554605 653.361959 
L 594.083063 650.30687 
L 625.611522 643.721633 
L 657.13998 620.825023 
L 688.668439 608.539433 
L 720.196897 604.910328 
L 751.725356 599.335562 
L 783.253814 603.128237 
L 814.782273 603.890933 
" clip-path="url(#p4f42d7a59a)" style="fill: none; stroke: #dd8452; stroke-width: 1.5; stroke-linecap: round"/>
   </g>
   <g id="line2d_73"/>
   <g id="line2d_74"/>
   <g id="patch_15">
    <path d="M 53.37 669.78 
L 53.37 493.32 
" style="fill: none; stroke: #262626; stroke-width: 1.25; stroke-linejoin: miter; stroke-linecap: square"/>
   </g>
   <g id="patch_16">
    <path d="M 851.04 669.78 
L 851.04 493.32 
" style="fill: none; stroke: #262626; stroke-width: 1.25; stroke-linejoin: miter; stroke-linecap: square"/>
   </g>
   <g id="patch_17">
    <path d="M 53.37 669.78 
L 851.04 669.78 
" style="fill: none; stroke: #262626; stroke-width: 1.25; stroke-linejoin: miter; stroke-linecap: square"/>
   </g>
   <g id="patch_18">
    <path d="M 53.37 493.32 
L 851.04 493.32 
" style="fill: none; stroke: #262626; stroke-width: 1.25; stroke-linejoin: miter; stroke-linecap: square"/>
   </g>
   <g id="legend_3">
    <g id="patch_19">
     <path d="M 715.394375 551.525625 
L 843.34 551.525625 
Q 845.54 551.525625 845.54 549.325625 
L 845.54 501.02 
Q 845.54 498.82 843.34 498.82 
L 715.394375 498.82 
Q 713.194375 498.82 713.194375 501.02 
L 713.194375 549.325625 
Q 713.194375 551.525625 715.394375 551.525625 
z
" style="fill: #ffffff; opacity: 0.8; stroke: #cccccc; stroke-linejoin: miter"/>
    </g>
    <g id="text_71">
     <!-- weekend or holidays -->
     <g style="fill: #262626" transform="translate(717.594375 512.338125) scale(0.12 -0.12)">
      <use xlink:href="#DejaVuSans-77"/>
      <use xlink:href="#DejaVuSans-65" x="81.787109"/>
      <use xlink:href="#DejaVuSans-65" x="143.310547"/>
      <use xlink:href="#DejaVuSans-6b" x="204.833984"/>
      <use xlink:href="#DejaVuSans-65" x="259.119141"/>
      <use xlink:href="#DejaVuSans-6e" x="320.642578"/>
      <use xlink:href="#DejaVuSans-64" x="384.021484"/>
      <use xlink:href="#DejaVuSans-20" x="447.498047"/>
      <use xlink:href="#DejaVuSans-6f" x="479.285156"/>
      <use xlink:href="#DejaVuSans-72" x="540.466797"/>
      <use xlink:href="#DejaVuSans-20" x="581.580078"/>
      <use xlink:href="#DejaVuSans-68" x="613.367188"/>
      <use xlink:href="#DejaVuSans-6f" x="676.746094"/>
      <use xlink:href="#DejaVuSans-6c" x="737.927734"/>
      <use xlink:href="#DejaVuSans-69" x="765.710938"/>
      <use xlink:href="#DejaVuSans-64" x="793.494141"/>
      <use xlink:href="#DejaVuSans-61" x="856.970703"/>
      <use xlink:href="#DejaVuSans-79" x="918.25"/>
      <use xlink:href="#DejaVuSans-73" x="977.429688"/>
     </g>
    </g>
    <g id="line2d_75">
     <path d="M 750.157891 524.842031 
L 761.157891 524.842031 
L 772.157891 524.842031 
" style="fill: none; stroke: #4c72b0; stroke-width: 1.5; stroke-linecap: round"/>
    </g>
    <g id="text_72">
     <!-- False -->
     <g style="fill: #262626" transform="translate(780.957891 528.692031) scale(0.11 -0.11)">
      <use xlink:href="#DejaVuSans-46"/>
      <use xlink:href="#DejaVuSans-61" x="48.394531"/>
      <use xlink:href="#DejaVuSans-6c" x="109.673828"/>
      <use xlink:href="#DejaVuSans-73" x="137.457031"/>
      <use xlink:href="#DejaVuSans-65" x="189.556641"/>
     </g>
    </g>
    <g id="line2d_76">
     <path d="M 750.157891 540.987969 
L 761.157891 540.987969 
L 772.157891 540.987969 
" style="fill: none; stroke: #dd8452; stroke-width: 1.5; stroke-linecap: round"/>
    </g>
    <g id="text_73">
     <!-- True -->
     <g style="fill: #262626" transform="translate(780.957891 544.837969) scale(0.11 -0.11)">
      <use xlink:href="#DejaVuSans-54"/>
      <use xlink:href="#DejaVuSans-72" x="46.333984"/>
      <use xlink:href="#DejaVuSans-75" x="87.447266"/>
      <use xlink:href="#DejaVuSans-65" x="150.826172"/>
     </g>
    </g>
   </g>
  </g>
  <g id="text_74">
   <!-- Micropartculas a lo largo del da -->
   <g style="fill: #262626" transform="translate(314.7075 25.91775) scale(0.144 -0.144)">
    <defs>
     <path id="DejaVuSans-63" d="M 3122 3366 
L 3122 2828 
Q 2878 2963 2633 3030 
Q 2388 3097 2138 3097 
Q 1578 3097 1268 2742 
Q 959 2388 959 1747 
Q 959 1106 1268 751 
Q 1578 397 2138 397 
Q 2388 397 2633 464 
Q 2878 531 3122 666 
L 3122 134 
Q 2881 22 2623 -34 
Q 2366 -91 2075 -91 
Q 1284 -91 818 406 
Q 353 903 353 1747 
Q 353 2603 823 3093 
Q 1294 3584 2113 3584 
Q 2378 3584 2631 3529 
Q 2884 3475 3122 3366 
z
" transform="scale(0.015625)"/>
     <path id="DejaVuSans-74" d="M 1172 4494 
L 1172 3500 
L 2356 3500 
L 2356 3053 
L 1172 3053 
L 1172 1153 
Q 1172 725 1289 603 
Q 1406 481 1766 481 
L 2356 481 
L 2356 0 
L 1766 0 
Q 1100 0 847 248 
Q 594 497 594 1153 
L 594 3053 
L 172 3053 
L 172 3500 
L 594 3500 
L 594 4494 
L 1172 4494 
z
" transform="scale(0.015625)"/>
     <path id="DejaVuSans-ed" d="M 1322 5119 
L 1944 5119 
L 926 3944 
L 447 3944 
L 1322 5119 
z
M 603 3500 
L 1178 3500 
L 1178 0 
L 603 0 
L 603 3500 
z
M 891 3584 
L 891 3584 
z
" transform="scale(0.015625)"/>
     <path id="DejaVuSans-67" d="M 2906 1791 
Q 2906 2416 2648 2759 
Q 2391 3103 1925 3103 
Q 1463 3103 1205 2759 
Q 947 2416 947 1791 
Q 947 1169 1205 825 
Q 1463 481 1925 481 
Q 2391 481 2648 825 
Q 2906 1169 2906 1791 
z
M 3481 434 
Q 3481 -459 3084 -895 
Q 2688 -1331 1869 -1331 
Q 1566 -1331 1297 -1286 
Q 1028 -1241 775 -1147 
L 775 -588 
Q 1028 -725 1275 -790 
Q 1522 -856 1778 -856 
Q 2344 -856 2625 -561 
Q 2906 -266 2906 331 
L 2906 616 
Q 2728 306 2450 153 
Q 2172 0 1784 0 
Q 1141 0 747 490 
Q 353 981 353 1791 
Q 353 2603 747 3093 
Q 1141 3584 1784 3584 
Q 2172 3584 2450 3431 
Q 2728 3278 2906 2969 
L 2906 3500 
L 3481 3500 
L 3481 434 
z
" transform="scale(0.015625)"/>
    </defs>
    <use xlink:href="#DejaVuSans-4d"/>
    <use xlink:href="#DejaVuSans-69" x="86.279297"/>
    <use xlink:href="#DejaVuSans-63" x="114.0625"/>
    <use xlink:href="#DejaVuSans-72" x="169.042969"/>
    <use xlink:href="#DejaVuSans-6f" x="207.90625"/>
    <use xlink:href="#DejaVuSans-70" x="269.087891"/>
    <use xlink:href="#DejaVuSans-61" x="332.564453"/>
    <use xlink:href="#DejaVuSans-72" x="393.84375"/>
    <use xlink:href="#DejaVuSans-74" x="434.957031"/>
    <use xlink:href="#DejaVuSans-ed" x="474.166016"/>
    <use xlink:href="#DejaVuSans-63" x="501.949219"/>
    <use xlink:href="#DejaVuSans-75" x="556.929688"/>
    <use xlink:href="#DejaVuSans-6c" x="620.308594"/>
    <use xlink:href="#DejaVuSans-61" x="648.091797"/>
    <use xlink:href="#DejaVuSans-73" x="709.371094"/>
    <use xlink:href="#DejaVuSans-20" x="761.470703"/>
    <use xlink:href="#DejaVuSans-61" x="793.257812"/>
    <use xlink:href="#DejaVuSans-20" x="854.537109"/>
    <use xlink:href="#DejaVuSans-6c" x="886.324219"/>
    <use xlink:href="#DejaVuSans-6f" x="914.107422"/>
    <use xlink:href="#DejaVuSans-20" x="975.289062"/>
    <use xlink:href="#DejaVuSans-6c" x="1007.076172"/>
    <use xlink:href="#DejaVuSans-61" x="1034.859375"/>
    <use xlink:href="#DejaVuSans-72" x="1096.138672"/>
    <use xlink:href="#DejaVuSans-67" x="1135.501953"/>
    <use xlink:href="#DejaVuSans-6f" x="1198.978516"/>
    <use xlink:href="#DejaVuSans-20" x="1260.160156"/>
    <use xlink:href="#DejaVuSans-64" x="1291.947266"/>
    <use xlink:href="#DejaVuSans-65" x="1355.423828"/>
    <use xlink:href="#DejaVuSans-6c" x="1416.947266"/>
    <use xlink:href="#DejaVuSans-20" x="1444.730469"/>
    <use xlink:href="#DejaVuSans-64" x="1476.517578"/>
    <use xlink:href="#DejaVuSans-ed" x="1539.994141"/>
    <use xlink:href="#DejaVuSans-61" x="1567.777344"/>
   </g>
  </g>
 </g>
 <defs>
  <clipPath id="pdf3a1a2a7f">
   <rect x="53.37" y="39.96" width="797.67" height="176.46"/>
  </clipPath>
  <clipPath id="pab18f95a6a">
   <rect x="53.37" y="266.64" width="797.67" height="176.46"/>
  </clipPath>
  <clipPath id="p4f42d7a59a">
   <rect x="53.37" y="493.32" width="797.67" height="176.46"/>
  </clipPath>
 </defs>
</svg>
