<?xml version="1.0" encoding="utf-8" standalone="no"?>
<!DOCTYPE svg PUBLIC "-//W3C//DTD SVG 1.1//EN"
  "http://www.w3.org/Graphics/SVG/1.1/DTD/svg11.dtd">
<svg xmlns:xlink="http://www.w3.org/1999/xlink" width="864pt" height="720pt" viewBox="0 0 864 720" xmlns="http://www.w3.org/2000/svg" version="1.1">
 <metadata>
  <rdf:RDF xmlns:dc="http://purl.org/dc/elements/1.1/" xmlns:cc="http://creativecommons.org/ns#" xmlns:rdf="http://www.w3.org/1999/02/22-rdf-syntax-ns#">
   <cc:Work>
    <dc:type rdf:resource="http://purl.org/dc/dcmitype/StillImage"/>
    <dc:date>2023-05-02T19:50:05.118819</dc:date>
    <dc:format>image/svg+xml</dc:format>
    <dc:creator>
     <cc:Agent>
      <dc:title>Matplotlib v3.7.1, https://matplotlib.org/</dc:title>
     </cc:Agent>
    </dc:creator>
   </cc:Work>
  </rdf:RDF>
 </metadata>
 <defs>
  <style type="text/css">*{stroke-linejoin: round; stroke-linecap: butt}</style>
 </defs>
 <g id="figure_1">
  <g id="patch_1">
   <path d="M 0 720 
L 864 720 
L 864 0 
L 0 0 
z
" style="fill: #ffffff"/>
  </g>
  <g id="axes_1">
   <g id="patch_2">
    <path d="M 63.72 139.5 
L 851.04 139.5 
L 851.04 12.96 
L 63.72 12.96 
z
" style="fill: #ffffff"/>
   </g>
   <g id="matplotlib.axis_1">
    <g id="xtick_1">
     <g id="line2d_1">
      <defs>
       <path id="m0c9a9ab474" d="M 0 0 
L 0 6 
" style="stroke: #262626; stroke-width: 1.25"/>
      </defs>
      <g>
       <use xlink:href="#m0c9a9ab474" x="72.018498" y="139.5" style="fill: #262626; stroke: #262626; stroke-width: 1.25"/>
      </g>
     </g>
     <g id="text_1">
      <!-- 00:00 -->
      <g style="fill: #262626" transform="translate(56.168186 157.358281) scale(0.11 -0.11)">
       <defs>
        <path id="DejaVuSans-30" d="M 2034 4250 
Q 1547 4250 1301 3770 
Q 1056 3291 1056 2328 
Q 1056 1369 1301 889 
Q 1547 409 2034 409 
Q 2525 409 2770 889 
Q 3016 1369 3016 2328 
Q 3016 3291 2770 3770 
Q 2525 4250 2034 4250 
z
M 2034 4750 
Q 2819 4750 3233 4129 
Q 3647 3509 3647 2328 
Q 3647 1150 3233 529 
Q 2819 -91 2034 -91 
Q 1250 -91 836 529 
Q 422 1150 422 2328 
Q 422 3509 836 4129 
Q 1250 4750 2034 4750 
z
" transform="scale(0.015625)"/>
        <path id="DejaVuSans-3a" d="M 750 794 
L 1409 794 
L 1409 0 
L 750 0 
L 750 794 
z
M 750 3309 
L 1409 3309 
L 1409 2516 
L 750 2516 
L 750 3309 
z
" transform="scale(0.015625)"/>
       </defs>
       <use xlink:href="#DejaVuSans-30"/>
       <use xlink:href="#DejaVuSans-30" x="63.623047"/>
       <use xlink:href="#DejaVuSans-3a" x="127.246094"/>
       <use xlink:href="#DejaVuSans-30" x="160.9375"/>
       <use xlink:href="#DejaVuSans-30" x="224.560547"/>
      </g>
     </g>
    </g>
    <g id="xtick_2">
     <g id="line2d_2">
      <g>
       <use xlink:href="#m0c9a9ab474" x="134.257233" y="139.5" style="fill: #262626; stroke: #262626; stroke-width: 1.25"/>
      </g>
     </g>
     <g id="text_2">
      <!-- 02:00 -->
      <g style="fill: #262626" transform="translate(118.406921 157.358281) scale(0.11 -0.11)">
       <defs>
        <path id="DejaVuSans-32" d="M 1228 531 
L 3431 531 
L 3431 0 
L 469 0 
L 469 531 
Q 828 903 1448 1529 
Q 2069 2156 2228 2338 
Q 2531 2678 2651 2914 
Q 2772 3150 2772 3378 
Q 2772 3750 2511 3984 
Q 2250 4219 1831 4219 
Q 1534 4219 1204 4116 
Q 875 4013 500 3803 
L 500 4441 
Q 881 4594 1212 4672 
Q 1544 4750 1819 4750 
Q 2544 4750 2975 4387 
Q 3406 4025 3406 3419 
Q 3406 3131 3298 2873 
Q 3191 2616 2906 2266 
Q 2828 2175 2409 1742 
Q 1991 1309 1228 531 
z
" transform="scale(0.015625)"/>
       </defs>
       <use xlink:href="#DejaVuSans-30"/>
       <use xlink:href="#DejaVuSans-32" x="63.623047"/>
       <use xlink:href="#DejaVuSans-3a" x="127.246094"/>
       <use xlink:href="#DejaVuSans-30" x="160.9375"/>
       <use xlink:href="#DejaVuSans-30" x="224.560547"/>
      </g>
     </g>
    </g>
    <g id="xtick_3">
     <g id="line2d_3">
      <g>
       <use xlink:href="#m0c9a9ab474" x="196.495968" y="139.5" style="fill: #262626; stroke: #262626; stroke-width: 1.25"/>
      </g>
     </g>
     <g id="text_3">
      <!-- 04:00 -->
      <g style="fill: #262626" transform="translate(180.645656 157.358281) scale(0.11 -0.11)">
       <defs>
        <path id="DejaVuSans-34" d="M 2419 4116 
L 825 1625 
L 2419 1625 
L 2419 4116 
z
M 2253 4666 
L 3047 4666 
L 3047 1625 
L 3713 1625 
L 3713 1100 
L 3047 1100 
L 3047 0 
L 2419 0 
L 2419 1100 
L 313 1100 
L 313 1709 
L 2253 4666 
z
" transform="scale(0.015625)"/>
       </defs>
       <use xlink:href="#DejaVuSans-30"/>
       <use xlink:href="#DejaVuSans-34" x="63.623047"/>
       <use xlink:href="#DejaVuSans-3a" x="127.246094"/>
       <use xlink:href="#DejaVuSans-30" x="160.9375"/>
       <use xlink:href="#DejaVuSans-30" x="224.560547"/>
      </g>
     </g>
    </g>
    <g id="xtick_4">
     <g id="line2d_4">
      <g>
       <use xlink:href="#m0c9a9ab474" x="258.734704" y="139.5" style="fill: #262626; stroke: #262626; stroke-width: 1.25"/>
      </g>
     </g>
     <g id="text_4">
      <!-- 06:00 -->
      <g style="fill: #262626" transform="translate(242.884391 157.358281) scale(0.11 -0.11)">
       <defs>
        <path id="DejaVuSans-36" d="M 2113 2584 
Q 1688 2584 1439 2293 
Q 1191 2003 1191 1497 
Q 1191 994 1439 701 
Q 1688 409 2113 409 
Q 2538 409 2786 701 
Q 3034 994 3034 1497 
Q 3034 2003 2786 2293 
Q 2538 2584 2113 2584 
z
M 3366 4563 
L 3366 3988 
Q 3128 4100 2886 4159 
Q 2644 4219 2406 4219 
Q 1781 4219 1451 3797 
Q 1122 3375 1075 2522 
Q 1259 2794 1537 2939 
Q 1816 3084 2150 3084 
Q 2853 3084 3261 2657 
Q 3669 2231 3669 1497 
Q 3669 778 3244 343 
Q 2819 -91 2113 -91 
Q 1303 -91 875 529 
Q 447 1150 447 2328 
Q 447 3434 972 4092 
Q 1497 4750 2381 4750 
Q 2619 4750 2861 4703 
Q 3103 4656 3366 4563 
z
" transform="scale(0.015625)"/>
       </defs>
       <use xlink:href="#DejaVuSans-30"/>
       <use xlink:href="#DejaVuSans-36" x="63.623047"/>
       <use xlink:href="#DejaVuSans-3a" x="127.246094"/>
       <use xlink:href="#DejaVuSans-30" x="160.9375"/>
       <use xlink:href="#DejaVuSans-30" x="224.560547"/>
      </g>
     </g>
    </g>
    <g id="xtick_5">
     <g id="line2d_5">
      <g>
       <use xlink:href="#m0c9a9ab474" x="320.973439" y="139.5" style="fill: #262626; stroke: #262626; stroke-width: 1.25"/>
      </g>
     </g>
     <g id="text_5">
      <!-- 08:00 -->
      <g style="fill: #262626" transform="translate(305.123126 157.358281) scale(0.11 -0.11)">
       <defs>
        <path id="DejaVuSans-38" d="M 2034 2216 
Q 1584 2216 1326 1975 
Q 1069 1734 1069 1313 
Q 1069 891 1326 650 
Q 1584 409 2034 409 
Q 2484 409 2743 651 
Q 3003 894 3003 1313 
Q 3003 1734 2745 1975 
Q 2488 2216 2034 2216 
z
M 1403 2484 
Q 997 2584 770 2862 
Q 544 3141 544 3541 
Q 544 4100 942 4425 
Q 1341 4750 2034 4750 
Q 2731 4750 3128 4425 
Q 3525 4100 3525 3541 
Q 3525 3141 3298 2862 
Q 3072 2584 2669 2484 
Q 3125 2378 3379 2068 
Q 3634 1759 3634 1313 
Q 3634 634 3220 271 
Q 2806 -91 2034 -91 
Q 1263 -91 848 271 
Q 434 634 434 1313 
Q 434 1759 690 2068 
Q 947 2378 1403 2484 
z
M 1172 3481 
Q 1172 3119 1398 2916 
Q 1625 2713 2034 2713 
Q 2441 2713 2670 2916 
Q 2900 3119 2900 3481 
Q 2900 3844 2670 4047 
Q 2441 4250 2034 4250 
Q 1625 4250 1398 4047 
Q 1172 3844 1172 3481 
z
" transform="scale(0.015625)"/>
       </defs>
       <use xlink:href="#DejaVuSans-30"/>
       <use xlink:href="#DejaVuSans-38" x="63.623047"/>
       <use xlink:href="#DejaVuSans-3a" x="127.246094"/>
       <use xlink:href="#DejaVuSans-30" x="160.9375"/>
       <use xlink:href="#DejaVuSans-30" x="224.560547"/>
      </g>
     </g>
    </g>
    <g id="xtick_6">
     <g id="line2d_6">
      <g>
       <use xlink:href="#m0c9a9ab474" x="383.212174" y="139.5" style="fill: #262626; stroke: #262626; stroke-width: 1.25"/>
      </g>
     </g>
     <g id="text_6">
      <!-- 10:00 -->
      <g style="fill: #262626" transform="translate(367.361861 157.358281) scale(0.11 -0.11)">
       <defs>
        <path id="DejaVuSans-31" d="M 794 531 
L 1825 531 
L 1825 4091 
L 703 3866 
L 703 4441 
L 1819 4666 
L 2450 4666 
L 2450 531 
L 3481 531 
L 3481 0 
L 794 0 
L 794 531 
z
" transform="scale(0.015625)"/>
       </defs>
       <use xlink:href="#DejaVuSans-31"/>
       <use xlink:href="#DejaVuSans-30" x="63.623047"/>
       <use xlink:href="#DejaVuSans-3a" x="127.246094"/>
       <use xlink:href="#DejaVuSans-30" x="160.9375"/>
       <use xlink:href="#DejaVuSans-30" x="224.560547"/>
      </g>
     </g>
    </g>
    <g id="xtick_7">
     <g id="line2d_7">
      <g>
       <use xlink:href="#m0c9a9ab474" x="445.450909" y="139.5" style="fill: #262626; stroke: #262626; stroke-width: 1.25"/>
      </g>
     </g>
     <g id="text_7">
      <!-- 12:00 -->
      <g style="fill: #262626" transform="translate(429.600597 157.358281) scale(0.11 -0.11)">
       <use xlink:href="#DejaVuSans-31"/>
       <use xlink:href="#DejaVuSans-32" x="63.623047"/>
       <use xlink:href="#DejaVuSans-3a" x="127.246094"/>
       <use xlink:href="#DejaVuSans-30" x="160.9375"/>
       <use xlink:href="#DejaVuSans-30" x="224.560547"/>
      </g>
     </g>
    </g>
    <g id="xtick_8">
     <g id="line2d_8">
      <g>
       <use xlink:href="#m0c9a9ab474" x="507.689644" y="139.5" style="fill: #262626; stroke: #262626; stroke-width: 1.25"/>
      </g>
     </g>
     <g id="text_8">
      <!-- 14:00 -->
      <g style="fill: #262626" transform="translate(491.839332 157.358281) scale(0.11 -0.11)">
       <use xlink:href="#DejaVuSans-31"/>
       <use xlink:href="#DejaVuSans-34" x="63.623047"/>
       <use xlink:href="#DejaVuSans-3a" x="127.246094"/>
       <use xlink:href="#DejaVuSans-30" x="160.9375"/>
       <use xlink:href="#DejaVuSans-30" x="224.560547"/>
      </g>
     </g>
    </g>
    <g id="xtick_9">
     <g id="line2d_9">
      <g>
       <use xlink:href="#m0c9a9ab474" x="569.928379" y="139.5" style="fill: #262626; stroke: #262626; stroke-width: 1.25"/>
      </g>
     </g>
     <g id="text_9">
      <!-- 16:00 -->
      <g style="fill: #262626" transform="translate(554.078067 157.358281) scale(0.11 -0.11)">
       <use xlink:href="#DejaVuSans-31"/>
       <use xlink:href="#DejaVuSans-36" x="63.623047"/>
       <use xlink:href="#DejaVuSans-3a" x="127.246094"/>
       <use xlink:href="#DejaVuSans-30" x="160.9375"/>
       <use xlink:href="#DejaVuSans-30" x="224.560547"/>
      </g>
     </g>
    </g>
    <g id="xtick_10">
     <g id="line2d_10">
      <g>
       <use xlink:href="#m0c9a9ab474" x="632.167115" y="139.5" style="fill: #262626; stroke: #262626; stroke-width: 1.25"/>
      </g>
     </g>
     <g id="text_10">
      <!-- 18:00 -->
      <g style="fill: #262626" transform="translate(616.316802 157.358281) scale(0.11 -0.11)">
       <use xlink:href="#DejaVuSans-31"/>
       <use xlink:href="#DejaVuSans-38" x="63.623047"/>
       <use xlink:href="#DejaVuSans-3a" x="127.246094"/>
       <use xlink:href="#DejaVuSans-30" x="160.9375"/>
       <use xlink:href="#DejaVuSans-30" x="224.560547"/>
      </g>
     </g>
    </g>
    <g id="xtick_11">
     <g id="line2d_11">
      <g>
       <use xlink:href="#m0c9a9ab474" x="694.40585" y="139.5" style="fill: #262626; stroke: #262626; stroke-width: 1.25"/>
      </g>
     </g>
     <g id="text_11">
      <!-- 20:00 -->
      <g style="fill: #262626" transform="translate(678.555537 157.358281) scale(0.11 -0.11)">
       <use xlink:href="#DejaVuSans-32"/>
       <use xlink:href="#DejaVuSans-30" x="63.623047"/>
       <use xlink:href="#DejaVuSans-3a" x="127.246094"/>
       <use xlink:href="#DejaVuSans-30" x="160.9375"/>
       <use xlink:href="#DejaVuSans-30" x="224.560547"/>
      </g>
     </g>
    </g>
    <g id="xtick_12">
     <g id="line2d_12">
      <g>
       <use xlink:href="#m0c9a9ab474" x="756.644585" y="139.5" style="fill: #262626; stroke: #262626; stroke-width: 1.25"/>
      </g>
     </g>
     <g id="text_12">
      <!-- 22:00 -->
      <g style="fill: #262626" transform="translate(740.794272 157.358281) scale(0.11 -0.11)">
       <use xlink:href="#DejaVuSans-32"/>
       <use xlink:href="#DejaVuSans-32" x="63.623047"/>
       <use xlink:href="#DejaVuSans-3a" x="127.246094"/>
       <use xlink:href="#DejaVuSans-30" x="160.9375"/>
       <use xlink:href="#DejaVuSans-30" x="224.560547"/>
      </g>
     </g>
    </g>
    <g id="xtick_13">
     <g id="line2d_13">
      <g>
       <use xlink:href="#m0c9a9ab474" x="818.88332" y="139.5" style="fill: #262626; stroke: #262626; stroke-width: 1.25"/>
      </g>
     </g>
     <g id="text_13">
      <!-- 00:00 -->
      <g style="fill: #262626" transform="translate(803.033008 157.358281) scale(0.11 -0.11)">
       <use xlink:href="#DejaVuSans-30"/>
       <use xlink:href="#DejaVuSans-30" x="63.623047"/>
       <use xlink:href="#DejaVuSans-3a" x="127.246094"/>
       <use xlink:href="#DejaVuSans-30" x="160.9375"/>
       <use xlink:href="#DejaVuSans-30" x="224.560547"/>
      </g>
     </g>
    </g>
    <g id="text_14">
     <!-- Hora -->
     <g style="fill: #262626" transform="translate(443.053125 172.764062) scale(0.12 -0.12)">
      <defs>
       <path id="DejaVuSans-48" d="M 628 4666 
L 1259 4666 
L 1259 2753 
L 3553 2753 
L 3553 4666 
L 4184 4666 
L 4184 0 
L 3553 0 
L 3553 2222 
L 1259 2222 
L 1259 0 
L 628 0 
L 628 4666 
z
" transform="scale(0.015625)"/>
       <path id="DejaVuSans-6f" d="M 1959 3097 
Q 1497 3097 1228 2736 
Q 959 2375 959 1747 
Q 959 1119 1226 758 
Q 1494 397 1959 397 
Q 2419 397 2687 759 
Q 2956 1122 2956 1747 
Q 2956 2369 2687 2733 
Q 2419 3097 1959 3097 
z
M 1959 3584 
Q 2709 3584 3137 3096 
Q 3566 2609 3566 1747 
Q 3566 888 3137 398 
Q 2709 -91 1959 -91 
Q 1206 -91 779 398 
Q 353 888 353 1747 
Q 353 2609 779 3096 
Q 1206 3584 1959 3584 
z
" transform="scale(0.015625)"/>
       <path id="DejaVuSans-72" d="M 2631 2963 
Q 2534 3019 2420 3045 
Q 2306 3072 2169 3072 
Q 1681 3072 1420 2755 
Q 1159 2438 1159 1844 
L 1159 0 
L 581 0 
L 581 3500 
L 1159 3500 
L 1159 2956 
Q 1341 3275 1631 3429 
Q 1922 3584 2338 3584 
Q 2397 3584 2469 3576 
Q 2541 3569 2628 3553 
L 2631 2963 
z
" transform="scale(0.015625)"/>
       <path id="DejaVuSans-61" d="M 2194 1759 
Q 1497 1759 1228 1600 
Q 959 1441 959 1056 
Q 959 750 1161 570 
Q 1363 391 1709 391 
Q 2188 391 2477 730 
Q 2766 1069 2766 1631 
L 2766 1759 
L 2194 1759 
z
M 3341 1997 
L 3341 0 
L 2766 0 
L 2766 531 
Q 2569 213 2275 61 
Q 1981 -91 1556 -91 
Q 1019 -91 701 211 
Q 384 513 384 1019 
Q 384 1609 779 1909 
Q 1175 2209 1959 2209 
L 2766 2209 
L 2766 2266 
Q 2766 2663 2505 2880 
Q 2244 3097 1772 3097 
Q 1472 3097 1187 3025 
Q 903 2953 641 2809 
L 641 3341 
Q 956 3463 1253 3523 
Q 1550 3584 1831 3584 
Q 2591 3584 2966 3190 
Q 3341 2797 3341 1997 
z
" transform="scale(0.015625)"/>
      </defs>
      <use xlink:href="#DejaVuSans-48"/>
      <use xlink:href="#DejaVuSans-6f" x="75.195312"/>
      <use xlink:href="#DejaVuSans-72" x="136.376953"/>
      <use xlink:href="#DejaVuSans-61" x="177.490234"/>
     </g>
    </g>
   </g>
   <g id="matplotlib.axis_2">
    <g id="ytick_1">
     <g id="line2d_14">
      <defs>
       <path id="mc524338c5b" d="M 0 0 
L -6 0 
" style="stroke: #262626; stroke-width: 1.25"/>
      </defs>
      <g>
       <use xlink:href="#mc524338c5b" x="63.72" y="123.019946" style="fill: #262626; stroke: #262626; stroke-width: 1.25"/>
      </g>
     </g>
     <g id="text_15">
      <!-- 2 -->
      <g style="fill: #262626" transform="translate(47.22125 127.199086) scale(0.11 -0.11)">
       <use xlink:href="#DejaVuSans-32"/>
      </g>
     </g>
    </g>
    <g id="ytick_2">
     <g id="line2d_15">
      <g>
       <use xlink:href="#mc524338c5b" x="63.72" y="79.743169" style="fill: #262626; stroke: #262626; stroke-width: 1.25"/>
      </g>
     </g>
     <g id="text_16">
      <!-- 3 -->
      <g style="fill: #262626" transform="translate(47.22125 83.92231) scale(0.11 -0.11)">
       <defs>
        <path id="DejaVuSans-33" d="M 2597 2516 
Q 3050 2419 3304 2112 
Q 3559 1806 3559 1356 
Q 3559 666 3084 287 
Q 2609 -91 1734 -91 
Q 1441 -91 1130 -33 
Q 819 25 488 141 
L 488 750 
Q 750 597 1062 519 
Q 1375 441 1716 441 
Q 2309 441 2620 675 
Q 2931 909 2931 1356 
Q 2931 1769 2642 2001 
Q 2353 2234 1838 2234 
L 1294 2234 
L 1294 2753 
L 1863 2753 
Q 2328 2753 2575 2939 
Q 2822 3125 2822 3475 
Q 2822 3834 2567 4026 
Q 2313 4219 1838 4219 
Q 1578 4219 1281 4162 
Q 984 4106 628 3988 
L 628 4550 
Q 988 4650 1302 4700 
Q 1616 4750 1894 4750 
Q 2613 4750 3031 4423 
Q 3450 4097 3450 3541 
Q 3450 3153 3228 2886 
Q 3006 2619 2597 2516 
z
" transform="scale(0.015625)"/>
       </defs>
       <use xlink:href="#DejaVuSans-33"/>
      </g>
     </g>
    </g>
    <g id="ytick_3">
     <g id="line2d_16">
      <g>
       <use xlink:href="#mc524338c5b" x="63.72" y="36.466393" style="fill: #262626; stroke: #262626; stroke-width: 1.25"/>
      </g>
     </g>
     <g id="text_17">
      <!-- 4 -->
      <g style="fill: #262626" transform="translate(47.22125 40.645534) scale(0.11 -0.11)">
       <use xlink:href="#DejaVuSans-34"/>
      </g>
     </g>
    </g>
    <g id="text_18">
     <!-- NH3 (ppm) -->
     <g style="fill: #262626" transform="translate(40.725625 109.099688) rotate(-90) scale(0.12 -0.12)">
      <defs>
       <path id="DejaVuSans-4e" d="M 628 4666 
L 1478 4666 
L 3547 763 
L 3547 4666 
L 4159 4666 
L 4159 0 
L 3309 0 
L 1241 3903 
L 1241 0 
L 628 0 
L 628 4666 
z
" transform="scale(0.015625)"/>
       <path id="DejaVuSans-20" transform="scale(0.015625)"/>
       <path id="DejaVuSans-28" d="M 1984 4856 
Q 1566 4138 1362 3434 
Q 1159 2731 1159 2009 
Q 1159 1288 1364 580 
Q 1569 -128 1984 -844 
L 1484 -844 
Q 1016 -109 783 600 
Q 550 1309 550 2009 
Q 550 2706 781 3412 
Q 1013 4119 1484 4856 
L 1984 4856 
z
" transform="scale(0.015625)"/>
       <path id="DejaVuSans-70" d="M 1159 525 
L 1159 -1331 
L 581 -1331 
L 581 3500 
L 1159 3500 
L 1159 2969 
Q 1341 3281 1617 3432 
Q 1894 3584 2278 3584 
Q 2916 3584 3314 3078 
Q 3713 2572 3713 1747 
Q 3713 922 3314 415 
Q 2916 -91 2278 -91 
Q 1894 -91 1617 61 
Q 1341 213 1159 525 
z
M 3116 1747 
Q 3116 2381 2855 2742 
Q 2594 3103 2138 3103 
Q 1681 3103 1420 2742 
Q 1159 2381 1159 1747 
Q 1159 1113 1420 752 
Q 1681 391 2138 391 
Q 2594 391 2855 752 
Q 3116 1113 3116 1747 
z
" transform="scale(0.015625)"/>
       <path id="DejaVuSans-6d" d="M 3328 2828 
Q 3544 3216 3844 3400 
Q 4144 3584 4550 3584 
Q 5097 3584 5394 3201 
Q 5691 2819 5691 2113 
L 5691 0 
L 5113 0 
L 5113 2094 
Q 5113 2597 4934 2840 
Q 4756 3084 4391 3084 
Q 3944 3084 3684 2787 
Q 3425 2491 3425 1978 
L 3425 0 
L 2847 0 
L 2847 2094 
Q 2847 2600 2669 2842 
Q 2491 3084 2119 3084 
Q 1678 3084 1418 2786 
Q 1159 2488 1159 1978 
L 1159 0 
L 581 0 
L 581 3500 
L 1159 3500 
L 1159 2956 
Q 1356 3278 1631 3431 
Q 1906 3584 2284 3584 
Q 2666 3584 2933 3390 
Q 3200 3197 3328 2828 
z
" transform="scale(0.015625)"/>
       <path id="DejaVuSans-29" d="M 513 4856 
L 1013 4856 
Q 1481 4119 1714 3412 
Q 1947 2706 1947 2009 
Q 1947 1309 1714 600 
Q 1481 -109 1013 -844 
L 513 -844 
Q 928 -128 1133 580 
Q 1338 1288 1338 2009 
Q 1338 2731 1133 3434 
Q 928 4138 513 4856 
z
" transform="scale(0.015625)"/>
      </defs>
      <use xlink:href="#DejaVuSans-4e"/>
      <use xlink:href="#DejaVuSans-48" x="74.804688"/>
      <use xlink:href="#DejaVuSans-33" x="150"/>
      <use xlink:href="#DejaVuSans-20" x="213.623047"/>
      <use xlink:href="#DejaVuSans-28" x="245.410156"/>
      <use xlink:href="#DejaVuSans-70" x="284.423828"/>
      <use xlink:href="#DejaVuSans-70" x="347.900391"/>
      <use xlink:href="#DejaVuSans-6d" x="411.376953"/>
      <use xlink:href="#DejaVuSans-29" x="508.789062"/>
     </g>
    </g>
   </g>
   <g id="PolyCollection_1">
    <defs>
     <path id="m8a423322dc" d="M 99.507273 -637.67864 
L 99.507273 -617.237269 
L 130.62664 -613.624968 
L 161.746008 -608.310026 
L 192.865375 -603.609688 
L 223.984743 -599.38432 
L 255.104111 -590.223764 
L 286.223478 -589.32734 
L 317.342846 -586.251818 
L 348.462213 -594.008259 
L 379.581581 -599.575732 
L 410.700949 -622.122497 
L 441.820316 -638.370528 
L 472.939684 -650.058836 
L 504.059051 -666.260044 
L 535.178419 -669.847789 
L 566.297787 -671.327337 
L 597.417154 -662.64137 
L 628.536522 -651.353561 
L 659.655889 -649.436753 
L 690.775257 -643.437018 
L 721.894625 -633.783809 
L 753.013992 -629.386994 
L 784.13336 -623.24203 
L 815.252727 -620.44762 
L 815.252727 -641.911801 
L 815.252727 -641.911801 
L 784.13336 -647.844137 
L 753.013992 -651.863294 
L 721.894625 -658.200973 
L 690.775257 -667.983943 
L 659.655889 -674.358368 
L 628.536522 -677.329034 
L 597.417154 -692.865162 
L 566.297787 -701.288182 
L 535.178419 -699.438747 
L 504.059051 -695.235053 
L 472.939684 -675.960171 
L 441.820316 -660.954419 
L 410.700949 -643.180937 
L 379.581581 -617.420437 
L 348.462213 -612.76772 
L 317.342846 -605.218919 
L 286.223478 -607.612711 
L 255.104111 -607.388393 
L 223.984743 -618.248556 
L 192.865375 -621.472868 
L 161.746008 -627.812436 
L 130.62664 -633.228978 
L 99.507273 -637.67864 
z
" style="stroke: #4c72b0; stroke-opacity: 0.2"/>
    </defs>
    <g clip-path="url(#paedcc748e1)">
     <use xlink:href="#m8a423322dc" x="0" y="720" style="fill: #4c72b0; fill-opacity: 0.2; stroke: #4c72b0; stroke-opacity: 0.2"/>
    </g>
   </g>
   <g id="PolyCollection_2">
    <defs>
     <path id="m0c0679fd0b" d="M 99.507273 -649.33465 
L 99.507273 -615.527244 
L 130.62664 -613.054286 
L 161.746008 -612.3766 
L 192.865375 -605.22325 
L 223.984743 -602.277377 
L 255.104111 -594.094936 
L 286.223478 -592.023833 
L 317.342846 -598.660706 
L 348.462213 -600.751016 
L 379.581581 -607.063963 
L 410.700949 -615.047058 
L 441.820316 -620.061002 
L 472.939684 -633.65197 
L 504.059051 -634.431111 
L 535.178419 -641.895166 
L 566.297787 -648.163165 
L 597.417154 -641.49331 
L 628.536522 -639.432511 
L 659.655889 -634.530823 
L 690.775257 -633.71428 
L 721.894625 -628.706053 
L 753.013992 -619.450688 
L 784.13336 -619.66885 
L 815.252727 -613.786569 
L 815.252727 -646.139111 
L 815.252727 -646.139111 
L 784.13336 -654.122206 
L 753.013992 -654.415411 
L 721.894625 -666.222896 
L 690.775257 -674.143363 
L 659.655889 -671.29567 
L 628.536522 -678.999849 
L 597.417154 -679.824169 
L 566.297787 -691.450344 
L 535.178419 -685.594406 
L 504.059051 -677.291764 
L 472.939684 -669.942638 
L 441.820316 -654.682423 
L 410.700949 -649.510918 
L 379.581581 -638.576179 
L 348.462213 -634.794713 
L 317.342846 -631.853573 
L 286.223478 -622.53396 
L 255.104111 -624.605063 
L 223.984743 -634.959508 
L 192.865375 -637.783872 
L 161.746008 -645.666428 
L 130.62664 -647.675707 
L 99.507273 -649.33465 
z
" style="stroke: #dd8452; stroke-opacity: 0.2"/>
    </defs>
    <g clip-path="url(#paedcc748e1)">
     <use xlink:href="#m0c0679fd0b" x="0" y="720" style="fill: #dd8452; fill-opacity: 0.2; stroke: #dd8452; stroke-opacity: 0.2"/>
    </g>
   </g>
   <g id="line2d_17">
    <path d="M 99.507273 92.449967 
L 130.62664 96.942914 
L 161.746008 102.403112 
L 192.865375 107.734957 
L 223.984743 111.553449 
L 255.104111 121.376524 
L 286.223478 121.900719 
L 317.342846 124.551867 
L 348.462213 116.890617 
L 379.581581 112.247186 
L 410.700949 87.540787 
L 441.820316 70.335174 
L 472.939684 56.99512 
L 504.059051 39.252452 
L 535.178419 35.171789 
L 566.297787 33.507297 
L 597.417154 42.622141 
L 628.536522 56.035022 
L 659.655889 58.198454 
L 690.775257 64.755541 
L 721.894625 74.194865 
L 753.013992 79.743169 
L 784.13336 84.921587 
L 815.252727 88.911978 
" clip-path="url(#paedcc748e1)" style="fill: none; stroke: #4c72b0; stroke-width: 1.5; stroke-linecap: round"/>
   </g>
   <g id="line2d_18">
    <path d="M 99.507273 87.986365 
L 130.62664 90.871483 
L 161.746008 91.810732 
L 192.865375 99.114679 
L 223.984743 103.014643 
L 255.104111 111.479472 
L 286.223478 114.36459 
L 317.342846 105.373105 
L 348.462213 103.27229 
L 379.581581 98.230336 
L 410.700949 89.406915 
L 441.820316 84.276927 
L 472.939684 69.027015 
L 504.059051 66.011115 
L 535.178419 57.486542 
L 566.297787 51.030693 
L 597.417154 59.9595 
L 628.536522 62.432459 
L 659.655889 68.71984 
L 690.775257 66.678482 
L 721.894625 73.148613 
L 753.013992 84.320521 
L 784.13336 84.364961 
L 815.252727 91.50773 
" clip-path="url(#paedcc748e1)" style="fill: none; stroke: #dd8452; stroke-width: 1.5; stroke-linecap: round"/>
   </g>
   <g id="line2d_19"/>
   <g id="line2d_20"/>
   <g id="patch_3">
    <path d="M 63.72 139.5 
L 63.72 12.96 
" style="fill: none; stroke: #262626; stroke-width: 1.25; stroke-linejoin: miter; stroke-linecap: square"/>
   </g>
   <g id="patch_4">
    <path d="M 851.04 139.5 
L 851.04 12.96 
" style="fill: none; stroke: #262626; stroke-width: 1.25; stroke-linejoin: miter; stroke-linecap: square"/>
   </g>
   <g id="patch_5">
    <path d="M 63.72 139.5 
L 851.04 139.5 
" style="fill: none; stroke: #262626; stroke-width: 1.25; stroke-linejoin: miter; stroke-linecap: square"/>
   </g>
   <g id="patch_6">
    <path d="M 63.72 12.96 
L 851.04 12.96 
" style="fill: none; stroke: #262626; stroke-width: 1.25; stroke-linejoin: miter; stroke-linecap: square"/>
   </g>
   <g id="legend_1">
    <g id="patch_7">
     <path d="M 715.394375 71.165625 
L 843.34 71.165625 
Q 845.54 71.165625 845.54 68.965625 
L 845.54 20.66 
Q 845.54 18.46 843.34 18.46 
L 715.394375 18.46 
Q 713.194375 18.46 713.194375 20.66 
L 713.194375 68.965625 
Q 713.194375 71.165625 715.394375 71.165625 
z
" style="fill: #ffffff; opacity: 0.8; stroke: #cccccc; stroke-linejoin: miter"/>
    </g>
    <g id="text_19">
     <!-- weekend or holidays -->
     <g style="fill: #262626" transform="translate(717.594375 31.978125) scale(0.12 -0.12)">
      <defs>
       <path id="DejaVuSans-77" d="M 269 3500 
L 844 3500 
L 1563 769 
L 2278 3500 
L 2956 3500 
L 3675 769 
L 4391 3500 
L 4966 3500 
L 4050 0 
L 3372 0 
L 2619 2869 
L 1863 0 
L 1184 0 
L 269 3500 
z
" transform="scale(0.015625)"/>
       <path id="DejaVuSans-65" d="M 3597 1894 
L 3597 1613 
L 953 1613 
Q 991 1019 1311 708 
Q 1631 397 2203 397 
Q 2534 397 2845 478 
Q 3156 559 3463 722 
L 3463 178 
Q 3153 47 2828 -22 
Q 2503 -91 2169 -91 
Q 1331 -91 842 396 
Q 353 884 353 1716 
Q 353 2575 817 3079 
Q 1281 3584 2069 3584 
Q 2775 3584 3186 3129 
Q 3597 2675 3597 1894 
z
M 3022 2063 
Q 3016 2534 2758 2815 
Q 2500 3097 2075 3097 
Q 1594 3097 1305 2825 
Q 1016 2553 972 2059 
L 3022 2063 
z
" transform="scale(0.015625)"/>
       <path id="DejaVuSans-6b" d="M 581 4863 
L 1159 4863 
L 1159 1991 
L 2875 3500 
L 3609 3500 
L 1753 1863 
L 3688 0 
L 2938 0 
L 1159 1709 
L 1159 0 
L 581 0 
L 581 4863 
z
" transform="scale(0.015625)"/>
       <path id="DejaVuSans-6e" d="M 3513 2113 
L 3513 0 
L 2938 0 
L 2938 2094 
Q 2938 2591 2744 2837 
Q 2550 3084 2163 3084 
Q 1697 3084 1428 2787 
Q 1159 2491 1159 1978 
L 1159 0 
L 581 0 
L 581 3500 
L 1159 3500 
L 1159 2956 
Q 1366 3272 1645 3428 
Q 1925 3584 2291 3584 
Q 2894 3584 3203 3211 
Q 3513 2838 3513 2113 
z
" transform="scale(0.015625)"/>
       <path id="DejaVuSans-64" d="M 2906 2969 
L 2906 4863 
L 3481 4863 
L 3481 0 
L 2906 0 
L 2906 525 
Q 2725 213 2448 61 
Q 2172 -91 1784 -91 
Q 1150 -91 751 415 
Q 353 922 353 1747 
Q 353 2572 751 3078 
Q 1150 3584 1784 3584 
Q 2172 3584 2448 3432 
Q 2725 3281 2906 2969 
z
M 947 1747 
Q 947 1113 1208 752 
Q 1469 391 1925 391 
Q 2381 391 2643 752 
Q 2906 1113 2906 1747 
Q 2906 2381 2643 2742 
Q 2381 3103 1925 3103 
Q 1469 3103 1208 2742 
Q 947 2381 947 1747 
z
" transform="scale(0.015625)"/>
       <path id="DejaVuSans-68" d="M 3513 2113 
L 3513 0 
L 2938 0 
L 2938 2094 
Q 2938 2591 2744 2837 
Q 2550 3084 2163 3084 
Q 1697 3084 1428 2787 
Q 1159 2491 1159 1978 
L 1159 0 
L 581 0 
L 581 4863 
L 1159 4863 
L 1159 2956 
Q 1366 3272 1645 3428 
Q 1925 3584 2291 3584 
Q 2894 3584 3203 3211 
Q 3513 2838 3513 2113 
z
" transform="scale(0.015625)"/>
       <path id="DejaVuSans-6c" d="M 603 4863 
L 1178 4863 
L 1178 0 
L 603 0 
L 603 4863 
z
" transform="scale(0.015625)"/>
       <path id="DejaVuSans-69" d="M 603 3500 
L 1178 3500 
L 1178 0 
L 603 0 
L 603 3500 
z
M 603 4863 
L 1178 4863 
L 1178 4134 
L 603 4134 
L 603 4863 
z
" transform="scale(0.015625)"/>
       <path id="DejaVuSans-79" d="M 2059 -325 
Q 1816 -950 1584 -1140 
Q 1353 -1331 966 -1331 
L 506 -1331 
L 506 -850 
L 844 -850 
Q 1081 -850 1212 -737 
Q 1344 -625 1503 -206 
L 1606 56 
L 191 3500 
L 800 3500 
L 1894 763 
L 2988 3500 
L 3597 3500 
L 2059 -325 
z
" transform="scale(0.015625)"/>
       <path id="DejaVuSans-73" d="M 2834 3397 
L 2834 2853 
Q 2591 2978 2328 3040 
Q 2066 3103 1784 3103 
Q 1356 3103 1142 2972 
Q 928 2841 928 2578 
Q 928 2378 1081 2264 
Q 1234 2150 1697 2047 
L 1894 2003 
Q 2506 1872 2764 1633 
Q 3022 1394 3022 966 
Q 3022 478 2636 193 
Q 2250 -91 1575 -91 
Q 1294 -91 989 -36 
Q 684 19 347 128 
L 347 722 
Q 666 556 975 473 
Q 1284 391 1588 391 
Q 1994 391 2212 530 
Q 2431 669 2431 922 
Q 2431 1156 2273 1281 
Q 2116 1406 1581 1522 
L 1381 1569 
Q 847 1681 609 1914 
Q 372 2147 372 2553 
Q 372 3047 722 3315 
Q 1072 3584 1716 3584 
Q 2034 3584 2315 3537 
Q 2597 3491 2834 3397 
z
" transform="scale(0.015625)"/>
      </defs>
      <use xlink:href="#DejaVuSans-77"/>
      <use xlink:href="#DejaVuSans-65" x="81.787109"/>
      <use xlink:href="#DejaVuSans-65" x="143.310547"/>
      <use xlink:href="#DejaVuSans-6b" x="204.833984"/>
      <use xlink:href="#DejaVuSans-65" x="259.119141"/>
      <use xlink:href="#DejaVuSans-6e" x="320.642578"/>
      <use xlink:href="#DejaVuSans-64" x="384.021484"/>
      <use xlink:href="#DejaVuSans-20" x="447.498047"/>
      <use xlink:href="#DejaVuSans-6f" x="479.285156"/>
      <use xlink:href="#DejaVuSans-72" x="540.466797"/>
      <use xlink:href="#DejaVuSans-20" x="581.580078"/>
      <use xlink:href="#DejaVuSans-68" x="613.367188"/>
      <use xlink:href="#DejaVuSans-6f" x="676.746094"/>
      <use xlink:href="#DejaVuSans-6c" x="737.927734"/>
      <use xlink:href="#DejaVuSans-69" x="765.710938"/>
      <use xlink:href="#DejaVuSans-64" x="793.494141"/>
      <use xlink:href="#DejaVuSans-61" x="856.970703"/>
      <use xlink:href="#DejaVuSans-79" x="918.25"/>
      <use xlink:href="#DejaVuSans-73" x="977.429688"/>
     </g>
    </g>
    <g id="line2d_21">
     <path d="M 750.157891 44.482031 
L 761.157891 44.482031 
L 772.157891 44.482031 
" style="fill: none; stroke: #4c72b0; stroke-width: 1.5; stroke-linecap: round"/>
    </g>
    <g id="text_20">
     <!-- False -->
     <g style="fill: #262626" transform="translate(780.957891 48.332031) scale(0.11 -0.11)">
      <defs>
       <path id="DejaVuSans-46" d="M 628 4666 
L 3309 4666 
L 3309 4134 
L 1259 4134 
L 1259 2759 
L 3109 2759 
L 3109 2228 
L 1259 2228 
L 1259 0 
L 628 0 
L 628 4666 
z
" transform="scale(0.015625)"/>
      </defs>
      <use xlink:href="#DejaVuSans-46"/>
      <use xlink:href="#DejaVuSans-61" x="48.394531"/>
      <use xlink:href="#DejaVuSans-6c" x="109.673828"/>
      <use xlink:href="#DejaVuSans-73" x="137.457031"/>
      <use xlink:href="#DejaVuSans-65" x="189.556641"/>
     </g>
    </g>
    <g id="line2d_22">
     <path d="M 750.157891 60.627969 
L 761.157891 60.627969 
L 772.157891 60.627969 
" style="fill: none; stroke: #dd8452; stroke-width: 1.5; stroke-linecap: round"/>
    </g>
    <g id="text_21">
     <!-- True -->
     <g style="fill: #262626" transform="translate(780.957891 64.477969) scale(0.11 -0.11)">
      <defs>
       <path id="DejaVuSans-54" d="M -19 4666 
L 3928 4666 
L 3928 4134 
L 2272 4134 
L 2272 0 
L 1638 0 
L 1638 4134 
L -19 4134 
L -19 4666 
z
" transform="scale(0.015625)"/>
       <path id="DejaVuSans-75" d="M 544 1381 
L 544 3500 
L 1119 3500 
L 1119 1403 
Q 1119 906 1312 657 
Q 1506 409 1894 409 
Q 2359 409 2629 706 
Q 2900 1003 2900 1516 
L 2900 3500 
L 3475 3500 
L 3475 0 
L 2900 0 
L 2900 538 
Q 2691 219 2414 64 
Q 2138 -91 1772 -91 
Q 1169 -91 856 284 
Q 544 659 544 1381 
z
M 1991 3584 
L 1991 3584 
z
" transform="scale(0.015625)"/>
      </defs>
      <use xlink:href="#DejaVuSans-54"/>
      <use xlink:href="#DejaVuSans-72" x="46.333984"/>
      <use xlink:href="#DejaVuSans-75" x="87.447266"/>
      <use xlink:href="#DejaVuSans-65" x="150.826172"/>
     </g>
    </g>
   </g>
  </g>
  <g id="axes_2">
   <g id="patch_8">
    <path d="M 63.72 316.26 
L 851.04 316.26 
L 851.04 189.72 
L 63.72 189.72 
z
" style="fill: #ffffff"/>
   </g>
   <g id="matplotlib.axis_3">
    <g id="xtick_14">
     <g id="line2d_23">
      <g>
       <use xlink:href="#m0c9a9ab474" x="72.018498" y="316.26" style="fill: #262626; stroke: #262626; stroke-width: 1.25"/>
      </g>
     </g>
     <g id="text_22">
      <!-- 00:00 -->
      <g style="fill: #262626" transform="translate(56.168186 334.118281) scale(0.11 -0.11)">
       <use xlink:href="#DejaVuSans-30"/>
       <use xlink:href="#DejaVuSans-30" x="63.623047"/>
       <use xlink:href="#DejaVuSans-3a" x="127.246094"/>
       <use xlink:href="#DejaVuSans-30" x="160.9375"/>
       <use xlink:href="#DejaVuSans-30" x="224.560547"/>
      </g>
     </g>
    </g>
    <g id="xtick_15">
     <g id="line2d_24">
      <g>
       <use xlink:href="#m0c9a9ab474" x="134.257233" y="316.26" style="fill: #262626; stroke: #262626; stroke-width: 1.25"/>
      </g>
     </g>
     <g id="text_23">
      <!-- 02:00 -->
      <g style="fill: #262626" transform="translate(118.406921 334.118281) scale(0.11 -0.11)">
       <use xlink:href="#DejaVuSans-30"/>
       <use xlink:href="#DejaVuSans-32" x="63.623047"/>
       <use xlink:href="#DejaVuSans-3a" x="127.246094"/>
       <use xlink:href="#DejaVuSans-30" x="160.9375"/>
       <use xlink:href="#DejaVuSans-30" x="224.560547"/>
      </g>
     </g>
    </g>
    <g id="xtick_16">
     <g id="line2d_25">
      <g>
       <use xlink:href="#m0c9a9ab474" x="196.495968" y="316.26" style="fill: #262626; stroke: #262626; stroke-width: 1.25"/>
      </g>
     </g>
     <g id="text_24">
      <!-- 04:00 -->
      <g style="fill: #262626" transform="translate(180.645656 334.118281) scale(0.11 -0.11)">
       <use xlink:href="#DejaVuSans-30"/>
       <use xlink:href="#DejaVuSans-34" x="63.623047"/>
       <use xlink:href="#DejaVuSans-3a" x="127.246094"/>
       <use xlink:href="#DejaVuSans-30" x="160.9375"/>
       <use xlink:href="#DejaVuSans-30" x="224.560547"/>
      </g>
     </g>
    </g>
    <g id="xtick_17">
     <g id="line2d_26">
      <g>
       <use xlink:href="#m0c9a9ab474" x="258.734704" y="316.26" style="fill: #262626; stroke: #262626; stroke-width: 1.25"/>
      </g>
     </g>
     <g id="text_25">
      <!-- 06:00 -->
      <g style="fill: #262626" transform="translate(242.884391 334.118281) scale(0.11 -0.11)">
       <use xlink:href="#DejaVuSans-30"/>
       <use xlink:href="#DejaVuSans-36" x="63.623047"/>
       <use xlink:href="#DejaVuSans-3a" x="127.246094"/>
       <use xlink:href="#DejaVuSans-30" x="160.9375"/>
       <use xlink:href="#DejaVuSans-30" x="224.560547"/>
      </g>
     </g>
    </g>
    <g id="xtick_18">
     <g id="line2d_27">
      <g>
       <use xlink:href="#m0c9a9ab474" x="320.973439" y="316.26" style="fill: #262626; stroke: #262626; stroke-width: 1.25"/>
      </g>
     </g>
     <g id="text_26">
      <!-- 08:00 -->
      <g style="fill: #262626" transform="translate(305.123126 334.118281) scale(0.11 -0.11)">
       <use xlink:href="#DejaVuSans-30"/>
       <use xlink:href="#DejaVuSans-38" x="63.623047"/>
       <use xlink:href="#DejaVuSans-3a" x="127.246094"/>
       <use xlink:href="#DejaVuSans-30" x="160.9375"/>
       <use xlink:href="#DejaVuSans-30" x="224.560547"/>
      </g>
     </g>
    </g>
    <g id="xtick_19">
     <g id="line2d_28">
      <g>
       <use xlink:href="#m0c9a9ab474" x="383.212174" y="316.26" style="fill: #262626; stroke: #262626; stroke-width: 1.25"/>
      </g>
     </g>
     <g id="text_27">
      <!-- 10:00 -->
      <g style="fill: #262626" transform="translate(367.361861 334.118281) scale(0.11 -0.11)">
       <use xlink:href="#DejaVuSans-31"/>
       <use xlink:href="#DejaVuSans-30" x="63.623047"/>
       <use xlink:href="#DejaVuSans-3a" x="127.246094"/>
       <use xlink:href="#DejaVuSans-30" x="160.9375"/>
       <use xlink:href="#DejaVuSans-30" x="224.560547"/>
      </g>
     </g>
    </g>
    <g id="xtick_20">
     <g id="line2d_29">
      <g>
       <use xlink:href="#m0c9a9ab474" x="445.450909" y="316.26" style="fill: #262626; stroke: #262626; stroke-width: 1.25"/>
      </g>
     </g>
     <g id="text_28">
      <!-- 12:00 -->
      <g style="fill: #262626" transform="translate(429.600597 334.118281) scale(0.11 -0.11)">
       <use xlink:href="#DejaVuSans-31"/>
       <use xlink:href="#DejaVuSans-32" x="63.623047"/>
       <use xlink:href="#DejaVuSans-3a" x="127.246094"/>
       <use xlink:href="#DejaVuSans-30" x="160.9375"/>
       <use xlink:href="#DejaVuSans-30" x="224.560547"/>
      </g>
     </g>
    </g>
    <g id="xtick_21">
     <g id="line2d_30">
      <g>
       <use xlink:href="#m0c9a9ab474" x="507.689644" y="316.26" style="fill: #262626; stroke: #262626; stroke-width: 1.25"/>
      </g>
     </g>
     <g id="text_29">
      <!-- 14:00 -->
      <g style="fill: #262626" transform="translate(491.839332 334.118281) scale(0.11 -0.11)">
       <use xlink:href="#DejaVuSans-31"/>
       <use xlink:href="#DejaVuSans-34" x="63.623047"/>
       <use xlink:href="#DejaVuSans-3a" x="127.246094"/>
       <use xlink:href="#DejaVuSans-30" x="160.9375"/>
       <use xlink:href="#DejaVuSans-30" x="224.560547"/>
      </g>
     </g>
    </g>
    <g id="xtick_22">
     <g id="line2d_31">
      <g>
       <use xlink:href="#m0c9a9ab474" x="569.928379" y="316.26" style="fill: #262626; stroke: #262626; stroke-width: 1.25"/>
      </g>
     </g>
     <g id="text_30">
      <!-- 16:00 -->
      <g style="fill: #262626" transform="translate(554.078067 334.118281) scale(0.11 -0.11)">
       <use xlink:href="#DejaVuSans-31"/>
       <use xlink:href="#DejaVuSans-36" x="63.623047"/>
       <use xlink:href="#DejaVuSans-3a" x="127.246094"/>
       <use xlink:href="#DejaVuSans-30" x="160.9375"/>
       <use xlink:href="#DejaVuSans-30" x="224.560547"/>
      </g>
     </g>
    </g>
    <g id="xtick_23">
     <g id="line2d_32">
      <g>
       <use xlink:href="#m0c9a9ab474" x="632.167115" y="316.26" style="fill: #262626; stroke: #262626; stroke-width: 1.25"/>
      </g>
     </g>
     <g id="text_31">
      <!-- 18:00 -->
      <g style="fill: #262626" transform="translate(616.316802 334.118281) scale(0.11 -0.11)">
       <use xlink:href="#DejaVuSans-31"/>
       <use xlink:href="#DejaVuSans-38" x="63.623047"/>
       <use xlink:href="#DejaVuSans-3a" x="127.246094"/>
       <use xlink:href="#DejaVuSans-30" x="160.9375"/>
       <use xlink:href="#DejaVuSans-30" x="224.560547"/>
      </g>
     </g>
    </g>
    <g id="xtick_24">
     <g id="line2d_33">
      <g>
       <use xlink:href="#m0c9a9ab474" x="694.40585" y="316.26" style="fill: #262626; stroke: #262626; stroke-width: 1.25"/>
      </g>
     </g>
     <g id="text_32">
      <!-- 20:00 -->
      <g style="fill: #262626" transform="translate(678.555537 334.118281) scale(0.11 -0.11)">
       <use xlink:href="#DejaVuSans-32"/>
       <use xlink:href="#DejaVuSans-30" x="63.623047"/>
       <use xlink:href="#DejaVuSans-3a" x="127.246094"/>
       <use xlink:href="#DejaVuSans-30" x="160.9375"/>
       <use xlink:href="#DejaVuSans-30" x="224.560547"/>
      </g>
     </g>
    </g>
    <g id="xtick_25">
     <g id="line2d_34">
      <g>
       <use xlink:href="#m0c9a9ab474" x="756.644585" y="316.26" style="fill: #262626; stroke: #262626; stroke-width: 1.25"/>
      </g>
     </g>
     <g id="text_33">
      <!-- 22:00 -->
      <g style="fill: #262626" transform="translate(740.794272 334.118281) scale(0.11 -0.11)">
       <use xlink:href="#DejaVuSans-32"/>
       <use xlink:href="#DejaVuSans-32" x="63.623047"/>
       <use xlink:href="#DejaVuSans-3a" x="127.246094"/>
       <use xlink:href="#DejaVuSans-30" x="160.9375"/>
       <use xlink:href="#DejaVuSans-30" x="224.560547"/>
      </g>
     </g>
    </g>
    <g id="xtick_26">
     <g id="line2d_35">
      <g>
       <use xlink:href="#m0c9a9ab474" x="818.88332" y="316.26" style="fill: #262626; stroke: #262626; stroke-width: 1.25"/>
      </g>
     </g>
     <g id="text_34">
      <!-- 00:00 -->
      <g style="fill: #262626" transform="translate(803.033008 334.118281) scale(0.11 -0.11)">
       <use xlink:href="#DejaVuSans-30"/>
       <use xlink:href="#DejaVuSans-30" x="63.623047"/>
       <use xlink:href="#DejaVuSans-3a" x="127.246094"/>
       <use xlink:href="#DejaVuSans-30" x="160.9375"/>
       <use xlink:href="#DejaVuSans-30" x="224.560547"/>
      </g>
     </g>
    </g>
    <g id="text_35">
     <!-- Hora -->
     <g style="fill: #262626" transform="translate(443.053125 349.524062) scale(0.12 -0.12)">
      <use xlink:href="#DejaVuSans-48"/>
      <use xlink:href="#DejaVuSans-6f" x="75.195312"/>
      <use xlink:href="#DejaVuSans-72" x="136.376953"/>
      <use xlink:href="#DejaVuSans-61" x="177.490234"/>
     </g>
    </g>
   </g>
   <g id="matplotlib.axis_4">
    <g id="ytick_4">
     <g id="line2d_36">
      <g>
       <use xlink:href="#mc524338c5b" x="63.72" y="298.90075" style="fill: #262626; stroke: #262626; stroke-width: 1.25"/>
      </g>
     </g>
     <g id="text_36">
      <!-- 1 -->
      <g style="fill: #262626" transform="translate(47.22125 303.07989) scale(0.11 -0.11)">
       <use xlink:href="#DejaVuSans-31"/>
      </g>
     </g>
    </g>
    <g id="ytick_5">
     <g id="line2d_37">
      <g>
       <use xlink:href="#mc524338c5b" x="63.72" y="269.260106" style="fill: #262626; stroke: #262626; stroke-width: 1.25"/>
      </g>
     </g>
     <g id="text_37">
      <!-- 2 -->
      <g style="fill: #262626" transform="translate(47.22125 273.439247) scale(0.11 -0.11)">
       <use xlink:href="#DejaVuSans-32"/>
      </g>
     </g>
    </g>
    <g id="ytick_6">
     <g id="line2d_38">
      <g>
       <use xlink:href="#mc524338c5b" x="63.72" y="239.619463" style="fill: #262626; stroke: #262626; stroke-width: 1.25"/>
      </g>
     </g>
     <g id="text_38">
      <!-- 3 -->
      <g style="fill: #262626" transform="translate(47.22125 243.798603) scale(0.11 -0.11)">
       <use xlink:href="#DejaVuSans-33"/>
      </g>
     </g>
    </g>
    <g id="ytick_7">
     <g id="line2d_39">
      <g>
       <use xlink:href="#mc524338c5b" x="63.72" y="209.978819" style="fill: #262626; stroke: #262626; stroke-width: 1.25"/>
      </g>
     </g>
     <g id="text_39">
      <!-- 4 -->
      <g style="fill: #262626" transform="translate(47.22125 214.15796) scale(0.11 -0.11)">
       <use xlink:href="#DejaVuSans-34"/>
      </g>
     </g>
    </g>
    <g id="text_40">
     <!-- C7H8 (ppm) -->
     <g style="fill: #262626" transform="translate(40.725625 289.378125) rotate(-90) scale(0.12 -0.12)">
      <defs>
       <path id="DejaVuSans-43" d="M 4122 4306 
L 4122 3641 
Q 3803 3938 3442 4084 
Q 3081 4231 2675 4231 
Q 1875 4231 1450 3742 
Q 1025 3253 1025 2328 
Q 1025 1406 1450 917 
Q 1875 428 2675 428 
Q 3081 428 3442 575 
Q 3803 722 4122 1019 
L 4122 359 
Q 3791 134 3420 21 
Q 3050 -91 2638 -91 
Q 1578 -91 968 557 
Q 359 1206 359 2328 
Q 359 3453 968 4101 
Q 1578 4750 2638 4750 
Q 3056 4750 3426 4639 
Q 3797 4528 4122 4306 
z
" transform="scale(0.015625)"/>
       <path id="DejaVuSans-37" d="M 525 4666 
L 3525 4666 
L 3525 4397 
L 1831 0 
L 1172 0 
L 2766 4134 
L 525 4134 
L 525 4666 
z
" transform="scale(0.015625)"/>
      </defs>
      <use xlink:href="#DejaVuSans-43"/>
      <use xlink:href="#DejaVuSans-37" x="69.824219"/>
      <use xlink:href="#DejaVuSans-48" x="133.447266"/>
      <use xlink:href="#DejaVuSans-38" x="208.642578"/>
      <use xlink:href="#DejaVuSans-20" x="272.265625"/>
      <use xlink:href="#DejaVuSans-28" x="304.052734"/>
      <use xlink:href="#DejaVuSans-70" x="343.066406"/>
      <use xlink:href="#DejaVuSans-70" x="406.542969"/>
      <use xlink:href="#DejaVuSans-6d" x="470.019531"/>
      <use xlink:href="#DejaVuSans-29" x="567.431641"/>
     </g>
    </g>
   </g>
   <g id="PolyCollection_3">
    <defs>
     <path id="m64bdbf9ac8" d="M 99.507273 -462.554268 
L 99.507273 -429.418677 
L 130.62664 -438.923537 
L 161.746008 -433.864903 
L 192.865375 -433.21559 
L 223.984743 -427.6614 
L 255.104111 -432.408019 
L 286.223478 -425.746947 
L 317.342846 -434.079259 
L 348.462213 -453.879174 
L 379.581581 -454.83834 
L 410.700949 -443.44382 
L 441.820316 -434.015976 
L 472.939684 -426.996123 
L 504.059051 -424.824444 
L 535.178419 -418.1493 
L 566.297787 -419.036755 
L 597.417154 -422.144548 
L 628.536522 -426.354379 
L 659.655889 -437.504779 
L 690.775257 -441.098809 
L 721.894625 -432.500616 
L 753.013992 -423.14987 
L 784.13336 -422.473173 
L 815.252727 -424.290229 
L 815.252727 -445.133345 
L 815.252727 -445.133345 
L 784.13336 -440.706106 
L 753.013992 -443.004826 
L 721.894625 -458.781514 
L 690.775257 -467.10919 
L 659.655889 -474.837808 
L 628.536522 -449.868215 
L 597.417154 -439.844451 
L 566.297787 -436.673291 
L 535.178419 -466.441672 
L 504.059051 -437.119665 
L 472.939684 -439.460294 
L 441.820316 -451.449355 
L 410.700949 -464.694841 
L 379.581581 -482.857964 
L 348.462213 -485.90275 
L 317.342846 -460.373473 
L 286.223478 -458.514024 
L 255.104111 -461.030305 
L 223.984743 -453.718778 
L 192.865375 -478.452806 
L 161.746008 -463.788013 
L 130.62664 -474.15814 
L 99.507273 -462.554268 
z
" style="stroke: #4c72b0; stroke-opacity: 0.2"/>
    </defs>
    <g clip-path="url(#p2d5aeb4d36)">
     <use xlink:href="#m64bdbf9ac8" x="0" y="720" style="fill: #4c72b0; fill-opacity: 0.2; stroke: #4c72b0; stroke-opacity: 0.2"/>
    </g>
   </g>
   <g id="PolyCollection_4">
    <defs>
     <path id="me4642e7cfc" d="M 99.507273 -439.883203 
L 99.507273 -418.005508 
L 130.62664 -420.077764 
L 161.746008 -415.001171 
L 192.865375 -410.72422 
L 223.984743 -414.053223 
L 255.104111 -416.007986 
L 286.223478 -412.500206 
L 317.342846 -414.151228 
L 348.462213 -413.991073 
L 379.581581 -415.840426 
L 410.700949 -412.938512 
L 441.820316 -413.373763 
L 472.939684 -410.395858 
L 504.059051 -411.324144 
L 535.178419 -410.270275 
L 566.297787 -409.491818 
L 597.417154 -410.976497 
L 628.536522 -410.598106 
L 659.655889 -412.614616 
L 690.775257 -412.521595 
L 721.894625 -417.175849 
L 753.013992 -413.849374 
L 784.13336 -413.847763 
L 815.252727 -412.437595 
L 815.252727 -507.010186 
L 815.252727 -507.010186 
L 784.13336 -429.544417 
L 753.013992 -429.289089 
L 721.894625 -436.813572 
L 690.775257 -428.637118 
L 659.655889 -429.676906 
L 628.536522 -425.326983 
L 597.417154 -425.924526 
L 566.297787 -424.223998 
L 535.178419 -424.134296 
L 504.059051 -424.445647 
L 472.939684 -424.78171 
L 441.820316 -429.332412 
L 410.700949 -429.704598 
L 379.581581 -442.359241 
L 348.462213 -447.58699 
L 317.342846 -442.105861 
L 286.223478 -431.326901 
L 255.104111 -524.528182 
L 223.984743 -435.060631 
L 192.865375 -472.466969 
L 161.746008 -511.216472 
L 130.62664 -446.18384 
L 99.507273 -439.883203 
z
" style="stroke: #dd8452; stroke-opacity: 0.2"/>
    </defs>
    <g clip-path="url(#p2d5aeb4d36)">
     <use xlink:href="#me4642e7cfc" x="0" y="720" style="fill: #dd8452; fill-opacity: 0.2; stroke: #dd8452; stroke-opacity: 0.2"/>
    </g>
   </g>
   <g id="line2d_40">
    <path d="M 99.507273 276.462639 
L 130.62664 263.859239 
L 161.746008 273.53012 
L 192.865375 267.749015 
L 223.984743 280.378962 
L 255.104111 274.181029 
L 286.223478 281.218072 
L 317.342846 274.076711 
L 348.462213 250.249211 
L 379.581581 251.682172 
L 410.700949 266.545493 
L 441.820316 277.627561 
L 472.939684 287.114731 
L 504.059051 289.204025 
L 535.178419 284.574439 
L 566.297787 292.84559 
L 597.417154 289.808089 
L 628.536522 283.321513 
L 659.655889 266.920055 
L 690.775257 266.296042 
L 721.894625 275.698791 
L 753.013992 287.885261 
L 784.13336 288.877344 
L 815.252727 286.065926 
" clip-path="url(#p2d5aeb4d36)" style="fill: none; stroke: #4c72b0; stroke-width: 1.5; stroke-linecap: round"/>
   </g>
   <g id="line2d_41">
    <path d="M 99.507273 292.328259 
L 130.62664 288.128129 
L 161.746008 267.971383 
L 192.865375 286.980056 
L 223.984743 296.41476 
L 255.104111 264.008557 
L 286.223478 299.031038 
L 317.342846 294.247487 
L 348.462213 292.239573 
L 379.581581 292.749519 
L 410.700949 298.837006 
L 441.820316 298.995348 
L 472.939684 302.769634 
L 504.059051 302.526999 
L 535.178419 303.612052 
L 566.297787 303.487249 
L 597.417154 302.022477 
L 628.536522 302.495466 
L 659.655889 299.373739 
L 690.775257 300.098989 
L 721.894625 293.482568 
L 753.013992 298.771877 
L 784.13336 298.578569 
L 815.252727 274.891828 
" clip-path="url(#p2d5aeb4d36)" style="fill: none; stroke: #dd8452; stroke-width: 1.5; stroke-linecap: round"/>
   </g>
   <g id="line2d_42"/>
   <g id="line2d_43"/>
   <g id="patch_9">
    <path d="M 63.72 316.26 
L 63.72 189.72 
" style="fill: none; stroke: #262626; stroke-width: 1.25; stroke-linejoin: miter; stroke-linecap: square"/>
   </g>
   <g id="patch_10">
    <path d="M 851.04 316.26 
L 851.04 189.72 
" style="fill: none; stroke: #262626; stroke-width: 1.25; stroke-linejoin: miter; stroke-linecap: square"/>
   </g>
   <g id="patch_11">
    <path d="M 63.72 316.26 
L 851.04 316.26 
" style="fill: none; stroke: #262626; stroke-width: 1.25; stroke-linejoin: miter; stroke-linecap: square"/>
   </g>
   <g id="patch_12">
    <path d="M 63.72 189.72 
L 851.04 189.72 
" style="fill: none; stroke: #262626; stroke-width: 1.25; stroke-linejoin: miter; stroke-linecap: square"/>
   </g>
   <g id="legend_2">
    <g id="patch_13">
     <path d="M 715.394375 247.925625 
L 843.34 247.925625 
Q 845.54 247.925625 845.54 245.725625 
L 845.54 197.42 
Q 845.54 195.22 843.34 195.22 
L 715.394375 195.22 
Q 713.194375 195.22 713.194375 197.42 
L 713.194375 245.725625 
Q 713.194375 247.925625 715.394375 247.925625 
z
" style="fill: #ffffff; opacity: 0.8; stroke: #cccccc; stroke-linejoin: miter"/>
    </g>
    <g id="text_41">
     <!-- weekend or holidays -->
     <g style="fill: #262626" transform="translate(717.594375 208.738125) scale(0.12 -0.12)">
      <use xlink:href="#DejaVuSans-77"/>
      <use xlink:href="#DejaVuSans-65" x="81.787109"/>
      <use xlink:href="#DejaVuSans-65" x="143.310547"/>
      <use xlink:href="#DejaVuSans-6b" x="204.833984"/>
      <use xlink:href="#DejaVuSans-65" x="259.119141"/>
      <use xlink:href="#DejaVuSans-6e" x="320.642578"/>
      <use xlink:href="#DejaVuSans-64" x="384.021484"/>
      <use xlink:href="#DejaVuSans-20" x="447.498047"/>
      <use xlink:href="#DejaVuSans-6f" x="479.285156"/>
      <use xlink:href="#DejaVuSans-72" x="540.466797"/>
      <use xlink:href="#DejaVuSans-20" x="581.580078"/>
      <use xlink:href="#DejaVuSans-68" x="613.367188"/>
      <use xlink:href="#DejaVuSans-6f" x="676.746094"/>
      <use xlink:href="#DejaVuSans-6c" x="737.927734"/>
      <use xlink:href="#DejaVuSans-69" x="765.710938"/>
      <use xlink:href="#DejaVuSans-64" x="793.494141"/>
      <use xlink:href="#DejaVuSans-61" x="856.970703"/>
      <use xlink:href="#DejaVuSans-79" x="918.25"/>
      <use xlink:href="#DejaVuSans-73" x="977.429688"/>
     </g>
    </g>
    <g id="line2d_44">
     <path d="M 750.157891 221.242031 
L 761.157891 221.242031 
L 772.157891 221.242031 
" style="fill: none; stroke: #4c72b0; stroke-width: 1.5; stroke-linecap: round"/>
    </g>
    <g id="text_42">
     <!-- False -->
     <g style="fill: #262626" transform="translate(780.957891 225.092031) scale(0.11 -0.11)">
      <use xlink:href="#DejaVuSans-46"/>
      <use xlink:href="#DejaVuSans-61" x="48.394531"/>
      <use xlink:href="#DejaVuSans-6c" x="109.673828"/>
      <use xlink:href="#DejaVuSans-73" x="137.457031"/>
      <use xlink:href="#DejaVuSans-65" x="189.556641"/>
     </g>
    </g>
    <g id="line2d_45">
     <path d="M 750.157891 237.387969 
L 761.157891 237.387969 
L 772.157891 237.387969 
" style="fill: none; stroke: #dd8452; stroke-width: 1.5; stroke-linecap: round"/>
    </g>
    <g id="text_43">
     <!-- True -->
     <g style="fill: #262626" transform="translate(780.957891 241.237969) scale(0.11 -0.11)">
      <use xlink:href="#DejaVuSans-54"/>
      <use xlink:href="#DejaVuSans-72" x="46.333984"/>
      <use xlink:href="#DejaVuSans-75" x="87.447266"/>
      <use xlink:href="#DejaVuSans-65" x="150.826172"/>
     </g>
    </g>
   </g>
  </g>
  <g id="axes_3">
   <g id="patch_14">
    <path d="M 63.72 493.02 
L 851.04 493.02 
L 851.04 366.48 
L 63.72 366.48 
z
" style="fill: #ffffff"/>
   </g>
   <g id="matplotlib.axis_5">
    <g id="xtick_27">
     <g id="line2d_46">
      <g>
       <use xlink:href="#m0c9a9ab474" x="72.018498" y="493.02" style="fill: #262626; stroke: #262626; stroke-width: 1.25"/>
      </g>
     </g>
     <g id="text_44">
      <!-- 00:00 -->
      <g style="fill: #262626" transform="translate(56.168186 510.878281) scale(0.11 -0.11)">
       <use xlink:href="#DejaVuSans-30"/>
       <use xlink:href="#DejaVuSans-30" x="63.623047"/>
       <use xlink:href="#DejaVuSans-3a" x="127.246094"/>
       <use xlink:href="#DejaVuSans-30" x="160.9375"/>
       <use xlink:href="#DejaVuSans-30" x="224.560547"/>
      </g>
     </g>
    </g>
    <g id="xtick_28">
     <g id="line2d_47">
      <g>
       <use xlink:href="#m0c9a9ab474" x="134.257233" y="493.02" style="fill: #262626; stroke: #262626; stroke-width: 1.25"/>
      </g>
     </g>
     <g id="text_45">
      <!-- 02:00 -->
      <g style="fill: #262626" transform="translate(118.406921 510.878281) scale(0.11 -0.11)">
       <use xlink:href="#DejaVuSans-30"/>
       <use xlink:href="#DejaVuSans-32" x="63.623047"/>
       <use xlink:href="#DejaVuSans-3a" x="127.246094"/>
       <use xlink:href="#DejaVuSans-30" x="160.9375"/>
       <use xlink:href="#DejaVuSans-30" x="224.560547"/>
      </g>
     </g>
    </g>
    <g id="xtick_29">
     <g id="line2d_48">
      <g>
       <use xlink:href="#m0c9a9ab474" x="196.495968" y="493.02" style="fill: #262626; stroke: #262626; stroke-width: 1.25"/>
      </g>
     </g>
     <g id="text_46">
      <!-- 04:00 -->
      <g style="fill: #262626" transform="translate(180.645656 510.878281) scale(0.11 -0.11)">
       <use xlink:href="#DejaVuSans-30"/>
       <use xlink:href="#DejaVuSans-34" x="63.623047"/>
       <use xlink:href="#DejaVuSans-3a" x="127.246094"/>
       <use xlink:href="#DejaVuSans-30" x="160.9375"/>
       <use xlink:href="#DejaVuSans-30" x="224.560547"/>
      </g>
     </g>
    </g>
    <g id="xtick_30">
     <g id="line2d_49">
      <g>
       <use xlink:href="#m0c9a9ab474" x="258.734704" y="493.02" style="fill: #262626; stroke: #262626; stroke-width: 1.25"/>
      </g>
     </g>
     <g id="text_47">
      <!-- 06:00 -->
      <g style="fill: #262626" transform="translate(242.884391 510.878281) scale(0.11 -0.11)">
       <use xlink:href="#DejaVuSans-30"/>
       <use xlink:href="#DejaVuSans-36" x="63.623047"/>
       <use xlink:href="#DejaVuSans-3a" x="127.246094"/>
       <use xlink:href="#DejaVuSans-30" x="160.9375"/>
       <use xlink:href="#DejaVuSans-30" x="224.560547"/>
      </g>
     </g>
    </g>
    <g id="xtick_31">
     <g id="line2d_50">
      <g>
       <use xlink:href="#m0c9a9ab474" x="320.973439" y="493.02" style="fill: #262626; stroke: #262626; stroke-width: 1.25"/>
      </g>
     </g>
     <g id="text_48">
      <!-- 08:00 -->
      <g style="fill: #262626" transform="translate(305.123126 510.878281) scale(0.11 -0.11)">
       <use xlink:href="#DejaVuSans-30"/>
       <use xlink:href="#DejaVuSans-38" x="63.623047"/>
       <use xlink:href="#DejaVuSans-3a" x="127.246094"/>
       <use xlink:href="#DejaVuSans-30" x="160.9375"/>
       <use xlink:href="#DejaVuSans-30" x="224.560547"/>
      </g>
     </g>
    </g>
    <g id="xtick_32">
     <g id="line2d_51">
      <g>
       <use xlink:href="#m0c9a9ab474" x="383.212174" y="493.02" style="fill: #262626; stroke: #262626; stroke-width: 1.25"/>
      </g>
     </g>
     <g id="text_49">
      <!-- 10:00 -->
      <g style="fill: #262626" transform="translate(367.361861 510.878281) scale(0.11 -0.11)">
       <use xlink:href="#DejaVuSans-31"/>
       <use xlink:href="#DejaVuSans-30" x="63.623047"/>
       <use xlink:href="#DejaVuSans-3a" x="127.246094"/>
       <use xlink:href="#DejaVuSans-30" x="160.9375"/>
       <use xlink:href="#DejaVuSans-30" x="224.560547"/>
      </g>
     </g>
    </g>
    <g id="xtick_33">
     <g id="line2d_52">
      <g>
       <use xlink:href="#m0c9a9ab474" x="445.450909" y="493.02" style="fill: #262626; stroke: #262626; stroke-width: 1.25"/>
      </g>
     </g>
     <g id="text_50">
      <!-- 12:00 -->
      <g style="fill: #262626" transform="translate(429.600597 510.878281) scale(0.11 -0.11)">
       <use xlink:href="#DejaVuSans-31"/>
       <use xlink:href="#DejaVuSans-32" x="63.623047"/>
       <use xlink:href="#DejaVuSans-3a" x="127.246094"/>
       <use xlink:href="#DejaVuSans-30" x="160.9375"/>
       <use xlink:href="#DejaVuSans-30" x="224.560547"/>
      </g>
     </g>
    </g>
    <g id="xtick_34">
     <g id="line2d_53">
      <g>
       <use xlink:href="#m0c9a9ab474" x="507.689644" y="493.02" style="fill: #262626; stroke: #262626; stroke-width: 1.25"/>
      </g>
     </g>
     <g id="text_51">
      <!-- 14:00 -->
      <g style="fill: #262626" transform="translate(491.839332 510.878281) scale(0.11 -0.11)">
       <use xlink:href="#DejaVuSans-31"/>
       <use xlink:href="#DejaVuSans-34" x="63.623047"/>
       <use xlink:href="#DejaVuSans-3a" x="127.246094"/>
       <use xlink:href="#DejaVuSans-30" x="160.9375"/>
       <use xlink:href="#DejaVuSans-30" x="224.560547"/>
      </g>
     </g>
    </g>
    <g id="xtick_35">
     <g id="line2d_54">
      <g>
       <use xlink:href="#m0c9a9ab474" x="569.928379" y="493.02" style="fill: #262626; stroke: #262626; stroke-width: 1.25"/>
      </g>
     </g>
     <g id="text_52">
      <!-- 16:00 -->
      <g style="fill: #262626" transform="translate(554.078067 510.878281) scale(0.11 -0.11)">
       <use xlink:href="#DejaVuSans-31"/>
       <use xlink:href="#DejaVuSans-36" x="63.623047"/>
       <use xlink:href="#DejaVuSans-3a" x="127.246094"/>
       <use xlink:href="#DejaVuSans-30" x="160.9375"/>
       <use xlink:href="#DejaVuSans-30" x="224.560547"/>
      </g>
     </g>
    </g>
    <g id="xtick_36">
     <g id="line2d_55">
      <g>
       <use xlink:href="#m0c9a9ab474" x="632.167115" y="493.02" style="fill: #262626; stroke: #262626; stroke-width: 1.25"/>
      </g>
     </g>
     <g id="text_53">
      <!-- 18:00 -->
      <g style="fill: #262626" transform="translate(616.316802 510.878281) scale(0.11 -0.11)">
       <use xlink:href="#DejaVuSans-31"/>
       <use xlink:href="#DejaVuSans-38" x="63.623047"/>
       <use xlink:href="#DejaVuSans-3a" x="127.246094"/>
       <use xlink:href="#DejaVuSans-30" x="160.9375"/>
       <use xlink:href="#DejaVuSans-30" x="224.560547"/>
      </g>
     </g>
    </g>
    <g id="xtick_37">
     <g id="line2d_56">
      <g>
       <use xlink:href="#m0c9a9ab474" x="694.40585" y="493.02" style="fill: #262626; stroke: #262626; stroke-width: 1.25"/>
      </g>
     </g>
     <g id="text_54">
      <!-- 20:00 -->
      <g style="fill: #262626" transform="translate(678.555537 510.878281) scale(0.11 -0.11)">
       <use xlink:href="#DejaVuSans-32"/>
       <use xlink:href="#DejaVuSans-30" x="63.623047"/>
       <use xlink:href="#DejaVuSans-3a" x="127.246094"/>
       <use xlink:href="#DejaVuSans-30" x="160.9375"/>
       <use xlink:href="#DejaVuSans-30" x="224.560547"/>
      </g>
     </g>
    </g>
    <g id="xtick_38">
     <g id="line2d_57">
      <g>
       <use xlink:href="#m0c9a9ab474" x="756.644585" y="493.02" style="fill: #262626; stroke: #262626; stroke-width: 1.25"/>
      </g>
     </g>
     <g id="text_55">
      <!-- 22:00 -->
      <g style="fill: #262626" transform="translate(740.794272 510.878281) scale(0.11 -0.11)">
       <use xlink:href="#DejaVuSans-32"/>
       <use xlink:href="#DejaVuSans-32" x="63.623047"/>
       <use xlink:href="#DejaVuSans-3a" x="127.246094"/>
       <use xlink:href="#DejaVuSans-30" x="160.9375"/>
       <use xlink:href="#DejaVuSans-30" x="224.560547"/>
      </g>
     </g>
    </g>
    <g id="xtick_39">
     <g id="line2d_58">
      <g>
       <use xlink:href="#m0c9a9ab474" x="818.88332" y="493.02" style="fill: #262626; stroke: #262626; stroke-width: 1.25"/>
      </g>
     </g>
     <g id="text_56">
      <!-- 00:00 -->
      <g style="fill: #262626" transform="translate(803.033008 510.878281) scale(0.11 -0.11)">
       <use xlink:href="#DejaVuSans-30"/>
       <use xlink:href="#DejaVuSans-30" x="63.623047"/>
       <use xlink:href="#DejaVuSans-3a" x="127.246094"/>
       <use xlink:href="#DejaVuSans-30" x="160.9375"/>
       <use xlink:href="#DejaVuSans-30" x="224.560547"/>
      </g>
     </g>
    </g>
    <g id="text_57">
     <!-- Hora -->
     <g style="fill: #262626" transform="translate(443.053125 526.284063) scale(0.12 -0.12)">
      <use xlink:href="#DejaVuSans-48"/>
      <use xlink:href="#DejaVuSans-6f" x="75.195312"/>
      <use xlink:href="#DejaVuSans-72" x="136.376953"/>
      <use xlink:href="#DejaVuSans-61" x="177.490234"/>
     </g>
    </g>
   </g>
   <g id="matplotlib.axis_6">
    <g id="ytick_8">
     <g id="line2d_59">
      <g>
       <use xlink:href="#mc524338c5b" x="63.72" y="471.66698" style="fill: #262626; stroke: #262626; stroke-width: 1.25"/>
      </g>
     </g>
     <g id="text_58">
      <!-- 0.50 -->
      <g style="fill: #262626" transform="translate(29.727813 475.84612) scale(0.11 -0.11)">
       <defs>
        <path id="DejaVuSans-2e" d="M 684 794 
L 1344 794 
L 1344 0 
L 684 0 
L 684 794 
z
" transform="scale(0.015625)"/>
        <path id="DejaVuSans-35" d="M 691 4666 
L 3169 4666 
L 3169 4134 
L 1269 4134 
L 1269 2991 
Q 1406 3038 1543 3061 
Q 1681 3084 1819 3084 
Q 2600 3084 3056 2656 
Q 3513 2228 3513 1497 
Q 3513 744 3044 326 
Q 2575 -91 1722 -91 
Q 1428 -91 1123 -41 
Q 819 9 494 109 
L 494 744 
Q 775 591 1075 516 
Q 1375 441 1709 441 
Q 2250 441 2565 725 
Q 2881 1009 2881 1497 
Q 2881 1984 2565 2268 
Q 2250 2553 1709 2553 
Q 1456 2553 1204 2497 
Q 953 2441 691 2322 
L 691 4666 
z
" transform="scale(0.015625)"/>
       </defs>
       <use xlink:href="#DejaVuSans-30"/>
       <use xlink:href="#DejaVuSans-2e" x="63.623047"/>
       <use xlink:href="#DejaVuSans-35" x="95.410156"/>
       <use xlink:href="#DejaVuSans-30" x="159.033203"/>
      </g>
     </g>
    </g>
    <g id="ytick_9">
     <g id="line2d_60">
      <g>
       <use xlink:href="#mc524338c5b" x="63.72" y="443.437532" style="fill: #262626; stroke: #262626; stroke-width: 1.25"/>
      </g>
     </g>
     <g id="text_59">
      <!-- 0.75 -->
      <g style="fill: #262626" transform="translate(29.727813 447.616673) scale(0.11 -0.11)">
       <use xlink:href="#DejaVuSans-30"/>
       <use xlink:href="#DejaVuSans-2e" x="63.623047"/>
       <use xlink:href="#DejaVuSans-37" x="95.410156"/>
       <use xlink:href="#DejaVuSans-35" x="159.033203"/>
      </g>
     </g>
    </g>
    <g id="ytick_10">
     <g id="line2d_61">
      <g>
       <use xlink:href="#mc524338c5b" x="63.72" y="415.208084" style="fill: #262626; stroke: #262626; stroke-width: 1.25"/>
      </g>
     </g>
     <g id="text_60">
      <!-- 1.00 -->
      <g style="fill: #262626" transform="translate(29.727813 419.387225) scale(0.11 -0.11)">
       <use xlink:href="#DejaVuSans-31"/>
       <use xlink:href="#DejaVuSans-2e" x="63.623047"/>
       <use xlink:href="#DejaVuSans-30" x="95.410156"/>
       <use xlink:href="#DejaVuSans-30" x="159.033203"/>
      </g>
     </g>
    </g>
    <g id="ytick_11">
     <g id="line2d_62">
      <g>
       <use xlink:href="#mc524338c5b" x="63.72" y="386.978636" style="fill: #262626; stroke: #262626; stroke-width: 1.25"/>
      </g>
     </g>
     <g id="text_61">
      <!-- 1.25 -->
      <g style="fill: #262626" transform="translate(29.727813 391.157777) scale(0.11 -0.11)">
       <use xlink:href="#DejaVuSans-31"/>
       <use xlink:href="#DejaVuSans-2e" x="63.623047"/>
       <use xlink:href="#DejaVuSans-32" x="95.410156"/>
       <use xlink:href="#DejaVuSans-35" x="159.033203"/>
      </g>
     </g>
    </g>
    <g id="text_62">
     <!-- C6H6 (ppm) -->
     <g style="fill: #262626" transform="translate(23.232188 466.138125) rotate(-90) scale(0.12 -0.12)">
      <use xlink:href="#DejaVuSans-43"/>
      <use xlink:href="#DejaVuSans-36" x="69.824219"/>
      <use xlink:href="#DejaVuSans-48" x="133.447266"/>
      <use xlink:href="#DejaVuSans-36" x="208.642578"/>
      <use xlink:href="#DejaVuSans-20" x="272.265625"/>
      <use xlink:href="#DejaVuSans-28" x="304.052734"/>
      <use xlink:href="#DejaVuSans-70" x="343.066406"/>
      <use xlink:href="#DejaVuSans-70" x="406.542969"/>
      <use xlink:href="#DejaVuSans-6d" x="470.019531"/>
      <use xlink:href="#DejaVuSans-29" x="567.431641"/>
     </g>
    </g>
   </g>
   <g id="PolyCollection_5">
    <defs>
     <path id="mab8405257c" d="M 99.507273 -252.568795 
L 99.507273 -239.647036 
L 130.62664 -237.256001 
L 161.746008 -235.168458 
L 192.865375 -234.913804 
L 223.984743 -232.731818 
L 255.104111 -234.826107 
L 286.223478 -241.132465 
L 317.342846 -253.560335 
L 348.462213 -263.021926 
L 379.581581 -260.292294 
L 410.700949 -254.366373 
L 441.820316 -248.707629 
L 472.939684 -249.28593 
L 504.059051 -250.301092 
L 535.178419 -247.161232 
L 566.297787 -244.231761 
L 597.417154 -248.223614 
L 628.536522 -252.114956 
L 659.655889 -259.676977 
L 690.775257 -264.109094 
L 721.894625 -257.270116 
L 753.013992 -250.696228 
L 784.13336 -247.953476 
L 815.252727 -243.995586 
L 815.252727 -263.588963 
L 815.252727 -263.588963 
L 784.13336 -264.326556 
L 753.013992 -266.078589 
L 721.894625 -274.181027 
L 690.775257 -280.051304 
L 659.655889 -300.469198 
L 628.536522 -287.882612 
L 597.417154 -261.679201 
L 566.297787 -256.218624 
L 535.178419 -286.152491 
L 504.059051 -261.968376 
L 472.939684 -262.596181 
L 441.820316 -265.253296 
L 410.700949 -270.141653 
L 379.581581 -277.424648 
L 348.462213 -281.00381 
L 317.342846 -265.40975 
L 286.223478 -251.661913 
L 255.104111 -245.580311 
L 223.984743 -242.441657 
L 192.865375 -284.065774 
L 161.746008 -248.063119 
L 130.62664 -251.580082 
L 99.507273 -252.568795 
z
" style="stroke: #4c72b0; stroke-opacity: 0.2"/>
    </defs>
    <g clip-path="url(#p12a854ebd5)">
     <use xlink:href="#mab8405257c" x="0" y="720" style="fill: #4c72b0; fill-opacity: 0.2; stroke: #4c72b0; stroke-opacity: 0.2"/>
    </g>
   </g>
   <g id="PolyCollection_6">
    <defs>
     <path id="m8e31092b4b" d="M 99.507273 -258.896298 
L 99.507273 -242.019337 
L 130.62664 -239.830796 
L 161.746008 -238.130959 
L 192.865375 -236.795372 
L 223.984743 -236.080239 
L 255.104111 -236.434156 
L 286.223478 -239.370171 
L 317.342846 -240.562334 
L 348.462213 -243.227436 
L 379.581581 -241.652051 
L 410.700949 -241.652051 
L 441.820316 -242.567005 
L 472.939684 -239.77504 
L 504.059051 -240.40475 
L 535.178419 -239.653208 
L 566.297787 -236.92238 
L 597.417154 -238.002244 
L 628.536522 -239.080368 
L 659.655889 -242.323752 
L 690.775257 -247.612268 
L 721.894625 -252.209257 
L 753.013992 -248.578494 
L 784.13336 -247.719337 
L 815.252727 -242.812595 
L 815.252727 -261.886292 
L 815.252727 -261.886292 
L 784.13336 -269.689211 
L 753.013992 -267.498361 
L 721.894625 -270.673745 
L 690.775257 -263.832188 
L 659.655889 -257.825923 
L 628.536522 -255.543542 
L 597.417154 -253.141036 
L 566.297787 -252.852703 
L 535.178419 -257.015804 
L 504.059051 -255.303291 
L 472.939684 -256.058974 
L 441.820316 -260.705927 
L 410.700949 -259.260548 
L 379.581581 -259.263584 
L 348.462213 -260.110467 
L 317.342846 -256.106742 
L 286.223478 -347.768182 
L 255.104111 -250.639943 
L 223.984743 -251.579407 
L 192.865375 -283.54698 
L 161.746008 -283.316288 
L 130.62664 -257.439294 
L 99.507273 -258.896298 
z
" style="stroke: #dd8452; stroke-opacity: 0.2"/>
    </defs>
    <g clip-path="url(#p12a854ebd5)">
     <use xlink:href="#m8e31092b4b" x="0" y="720" style="fill: #dd8452; fill-opacity: 0.2; stroke: #dd8452; stroke-opacity: 0.2"/>
    </g>
   </g>
   <g id="line2d_63">
    <path d="M 99.507273 474.272775 
L 130.62664 476.205302 
L 161.746008 478.82762 
L 192.865375 466.266564 
L 223.984743 482.576911 
L 255.104111 480.095293 
L 286.223478 473.794416 
L 317.342846 460.708948 
L 348.462213 449.138236 
L 379.581581 451.864648 
L 410.700949 458.161126 
L 441.820316 463.372071 
L 472.939684 464.457205 
L 504.059051 463.837303 
L 535.178419 459.469728 
L 566.297787 470.069086 
L 597.417154 465.561855 
L 628.536522 453.837855 
L 659.655889 444.802178 
L 690.775257 447.948841 
L 721.894625 454.8631 
L 753.013992 461.77323 
L 784.13336 463.995053 
L 815.252727 467.439252 
" clip-path="url(#p12a854ebd5)" style="fill: none; stroke: #4c72b0; stroke-width: 1.5; stroke-linecap: round"/>
   </g>
   <g id="line2d_64">
    <path d="M 99.507273 470.209976 
L 130.62664 471.545563 
L 161.746008 463.167791 
L 192.865375 465.110463 
L 223.984743 476.832368 
L 255.104111 476.280825 
L 286.223478 442.823848 
L 317.342846 472.031231 
L 348.462213 468.510138 
L 379.581581 470.088559 
L 410.700949 470.209976 
L 441.820316 469.144348 
L 472.939684 472.380145 
L 504.059051 472.147481 
L 535.178419 472.499006 
L 566.297787 475.470526 
L 597.417154 474.549987 
L 628.536522 472.868233 
L 659.655889 470.225476 
L 690.775257 464.939962 
L 721.894625 459.403865 
L 753.013992 461.970778 
L 784.13336 461.848041 
L 815.252727 468.028518 
" clip-path="url(#p12a854ebd5)" style="fill: none; stroke: #dd8452; stroke-width: 1.5; stroke-linecap: round"/>
   </g>
   <g id="line2d_65"/>
   <g id="line2d_66"/>
   <g id="patch_15">
    <path d="M 63.72 493.02 
L 63.72 366.48 
" style="fill: none; stroke: #262626; stroke-width: 1.25; stroke-linejoin: miter; stroke-linecap: square"/>
   </g>
   <g id="patch_16">
    <path d="M 851.04 493.02 
L 851.04 366.48 
" style="fill: none; stroke: #262626; stroke-width: 1.25; stroke-linejoin: miter; stroke-linecap: square"/>
   </g>
   <g id="patch_17">
    <path d="M 63.72 493.02 
L 851.04 493.02 
" style="fill: none; stroke: #262626; stroke-width: 1.25; stroke-linejoin: miter; stroke-linecap: square"/>
   </g>
   <g id="patch_18">
    <path d="M 63.72 366.48 
L 851.04 366.48 
" style="fill: none; stroke: #262626; stroke-width: 1.25; stroke-linejoin: miter; stroke-linecap: square"/>
   </g>
   <g id="legend_3">
    <g id="patch_19">
     <path d="M 715.394375 424.685625 
L 843.34 424.685625 
Q 845.54 424.685625 845.54 422.485625 
L 845.54 374.18 
Q 845.54 371.98 843.34 371.98 
L 715.394375 371.98 
Q 713.194375 371.98 713.194375 374.18 
L 713.194375 422.485625 
Q 713.194375 424.685625 715.394375 424.685625 
z
" style="fill: #ffffff; opacity: 0.8; stroke: #cccccc; stroke-linejoin: miter"/>
    </g>
    <g id="text_63">
     <!-- weekend or holidays -->
     <g style="fill: #262626" transform="translate(717.594375 385.498125) scale(0.12 -0.12)">
      <use xlink:href="#DejaVuSans-77"/>
      <use xlink:href="#DejaVuSans-65" x="81.787109"/>
      <use xlink:href="#DejaVuSans-65" x="143.310547"/>
      <use xlink:href="#DejaVuSans-6b" x="204.833984"/>
      <use xlink:href="#DejaVuSans-65" x="259.119141"/>
      <use xlink:href="#DejaVuSans-6e" x="320.642578"/>
      <use xlink:href="#DejaVuSans-64" x="384.021484"/>
      <use xlink:href="#DejaVuSans-20" x="447.498047"/>
      <use xlink:href="#DejaVuSans-6f" x="479.285156"/>
      <use xlink:href="#DejaVuSans-72" x="540.466797"/>
      <use xlink:href="#DejaVuSans-20" x="581.580078"/>
      <use xlink:href="#DejaVuSans-68" x="613.367188"/>
      <use xlink:href="#DejaVuSans-6f" x="676.746094"/>
      <use xlink:href="#DejaVuSans-6c" x="737.927734"/>
      <use xlink:href="#DejaVuSans-69" x="765.710938"/>
      <use xlink:href="#DejaVuSans-64" x="793.494141"/>
      <use xlink:href="#DejaVuSans-61" x="856.970703"/>
      <use xlink:href="#DejaVuSans-79" x="918.25"/>
      <use xlink:href="#DejaVuSans-73" x="977.429688"/>
     </g>
    </g>
    <g id="line2d_67">
     <path d="M 750.157891 398.002031 
L 761.157891 398.002031 
L 772.157891 398.002031 
" style="fill: none; stroke: #4c72b0; stroke-width: 1.5; stroke-linecap: round"/>
    </g>
    <g id="text_64">
     <!-- False -->
     <g style="fill: #262626" transform="translate(780.957891 401.852031) scale(0.11 -0.11)">
      <use xlink:href="#DejaVuSans-46"/>
      <use xlink:href="#DejaVuSans-61" x="48.394531"/>
      <use xlink:href="#DejaVuSans-6c" x="109.673828"/>
      <use xlink:href="#DejaVuSans-73" x="137.457031"/>
      <use xlink:href="#DejaVuSans-65" x="189.556641"/>
     </g>
    </g>
    <g id="line2d_68">
     <path d="M 750.157891 414.147969 
L 761.157891 414.147969 
L 772.157891 414.147969 
" style="fill: none; stroke: #dd8452; stroke-width: 1.5; stroke-linecap: round"/>
    </g>
    <g id="text_65">
     <!-- True -->
     <g style="fill: #262626" transform="translate(780.957891 417.997969) scale(0.11 -0.11)">
      <use xlink:href="#DejaVuSans-54"/>
      <use xlink:href="#DejaVuSans-72" x="46.333984"/>
      <use xlink:href="#DejaVuSans-75" x="87.447266"/>
      <use xlink:href="#DejaVuSans-65" x="150.826172"/>
     </g>
    </g>
   </g>
  </g>
  <g id="axes_4">
   <g id="patch_20">
    <path d="M 63.72 669.78 
L 851.04 669.78 
L 851.04 543.24 
L 63.72 543.24 
z
" style="fill: #ffffff"/>
   </g>
   <g id="matplotlib.axis_7">
    <g id="xtick_40">
     <g id="line2d_69">
      <g>
       <use xlink:href="#m0c9a9ab474" x="72.018498" y="669.78" style="fill: #262626; stroke: #262626; stroke-width: 1.25"/>
      </g>
     </g>
     <g id="text_66">
      <!-- 00:00 -->
      <g style="fill: #262626" transform="translate(56.168186 687.638281) scale(0.11 -0.11)">
       <use xlink:href="#DejaVuSans-30"/>
       <use xlink:href="#DejaVuSans-30" x="63.623047"/>
       <use xlink:href="#DejaVuSans-3a" x="127.246094"/>
       <use xlink:href="#DejaVuSans-30" x="160.9375"/>
       <use xlink:href="#DejaVuSans-30" x="224.560547"/>
      </g>
     </g>
    </g>
    <g id="xtick_41">
     <g id="line2d_70">
      <g>
       <use xlink:href="#m0c9a9ab474" x="134.257233" y="669.78" style="fill: #262626; stroke: #262626; stroke-width: 1.25"/>
      </g>
     </g>
     <g id="text_67">
      <!-- 02:00 -->
      <g style="fill: #262626" transform="translate(118.406921 687.638281) scale(0.11 -0.11)">
       <use xlink:href="#DejaVuSans-30"/>
       <use xlink:href="#DejaVuSans-32" x="63.623047"/>
       <use xlink:href="#DejaVuSans-3a" x="127.246094"/>
       <use xlink:href="#DejaVuSans-30" x="160.9375"/>
       <use xlink:href="#DejaVuSans-30" x="224.560547"/>
      </g>
     </g>
    </g>
    <g id="xtick_42">
     <g id="line2d_71">
      <g>
       <use xlink:href="#m0c9a9ab474" x="196.495968" y="669.78" style="fill: #262626; stroke: #262626; stroke-width: 1.25"/>
      </g>
     </g>
     <g id="text_68">
      <!-- 04:00 -->
      <g style="fill: #262626" transform="translate(180.645656 687.638281) scale(0.11 -0.11)">
       <use xlink:href="#DejaVuSans-30"/>
       <use xlink:href="#DejaVuSans-34" x="63.623047"/>
       <use xlink:href="#DejaVuSans-3a" x="127.246094"/>
       <use xlink:href="#DejaVuSans-30" x="160.9375"/>
       <use xlink:href="#DejaVuSans-30" x="224.560547"/>
      </g>
     </g>
    </g>
    <g id="xtick_43">
     <g id="line2d_72">
      <g>
       <use xlink:href="#m0c9a9ab474" x="258.734704" y="669.78" style="fill: #262626; stroke: #262626; stroke-width: 1.25"/>
      </g>
     </g>
     <g id="text_69">
      <!-- 06:00 -->
      <g style="fill: #262626" transform="translate(242.884391 687.638281) scale(0.11 -0.11)">
       <use xlink:href="#DejaVuSans-30"/>
       <use xlink:href="#DejaVuSans-36" x="63.623047"/>
       <use xlink:href="#DejaVuSans-3a" x="127.246094"/>
       <use xlink:href="#DejaVuSans-30" x="160.9375"/>
       <use xlink:href="#DejaVuSans-30" x="224.560547"/>
      </g>
     </g>
    </g>
    <g id="xtick_44">
     <g id="line2d_73">
      <g>
       <use xlink:href="#m0c9a9ab474" x="320.973439" y="669.78" style="fill: #262626; stroke: #262626; stroke-width: 1.25"/>
      </g>
     </g>
     <g id="text_70">
      <!-- 08:00 -->
      <g style="fill: #262626" transform="translate(305.123126 687.638281) scale(0.11 -0.11)">
       <use xlink:href="#DejaVuSans-30"/>
       <use xlink:href="#DejaVuSans-38" x="63.623047"/>
       <use xlink:href="#DejaVuSans-3a" x="127.246094"/>
       <use xlink:href="#DejaVuSans-30" x="160.9375"/>
       <use xlink:href="#DejaVuSans-30" x="224.560547"/>
      </g>
     </g>
    </g>
    <g id="xtick_45">
     <g id="line2d_74">
      <g>
       <use xlink:href="#m0c9a9ab474" x="383.212174" y="669.78" style="fill: #262626; stroke: #262626; stroke-width: 1.25"/>
      </g>
     </g>
     <g id="text_71">
      <!-- 10:00 -->
      <g style="fill: #262626" transform="translate(367.361861 687.638281) scale(0.11 -0.11)">
       <use xlink:href="#DejaVuSans-31"/>
       <use xlink:href="#DejaVuSans-30" x="63.623047"/>
       <use xlink:href="#DejaVuSans-3a" x="127.246094"/>
       <use xlink:href="#DejaVuSans-30" x="160.9375"/>
       <use xlink:href="#DejaVuSans-30" x="224.560547"/>
      </g>
     </g>
    </g>
    <g id="xtick_46">
     <g id="line2d_75">
      <g>
       <use xlink:href="#m0c9a9ab474" x="445.450909" y="669.78" style="fill: #262626; stroke: #262626; stroke-width: 1.25"/>
      </g>
     </g>
     <g id="text_72">
      <!-- 12:00 -->
      <g style="fill: #262626" transform="translate(429.600597 687.638281) scale(0.11 -0.11)">
       <use xlink:href="#DejaVuSans-31"/>
       <use xlink:href="#DejaVuSans-32" x="63.623047"/>
       <use xlink:href="#DejaVuSans-3a" x="127.246094"/>
       <use xlink:href="#DejaVuSans-30" x="160.9375"/>
       <use xlink:href="#DejaVuSans-30" x="224.560547"/>
      </g>
     </g>
    </g>
    <g id="xtick_47">
     <g id="line2d_76">
      <g>
       <use xlink:href="#m0c9a9ab474" x="507.689644" y="669.78" style="fill: #262626; stroke: #262626; stroke-width: 1.25"/>
      </g>
     </g>
     <g id="text_73">
      <!-- 14:00 -->
      <g style="fill: #262626" transform="translate(491.839332 687.638281) scale(0.11 -0.11)">
       <use xlink:href="#DejaVuSans-31"/>
       <use xlink:href="#DejaVuSans-34" x="63.623047"/>
       <use xlink:href="#DejaVuSans-3a" x="127.246094"/>
       <use xlink:href="#DejaVuSans-30" x="160.9375"/>
       <use xlink:href="#DejaVuSans-30" x="224.560547"/>
      </g>
     </g>
    </g>
    <g id="xtick_48">
     <g id="line2d_77">
      <g>
       <use xlink:href="#m0c9a9ab474" x="569.928379" y="669.78" style="fill: #262626; stroke: #262626; stroke-width: 1.25"/>
      </g>
     </g>
     <g id="text_74">
      <!-- 16:00 -->
      <g style="fill: #262626" transform="translate(554.078067 687.638281) scale(0.11 -0.11)">
       <use xlink:href="#DejaVuSans-31"/>
       <use xlink:href="#DejaVuSans-36" x="63.623047"/>
       <use xlink:href="#DejaVuSans-3a" x="127.246094"/>
       <use xlink:href="#DejaVuSans-30" x="160.9375"/>
       <use xlink:href="#DejaVuSans-30" x="224.560547"/>
      </g>
     </g>
    </g>
    <g id="xtick_49">
     <g id="line2d_78">
      <g>
       <use xlink:href="#m0c9a9ab474" x="632.167115" y="669.78" style="fill: #262626; stroke: #262626; stroke-width: 1.25"/>
      </g>
     </g>
     <g id="text_75">
      <!-- 18:00 -->
      <g style="fill: #262626" transform="translate(616.316802 687.638281) scale(0.11 -0.11)">
       <use xlink:href="#DejaVuSans-31"/>
       <use xlink:href="#DejaVuSans-38" x="63.623047"/>
       <use xlink:href="#DejaVuSans-3a" x="127.246094"/>
       <use xlink:href="#DejaVuSans-30" x="160.9375"/>
       <use xlink:href="#DejaVuSans-30" x="224.560547"/>
      </g>
     </g>
    </g>
    <g id="xtick_50">
     <g id="line2d_79">
      <g>
       <use xlink:href="#m0c9a9ab474" x="694.40585" y="669.78" style="fill: #262626; stroke: #262626; stroke-width: 1.25"/>
      </g>
     </g>
     <g id="text_76">
      <!-- 20:00 -->
      <g style="fill: #262626" transform="translate(678.555537 687.638281) scale(0.11 -0.11)">
       <use xlink:href="#DejaVuSans-32"/>
       <use xlink:href="#DejaVuSans-30" x="63.623047"/>
       <use xlink:href="#DejaVuSans-3a" x="127.246094"/>
       <use xlink:href="#DejaVuSans-30" x="160.9375"/>
       <use xlink:href="#DejaVuSans-30" x="224.560547"/>
      </g>
     </g>
    </g>
    <g id="xtick_51">
     <g id="line2d_80">
      <g>
       <use xlink:href="#m0c9a9ab474" x="756.644585" y="669.78" style="fill: #262626; stroke: #262626; stroke-width: 1.25"/>
      </g>
     </g>
     <g id="text_77">
      <!-- 22:00 -->
      <g style="fill: #262626" transform="translate(740.794272 687.638281) scale(0.11 -0.11)">
       <use xlink:href="#DejaVuSans-32"/>
       <use xlink:href="#DejaVuSans-32" x="63.623047"/>
       <use xlink:href="#DejaVuSans-3a" x="127.246094"/>
       <use xlink:href="#DejaVuSans-30" x="160.9375"/>
       <use xlink:href="#DejaVuSans-30" x="224.560547"/>
      </g>
     </g>
    </g>
    <g id="xtick_52">
     <g id="line2d_81">
      <g>
       <use xlink:href="#m0c9a9ab474" x="818.88332" y="669.78" style="fill: #262626; stroke: #262626; stroke-width: 1.25"/>
      </g>
     </g>
     <g id="text_78">
      <!-- 00:00 -->
      <g style="fill: #262626" transform="translate(803.033008 687.638281) scale(0.11 -0.11)">
       <use xlink:href="#DejaVuSans-30"/>
       <use xlink:href="#DejaVuSans-30" x="63.623047"/>
       <use xlink:href="#DejaVuSans-3a" x="127.246094"/>
       <use xlink:href="#DejaVuSans-30" x="160.9375"/>
       <use xlink:href="#DejaVuSans-30" x="224.560547"/>
      </g>
     </g>
    </g>
    <g id="text_79">
     <!-- Hora -->
     <g style="fill: #262626" transform="translate(443.053125 703.044062) scale(0.12 -0.12)">
      <use xlink:href="#DejaVuSans-48"/>
      <use xlink:href="#DejaVuSans-6f" x="75.195312"/>
      <use xlink:href="#DejaVuSans-72" x="136.376953"/>
      <use xlink:href="#DejaVuSans-61" x="177.490234"/>
     </g>
    </g>
   </g>
   <g id="matplotlib.axis_8">
    <g id="ytick_12">
     <g id="line2d_82">
      <g>
       <use xlink:href="#mc524338c5b" x="63.72" y="668.751848" style="fill: #262626; stroke: #262626; stroke-width: 1.25"/>
      </g>
     </g>
     <g id="text_80">
      <!-- 0 -->
      <g style="fill: #262626" transform="translate(47.22125 672.930988) scale(0.11 -0.11)">
       <use xlink:href="#DejaVuSans-30"/>
      </g>
     </g>
    </g>
    <g id="ytick_13">
     <g id="line2d_83">
      <g>
       <use xlink:href="#mc524338c5b" x="63.72" y="633.410382" style="fill: #262626; stroke: #262626; stroke-width: 1.25"/>
      </g>
     </g>
     <g id="text_81">
      <!-- 2 -->
      <g style="fill: #262626" transform="translate(47.22125 637.589523) scale(0.11 -0.11)">
       <use xlink:href="#DejaVuSans-32"/>
      </g>
     </g>
    </g>
    <g id="ytick_14">
     <g id="line2d_84">
      <g>
       <use xlink:href="#mc524338c5b" x="63.72" y="598.068917" style="fill: #262626; stroke: #262626; stroke-width: 1.25"/>
      </g>
     </g>
     <g id="text_82">
      <!-- 4 -->
      <g style="fill: #262626" transform="translate(47.22125 602.248058) scale(0.11 -0.11)">
       <use xlink:href="#DejaVuSans-34"/>
      </g>
     </g>
    </g>
    <g id="ytick_15">
     <g id="line2d_85">
      <g>
       <use xlink:href="#mc524338c5b" x="63.72" y="562.727452" style="fill: #262626; stroke: #262626; stroke-width: 1.25"/>
      </g>
     </g>
     <g id="text_83">
      <!-- 6 -->
      <g style="fill: #262626" transform="translate(47.22125 566.906592) scale(0.11 -0.11)">
       <use xlink:href="#DejaVuSans-36"/>
      </g>
     </g>
    </g>
    <g id="text_84">
     <!-- C8H10 (ppm) -->
     <g style="fill: #262626" transform="translate(40.725625 646.715625) rotate(-90) scale(0.12 -0.12)">
      <use xlink:href="#DejaVuSans-43"/>
      <use xlink:href="#DejaVuSans-38" x="69.824219"/>
      <use xlink:href="#DejaVuSans-48" x="133.447266"/>
      <use xlink:href="#DejaVuSans-31" x="208.642578"/>
      <use xlink:href="#DejaVuSans-30" x="272.265625"/>
      <use xlink:href="#DejaVuSans-20" x="335.888672"/>
      <use xlink:href="#DejaVuSans-28" x="367.675781"/>
      <use xlink:href="#DejaVuSans-70" x="406.689453"/>
      <use xlink:href="#DejaVuSans-70" x="470.166016"/>
      <use xlink:href="#DejaVuSans-6d" x="533.642578"/>
      <use xlink:href="#DejaVuSans-29" x="631.054688"/>
     </g>
    </g>
   </g>
   <g id="PolyCollection_7">
    <defs>
     <path id="mf34285fb55" d="M 99.507273 -62.369245 
L 99.507273 -58.256764 
L 130.62664 -57.563537 
L 161.746008 -56.878316 
L 192.865375 -57.106515 
L 223.984743 -56.753823 
L 255.104111 -57.288485 
L 286.223478 -59.568837 
L 317.342846 -62.48875 
L 348.462213 -69.082383 
L 379.581581 -68.594338 
L 410.700949 -66.319382 
L 441.820316 -62.754228 
L 472.939684 -61.610004 
L 504.059051 -61.17502 
L 535.178419 -59.249994 
L 566.297787 -59.11663 
L 597.417154 -60.05752 
L 628.536522 -61.748922 
L 659.655889 -64.530513 
L 690.775257 -65.637963 
L 721.894625 -62.762184 
L 753.013992 -60.318497 
L 784.13336 -60.336743 
L 815.252727 -59.597783 
L 815.252727 -65.167204 
L 815.252727 -65.167204 
L 784.13336 -67.109749 
L 753.013992 -65.679882 
L 721.894625 -70.627754 
L 690.775257 -71.456833 
L 659.655889 -71.490772 
L 628.536522 -70.053321 
L 597.417154 -65.486831 
L 566.297787 -63.45096 
L 535.178419 -73.204663 
L 504.059051 -65.184901 
L 472.939684 -65.708495 
L 441.820316 -68.006665 
L 410.700949 -74.792022 
L 379.581581 -96.213387 
L 348.462213 -88.358423 
L 317.342846 -66.1633 
L 286.223478 -65.197094 
L 255.104111 -62.726695 
L 223.984743 -59.656903 
L 192.865375 -67.975731 
L 161.746008 -73.07952 
L 130.62664 -61.689949 
L 99.507273 -62.369245 
z
" style="stroke: #4c72b0; stroke-opacity: 0.2"/>
    </defs>
    <g clip-path="url(#p0c20ed6dec)">
     <use xlink:href="#mf34285fb55" x="0" y="720" style="fill: #4c72b0; fill-opacity: 0.2; stroke: #4c72b0; stroke-opacity: 0.2"/>
    </g>
   </g>
   <g id="PolyCollection_8">
    <defs>
     <path id="m87485c63ee" d="M 99.507273 -61.376047 
L 99.507273 -57.138397 
L 130.62664 -57.347405 
L 161.746008 -57.403933 
L 192.865375 -57.290403 
L 223.984743 -57.13119 
L 255.104111 -57.365931 
L 286.223478 -57.105904 
L 317.342846 -58.316445 
L 348.462213 -58.770564 
L 379.581581 -58.54303 
L 410.700949 -57.498937 
L 441.820316 -57.451237 
L 472.939684 -57.070194 
L 504.059051 -56.868479 
L 535.178419 -56.305702 
L 566.297787 -55.971818 
L 597.417154 -56.267392 
L 628.536522 -56.605768 
L 659.655889 -57.301318 
L 690.775257 -57.940472 
L 721.894625 -59.284536 
L 753.013992 -58.739006 
L 784.13336 -58.719319 
L 815.252727 -57.176683 
L 815.252727 -60.594006 
L 815.252727 -60.594006 
L 784.13336 -64.213092 
L 753.013992 -63.830386 
L 721.894625 -64.054683 
L 690.775257 -62.396693 
L 659.655889 -61.494357 
L 628.536522 -60.365498 
L 597.417154 -59.050533 
L 566.297787 -58.855868 
L 535.178419 -59.320887 
L 504.059051 -59.896002 
L 472.939684 -60.139786 
L 441.820316 -62.094974 
L 410.700949 -61.983597 
L 379.581581 -68.045799 
L 348.462213 -108.632432 
L 317.342846 -66.220773 
L 286.223478 -171.008182 
L 255.104111 -65.823657 
L 223.984743 -78.211059 
L 192.865375 -69.891725 
L 161.746008 -68.387338 
L 130.62664 -62.28761 
L 99.507273 -61.376047 
z
" style="stroke: #dd8452; stroke-opacity: 0.2"/>
    </defs>
    <g clip-path="url(#p0c20ed6dec)">
     <use xlink:href="#m87485c63ee" x="0" y="720" style="fill: #dd8452; fill-opacity: 0.2; stroke: #dd8452; stroke-opacity: 0.2"/>
    </g>
   </g>
   <g id="line2d_86">
    <path d="M 99.507273 659.874004 
L 130.62664 660.592873 
L 161.746008 657.326506 
L 192.865375 658.809916 
L 223.984743 661.82014 
L 255.104111 660.485683 
L 286.223478 658.003582 
L 317.342846 655.743739 
L 348.462213 643.441122 
L 379.581581 640.881078 
L 410.700949 649.799121 
L 441.820316 654.699009 
L 472.939684 656.423815 
L 504.059051 656.990808 
L 535.178419 655.240405 
L 566.297787 658.932922 
L 597.417154 657.58293 
L 628.536522 654.73363 
L 659.655889 652.454575 
L 690.775257 651.605319 
L 721.894625 653.710788 
L 753.013992 657.131237 
L 784.13336 656.695166 
L 815.252727 657.90654 
" clip-path="url(#p0c20ed6dec)" style="fill: none; stroke: #4c72b0; stroke-width: 1.5; stroke-linecap: round"/>
   </g>
   <g id="line2d_87">
    <path d="M 99.507273 661.018527 
L 130.62664 660.3725 
L 161.746008 658.415419 
L 192.865375 657.655388 
L 223.984743 655.837174 
L 255.104111 659.137449 
L 286.223478 622.212516 
L 317.342846 658.263413 
L 348.462213 644.354836 
L 379.581581 657.351375 
L 410.700949 660.391501 
L 441.820316 660.424045 
L 472.939684 661.497547 
L 504.059051 661.758749 
L 535.178419 662.390384 
L 566.297787 662.613593 
L 597.417154 662.341507 
L 628.536522 661.533165 
L 659.655889 660.781219 
L 690.775257 659.784891 
L 721.894625 658.548425 
L 753.013992 658.840872 
L 784.13336 658.78325 
L 815.252727 661.212335 
" clip-path="url(#p0c20ed6dec)" style="fill: none; stroke: #dd8452; stroke-width: 1.5; stroke-linecap: round"/>
   </g>
   <g id="line2d_88"/>
   <g id="line2d_89"/>
   <g id="patch_21">
    <path d="M 63.72 669.78 
L 63.72 543.24 
" style="fill: none; stroke: #262626; stroke-width: 1.25; stroke-linejoin: miter; stroke-linecap: square"/>
   </g>
   <g id="patch_22">
    <path d="M 851.04 669.78 
L 851.04 543.24 
" style="fill: none; stroke: #262626; stroke-width: 1.25; stroke-linejoin: miter; stroke-linecap: square"/>
   </g>
   <g id="patch_23">
    <path d="M 63.72 669.78 
L 851.04 669.78 
" style="fill: none; stroke: #262626; stroke-width: 1.25; stroke-linejoin: miter; stroke-linecap: square"/>
   </g>
   <g id="patch_24">
    <path d="M 63.72 543.24 
L 851.04 543.24 
" style="fill: none; stroke: #262626; stroke-width: 1.25; stroke-linejoin: miter; stroke-linecap: square"/>
   </g>
   <g id="legend_4">
    <g id="patch_25">
     <path d="M 715.394375 601.445625 
L 843.34 601.445625 
Q 845.54 601.445625 845.54 599.245625 
L 845.54 550.94 
Q 845.54 548.74 843.34 548.74 
L 715.394375 548.74 
Q 713.194375 548.74 713.194375 550.94 
L 713.194375 599.245625 
Q 713.194375 601.445625 715.394375 601.445625 
z
" style="fill: #ffffff; opacity: 0.8; stroke: #cccccc; stroke-linejoin: miter"/>
    </g>
    <g id="text_85">
     <!-- weekend or holidays -->
     <g style="fill: #262626" transform="translate(717.594375 562.258125) scale(0.12 -0.12)">
      <use xlink:href="#DejaVuSans-77"/>
      <use xlink:href="#DejaVuSans-65" x="81.787109"/>
      <use xlink:href="#DejaVuSans-65" x="143.310547"/>
      <use xlink:href="#DejaVuSans-6b" x="204.833984"/>
      <use xlink:href="#DejaVuSans-65" x="259.119141"/>
      <use xlink:href="#DejaVuSans-6e" x="320.642578"/>
      <use xlink:href="#DejaVuSans-64" x="384.021484"/>
      <use xlink:href="#DejaVuSans-20" x="447.498047"/>
      <use xlink:href="#DejaVuSans-6f" x="479.285156"/>
      <use xlink:href="#DejaVuSans-72" x="540.466797"/>
      <use xlink:href="#DejaVuSans-20" x="581.580078"/>
      <use xlink:href="#DejaVuSans-68" x="613.367188"/>
      <use xlink:href="#DejaVuSans-6f" x="676.746094"/>
      <use xlink:href="#DejaVuSans-6c" x="737.927734"/>
      <use xlink:href="#DejaVuSans-69" x="765.710938"/>
      <use xlink:href="#DejaVuSans-64" x="793.494141"/>
      <use xlink:href="#DejaVuSans-61" x="856.970703"/>
      <use xlink:href="#DejaVuSans-79" x="918.25"/>
      <use xlink:href="#DejaVuSans-73" x="977.429688"/>
     </g>
    </g>
    <g id="line2d_90">
     <path d="M 750.157891 574.762031 
L 761.157891 574.762031 
L 772.157891 574.762031 
" style="fill: none; stroke: #4c72b0; stroke-width: 1.5; stroke-linecap: round"/>
    </g>
    <g id="text_86">
     <!-- False -->
     <g style="fill: #262626" transform="translate(780.957891 578.612031) scale(0.11 -0.11)">
      <use xlink:href="#DejaVuSans-46"/>
      <use xlink:href="#DejaVuSans-61" x="48.394531"/>
      <use xlink:href="#DejaVuSans-6c" x="109.673828"/>
      <use xlink:href="#DejaVuSans-73" x="137.457031"/>
      <use xlink:href="#DejaVuSans-65" x="189.556641"/>
     </g>
    </g>
    <g id="line2d_91">
     <path d="M 750.157891 590.907969 
L 761.157891 590.907969 
L 772.157891 590.907969 
" style="fill: none; stroke: #dd8452; stroke-width: 1.5; stroke-linecap: round"/>
    </g>
    <g id="text_87">
     <!-- True -->
     <g style="fill: #262626" transform="translate(780.957891 594.757969) scale(0.11 -0.11)">
      <use xlink:href="#DejaVuSans-54"/>
      <use xlink:href="#DejaVuSans-72" x="46.333984"/>
      <use xlink:href="#DejaVuSans-75" x="87.447266"/>
      <use xlink:href="#DejaVuSans-65" x="150.826172"/>
     </g>
    </g>
   </g>
  </g>
 </g>
 <defs>
  <clipPath id="paedcc748e1">
   <rect x="63.72" y="12.96" width="787.32" height="126.54"/>
  </clipPath>
  <clipPath id="p2d5aeb4d36">
   <rect x="63.72" y="189.72" width="787.32" height="126.54"/>
  </clipPath>
  <clipPath id="p12a854ebd5">
   <rect x="63.72" y="366.48" width="787.32" height="126.54"/>
  </clipPath>
  <clipPath id="p0c20ed6dec">
   <rect x="63.72" y="543.24" width="787.32" height="126.54"/>
  </clipPath>
 </defs>
</svg>
